<mxfile host="app.diagrams.net" agent="Mozilla/5.0 (Windows NT 10.0; Win64; x64) AppleWebKit/537.36 (KHTML, like Gecko) Chrome/136.0.0.0 Safari/537.36" version="27.0.5">
  <diagram name="Page-1" id="2YBvvXClWsGukQMizWep">
    <mxGraphModel dx="2276" dy="701" grid="1" gridSize="10" guides="1" tooltips="1" connect="1" arrows="1" fold="1" page="1" pageScale="1" pageWidth="850" pageHeight="1100" math="0" shadow="0">
      <root>
        <mxCell id="0" />
        <mxCell id="1" parent="0" />
        <mxCell id="aM9ryv3xv72pqoxQDRHE-1" value="Mngr_Home_Scr" style="shape=umlLifeline;perimeter=lifelinePerimeter;whiteSpace=wrap;html=1;container=0;dropTarget=0;collapsible=0;recursiveResize=0;outlineConnect=0;portConstraint=eastwest;newEdgeStyle={&quot;edgeStyle&quot;:&quot;elbowEdgeStyle&quot;,&quot;elbow&quot;:&quot;vertical&quot;,&quot;curved&quot;:0,&quot;rounded&quot;:0};" parent="1" vertex="1">
          <mxGeometry x="185" y="40" width="100" height="650" as="geometry" />
        </mxCell>
        <mxCell id="H98rCoK42WbpM3wih2S7-3" value="" style="html=1;points=[[0,0,0,0,0],[0,1,0,0,0],[1,0,0,0,0],[1,1,0,0,0]];perimeter=orthogonalPerimeter;outlineConnect=0;targetShapes=umlLifeline;portConstraint=eastwest;newEdgeStyle={&quot;curved&quot;:0,&quot;rounded&quot;:0};" parent="aM9ryv3xv72pqoxQDRHE-1" vertex="1">
          <mxGeometry x="45" y="68" width="10" height="42" as="geometry" />
        </mxCell>
        <mxCell id="aM9ryv3xv72pqoxQDRHE-5" value="Mngr_&lt;span style=&quot;background-color: transparent; color: light-dark(rgb(0, 0, 0), rgb(255, 255, 255));&quot;&gt;Marketplace_Scr&lt;/span&gt;" style="shape=umlLifeline;perimeter=lifelinePerimeter;whiteSpace=wrap;html=1;container=0;dropTarget=0;collapsible=0;recursiveResize=0;outlineConnect=0;portConstraint=eastwest;newEdgeStyle={&quot;edgeStyle&quot;:&quot;elbowEdgeStyle&quot;,&quot;elbow&quot;:&quot;vertical&quot;,&quot;curved&quot;:0,&quot;rounded&quot;:0};" parent="1" vertex="1">
          <mxGeometry x="410" y="40" width="130" height="650" as="geometry" />
        </mxCell>
        <mxCell id="XpciIUGIXHY3oaiCGFSE-14" value="" style="html=1;points=[[0,0,0,0,5],[0,1,0,0,-5],[1,0,0,0,5],[1,1,0,0,-5]];perimeter=orthogonalPerimeter;outlineConnect=0;targetShapes=umlLifeline;portConstraint=eastwest;newEdgeStyle={&quot;curved&quot;:0,&quot;rounded&quot;:0};" parent="aM9ryv3xv72pqoxQDRHE-5" vertex="1">
          <mxGeometry x="60" y="120" width="10" height="40" as="geometry" />
        </mxCell>
        <mxCell id="XpciIUGIXHY3oaiCGFSE-51" value="" style="html=1;points=[[0,0,0,0,5],[0,1,0,0,-5],[1,0,0,0,5],[1,1,0,0,-5]];perimeter=orthogonalPerimeter;outlineConnect=0;targetShapes=umlLifeline;portConstraint=eastwest;newEdgeStyle={&quot;curved&quot;:0,&quot;rounded&quot;:0};" parent="aM9ryv3xv72pqoxQDRHE-5" vertex="1">
          <mxGeometry x="60" y="540" width="10" height="20" as="geometry" />
        </mxCell>
        <mxCell id="XpciIUGIXHY3oaiCGFSE-1" value="Manager" style="shape=umlActor;verticalLabelPosition=bottom;verticalAlign=top;html=1;outlineConnect=0;" parent="1" vertex="1">
          <mxGeometry x="50" y="20" width="30" height="60" as="geometry" />
        </mxCell>
        <mxCell id="XpciIUGIXHY3oaiCGFSE-4" value="" style="endArrow=none;dashed=1;html=1;rounded=0;" parent="1" edge="1">
          <mxGeometry width="50" height="50" relative="1" as="geometry">
            <mxPoint x="60" y="110" as="sourcePoint" />
            <mxPoint x="60" y="690" as="targetPoint" />
          </mxGeometry>
        </mxCell>
        <mxCell id="XpciIUGIXHY3oaiCGFSE-5" value="Mngr_Sugg_Scr" style="shape=umlLifeline;perimeter=lifelinePerimeter;whiteSpace=wrap;html=1;container=0;dropTarget=0;collapsible=0;recursiveResize=0;outlineConnect=0;portConstraint=eastwest;newEdgeStyle={&quot;edgeStyle&quot;:&quot;elbowEdgeStyle&quot;,&quot;elbow&quot;:&quot;vertical&quot;,&quot;curved&quot;:0,&quot;rounded&quot;:0};" parent="1" vertex="1">
          <mxGeometry x="680" y="40" width="100" height="650" as="geometry" />
        </mxCell>
        <mxCell id="XpciIUGIXHY3oaiCGFSE-31" value="" style="html=1;points=[[0,0,0,0,5],[0,1,0,0,-5],[1,0,0,0,5],[1,1,0,0,-5]];perimeter=orthogonalPerimeter;outlineConnect=0;targetShapes=umlLifeline;portConstraint=eastwest;newEdgeStyle={&quot;curved&quot;:0,&quot;rounded&quot;:0};" parent="XpciIUGIXHY3oaiCGFSE-5" vertex="1">
          <mxGeometry x="45" y="220" width="10" height="400" as="geometry" />
        </mxCell>
        <mxCell id="XpciIUGIXHY3oaiCGFSE-7" value="" style="endArrow=classic;html=1;rounded=0;" parent="1" target="H98rCoK42WbpM3wih2S7-3" edge="1">
          <mxGeometry width="50" height="50" relative="1" as="geometry">
            <mxPoint x="60" y="130" as="sourcePoint" />
            <mxPoint x="220" y="130" as="targetPoint" />
          </mxGeometry>
        </mxCell>
        <mxCell id="XpciIUGIXHY3oaiCGFSE-8" value="MarketplaceButton()" style="text;html=1;align=center;verticalAlign=middle;resizable=0;points=[];autosize=1;strokeColor=none;fillColor=none;" parent="1" vertex="1">
          <mxGeometry x="70" y="110" width="130" height="30" as="geometry" />
        </mxCell>
        <mxCell id="XpciIUGIXHY3oaiCGFSE-10" value="" style="endArrow=classic;html=1;rounded=0;" parent="1" edge="1">
          <mxGeometry width="50" height="50" relative="1" as="geometry">
            <mxPoint x="60" y="185" as="sourcePoint" />
            <mxPoint x="470" y="185" as="targetPoint" />
          </mxGeometry>
        </mxCell>
        <mxCell id="XpciIUGIXHY3oaiCGFSE-11" value="button &amp;amp; TaskType()" style="text;html=1;align=center;verticalAlign=middle;resizable=0;points=[];autosize=1;strokeColor=none;fillColor=none;" parent="1" vertex="1">
          <mxGeometry x="65" y="160" width="130" height="30" as="geometry" />
        </mxCell>
        <mxCell id="XpciIUGIXHY3oaiCGFSE-12" value="" style="endArrow=classic;html=1;rounded=0;exitX=0;exitY=1;exitDx=0;exitDy=-5;exitPerimeter=0;" parent="1" source="XpciIUGIXHY3oaiCGFSE-14" target="H98rCoK42WbpM3wih2S7-14" edge="1">
          <mxGeometry width="50" height="50" relative="1" as="geometry">
            <mxPoint x="70" y="198" as="sourcePoint" />
            <mxPoint x="340" y="200" as="targetPoint" />
          </mxGeometry>
        </mxCell>
        <mxCell id="XpciIUGIXHY3oaiCGFSE-13" value="StartSearch()" style="text;html=1;align=center;verticalAlign=middle;resizable=0;points=[];autosize=1;strokeColor=none;fillColor=none;" parent="1" vertex="1">
          <mxGeometry x="360" y="185" width="90" height="30" as="geometry" />
        </mxCell>
        <mxCell id="XpciIUGIXHY3oaiCGFSE-15" value=":Task" style="shape=umlLifeline;perimeter=lifelinePerimeter;whiteSpace=wrap;html=1;container=0;dropTarget=0;collapsible=0;recursiveResize=0;outlineConnect=0;portConstraint=eastwest;newEdgeStyle={&quot;edgeStyle&quot;:&quot;elbowEdgeStyle&quot;,&quot;elbow&quot;:&quot;vertical&quot;,&quot;curved&quot;:0,&quot;rounded&quot;:0};" parent="1" vertex="1">
          <mxGeometry x="560" y="40" width="100" height="650" as="geometry" />
        </mxCell>
        <mxCell id="XpciIUGIXHY3oaiCGFSE-22" value="" style="html=1;points=[[0,0,0,0,5],[0,1,0,0,-5],[1,0,0,0,5],[1,1,0,0,-5]];perimeter=orthogonalPerimeter;outlineConnect=0;targetShapes=umlLifeline;portConstraint=eastwest;newEdgeStyle={&quot;curved&quot;:0,&quot;rounded&quot;:0};" parent="XpciIUGIXHY3oaiCGFSE-15" vertex="1">
          <mxGeometry x="45" y="60" width="10" height="180" as="geometry" />
        </mxCell>
        <mxCell id="XpciIUGIXHY3oaiCGFSE-19" value="" style="endArrow=classic;html=1;rounded=0;" parent="1" target="XpciIUGIXHY3oaiCGFSE-22" edge="1">
          <mxGeometry width="50" height="50" relative="1" as="geometry">
            <mxPoint x="350" y="229.99999999999997" as="sourcePoint" />
            <mxPoint x="600" y="230" as="targetPoint" />
            <Array as="points">
              <mxPoint x="490" y="229.99999999999997" />
            </Array>
          </mxGeometry>
        </mxCell>
        <mxCell id="XpciIUGIXHY3oaiCGFSE-20" value="SearchTask()" style="text;html=1;align=center;verticalAlign=middle;resizable=0;points=[];autosize=1;strokeColor=none;fillColor=none;" parent="1" vertex="1">
          <mxGeometry x="450" y="210" width="90" height="30" as="geometry" />
        </mxCell>
        <mxCell id="XpciIUGIXHY3oaiCGFSE-32" value="" style="endArrow=classic;html=1;rounded=0;" parent="1" target="XpciIUGIXHY3oaiCGFSE-31" edge="1">
          <mxGeometry width="50" height="50" relative="1" as="geometry">
            <mxPoint x="355" y="290" as="sourcePoint" />
            <mxPoint x="720" y="290" as="targetPoint" />
          </mxGeometry>
        </mxCell>
        <mxCell id="XpciIUGIXHY3oaiCGFSE-33" value="ShowResults()" style="text;html=1;align=center;verticalAlign=middle;resizable=0;points=[];autosize=1;strokeColor=none;fillColor=none;" parent="1" vertex="1">
          <mxGeometry x="350" y="280" width="100" height="30" as="geometry" />
        </mxCell>
        <mxCell id="XpciIUGIXHY3oaiCGFSE-34" value="" style="endArrow=classic;html=1;rounded=0;entryX=0.5;entryY=0.2;entryDx=0;entryDy=0;entryPerimeter=0;exitX=0.007;exitY=0.823;exitDx=0;exitDy=0;exitPerimeter=0;" parent="1" source="XpciIUGIXHY3oaiCGFSE-35" edge="1">
          <mxGeometry width="50" height="50" relative="1" as="geometry">
            <mxPoint x="65" y="324.66" as="sourcePoint" />
            <mxPoint x="725" y="324.66" as="targetPoint" />
          </mxGeometry>
        </mxCell>
        <mxCell id="XpciIUGIXHY3oaiCGFSE-35" value="&amp;nbsp;ChooseSuggestion()" style="text;html=1;align=center;verticalAlign=middle;resizable=0;points=[];autosize=1;strokeColor=none;fillColor=none;" parent="1" vertex="1">
          <mxGeometry x="60" y="300" width="140" height="30" as="geometry" />
        </mxCell>
        <mxCell id="XpciIUGIXHY3oaiCGFSE-38" value="return selection" style="text;html=1;align=center;verticalAlign=middle;resizable=0;points=[];autosize=1;strokeColor=none;fillColor=none;" parent="1" vertex="1">
          <mxGeometry x="350" y="340" width="110" height="30" as="geometry" />
        </mxCell>
        <mxCell id="XpciIUGIXHY3oaiCGFSE-45" value="" style="endArrow=classic;html=1;rounded=0;" parent="1" target="XpciIUGIXHY3oaiCGFSE-31" edge="1">
          <mxGeometry width="50" height="50" relative="1" as="geometry">
            <mxPoint x="355" y="380" as="sourcePoint" />
            <mxPoint x="720" y="380" as="targetPoint" />
          </mxGeometry>
        </mxCell>
        <mxCell id="XpciIUGIXHY3oaiCGFSE-46" value="ShowDetails()" style="text;html=1;align=center;verticalAlign=middle;resizable=0;points=[];autosize=1;strokeColor=none;fillColor=none;" parent="1" vertex="1">
          <mxGeometry x="350" y="380" width="100" height="30" as="geometry" />
        </mxCell>
        <mxCell id="XpciIUGIXHY3oaiCGFSE-48" value="" style="endArrow=classic;html=1;rounded=0;" parent="1" edge="1">
          <mxGeometry width="50" height="50" relative="1" as="geometry">
            <mxPoint x="60" y="579.66" as="sourcePoint" />
            <mxPoint x="470" y="580" as="targetPoint" />
          </mxGeometry>
        </mxCell>
        <mxCell id="XpciIUGIXHY3oaiCGFSE-49" value="Select &quot;Favorites&quot;" style="text;html=1;align=center;verticalAlign=middle;resizable=0;points=[];autosize=1;strokeColor=none;fillColor=none;" parent="1" vertex="1">
          <mxGeometry x="70" y="550" width="120" height="30" as="geometry" />
        </mxCell>
        <mxCell id="05Q-r2xgmYZ5tvKY-RCR-9" value="" style="endArrow=classic;html=1;rounded=0;" parent="1" edge="1">
          <mxGeometry width="50" height="50" relative="1" as="geometry">
            <mxPoint x="350" y="604.6600000000001" as="sourcePoint" />
            <mxPoint x="850" y="604.66" as="targetPoint" />
          </mxGeometry>
        </mxCell>
        <mxCell id="05Q-r2xgmYZ5tvKY-RCR-10" value="SearchFavorites()" style="text;html=1;align=center;verticalAlign=middle;resizable=0;points=[];autosize=1;strokeColor=none;fillColor=none;" parent="1" vertex="1">
          <mxGeometry x="350" y="600" width="120" height="30" as="geometry" />
        </mxCell>
        <mxCell id="05Q-r2xgmYZ5tvKY-RCR-11" value="" style="endArrow=classic;html=1;rounded=0;" parent="1" edge="1">
          <mxGeometry width="50" height="50" relative="1" as="geometry">
            <mxPoint x="355" y="654.6600000000001" as="sourcePoint" />
            <mxPoint x="725" y="654.66" as="targetPoint" />
          </mxGeometry>
        </mxCell>
        <mxCell id="05Q-r2xgmYZ5tvKY-RCR-12" value="ShowResults()" style="text;html=1;align=center;verticalAlign=middle;resizable=0;points=[];autosize=1;strokeColor=none;fillColor=none;" parent="1" vertex="1">
          <mxGeometry x="355" y="648" width="100" height="30" as="geometry" />
        </mxCell>
        <mxCell id="05Q-r2xgmYZ5tvKY-RCR-14" value="" style="endArrow=classic;html=1;rounded=0;entryX=0;entryY=0;entryDx=0;entryDy=5;entryPerimeter=0;" parent="1" edge="1">
          <mxGeometry width="50" height="50" relative="1" as="geometry">
            <mxPoint x="60" y="500" as="sourcePoint" />
            <mxPoint x="725" y="500" as="targetPoint" />
          </mxGeometry>
        </mxCell>
        <mxCell id="05Q-r2xgmYZ5tvKY-RCR-15" value="Add_to_favorites()" style="text;html=1;align=center;verticalAlign=middle;resizable=0;points=[];autosize=1;strokeColor=none;fillColor=none;" parent="1" vertex="1">
          <mxGeometry x="70" y="473" width="120" height="30" as="geometry" />
        </mxCell>
        <mxCell id="LLMZJ4zUkhjg3R11XARm-3" value="" style="endArrow=classic;html=1;rounded=0;" parent="1" target="q2buyoBu1xX73KLUiP7z-3" edge="1">
          <mxGeometry width="50" height="50" relative="1" as="geometry">
            <mxPoint x="355" y="550" as="sourcePoint" />
            <mxPoint x="840" y="550" as="targetPoint" />
          </mxGeometry>
        </mxCell>
        <mxCell id="LLMZJ4zUkhjg3R11XARm-4" value="UpdateData()" style="text;html=1;align=center;verticalAlign=middle;resizable=0;points=[];autosize=1;strokeColor=none;fillColor=none;" parent="1" vertex="1">
          <mxGeometry x="740" y="550" width="100" height="30" as="geometry" />
        </mxCell>
        <mxCell id="H98rCoK42WbpM3wih2S7-1" value="" style="endArrow=classic;html=1;rounded=0;entryX=0;entryY=0;entryDx=0;entryDy=0;entryPerimeter=0;" parent="1" source="H98rCoK42WbpM3wih2S7-3" target="H98rCoK42WbpM3wih2S7-14" edge="1">
          <mxGeometry width="50" height="50" relative="1" as="geometry">
            <mxPoint x="237.5" y="145" as="sourcePoint" />
            <mxPoint x="342.5" y="145" as="targetPoint" />
            <Array as="points">
              <mxPoint x="308" y="140" />
            </Array>
          </mxGeometry>
        </mxCell>
        <mxCell id="H98rCoK42WbpM3wih2S7-2" value="GetData()" style="text;html=1;align=center;verticalAlign=middle;resizable=0;points=[];autosize=1;strokeColor=none;fillColor=none;" parent="1" vertex="1">
          <mxGeometry x="250" y="115" width="80" height="30" as="geometry" />
        </mxCell>
        <mxCell id="H98rCoK42WbpM3wih2S7-8" value="" style="endArrow=open;html=1;rounded=0;dashed=1;endFill=0;" parent="1" edge="1">
          <mxGeometry width="50" height="50" relative="1" as="geometry">
            <mxPoint x="602.5" y="155" as="sourcePoint" />
            <mxPoint x="360" y="155.41" as="targetPoint" />
          </mxGeometry>
        </mxCell>
        <mxCell id="H98rCoK42WbpM3wih2S7-9" value="return results" style="text;html=1;align=center;verticalAlign=middle;resizable=0;points=[];autosize=1;strokeColor=none;fillColor=none;" parent="1" vertex="1">
          <mxGeometry x="490" y="150" width="90" height="30" as="geometry" />
        </mxCell>
        <mxCell id="H98rCoK42WbpM3wih2S7-10" value="" style="endArrow=classic;html=1;rounded=0;" parent="1" target="XpciIUGIXHY3oaiCGFSE-14" edge="1">
          <mxGeometry width="50" height="50" relative="1" as="geometry">
            <mxPoint x="352.5" y="170" as="sourcePoint" />
            <mxPoint x="467.5" y="171" as="targetPoint" />
            <Array as="points">
              <mxPoint x="412.5" y="170.82999999999998" />
            </Array>
          </mxGeometry>
        </mxCell>
        <mxCell id="H98rCoK42WbpM3wih2S7-11" value="ShowResults()" style="text;html=1;align=center;verticalAlign=middle;resizable=0;points=[];autosize=1;strokeColor=none;fillColor=none;" parent="1" vertex="1">
          <mxGeometry x="350" y="150" width="100" height="30" as="geometry" />
        </mxCell>
        <mxCell id="H98rCoK42WbpM3wih2S7-13" value="Manage_&lt;div&gt;Markt_Class&lt;/div&gt;" style="shape=umlLifeline;perimeter=lifelinePerimeter;whiteSpace=wrap;html=1;container=0;dropTarget=0;collapsible=0;recursiveResize=0;outlineConnect=0;portConstraint=eastwest;newEdgeStyle={&quot;edgeStyle&quot;:&quot;elbowEdgeStyle&quot;,&quot;elbow&quot;:&quot;vertical&quot;,&quot;curved&quot;:0,&quot;rounded&quot;:0};" parent="1" vertex="1">
          <mxGeometry x="300" y="40" width="100" height="650" as="geometry" />
        </mxCell>
        <mxCell id="H98rCoK42WbpM3wih2S7-14" value="" style="html=1;points=[[0,0,0,0,0],[0,1,0,0,-5],[1,0,0,0,0],[1,1,0,0,-5]];perimeter=orthogonalPerimeter;outlineConnect=0;targetShapes=umlLifeline;portConstraint=eastwest;newEdgeStyle={&quot;curved&quot;:0,&quot;rounded&quot;:0};" parent="H98rCoK42WbpM3wih2S7-13" vertex="1">
          <mxGeometry x="45" y="100" width="10" height="310" as="geometry" />
        </mxCell>
        <mxCell id="H98rCoK42WbpM3wih2S7-15" value="" style="html=1;points=[[0,0,0,0,5],[0,1,0,0,-5],[1,0,0,0,5],[1,1,0,0,-5]];perimeter=orthogonalPerimeter;outlineConnect=0;targetShapes=umlLifeline;portConstraint=eastwest;newEdgeStyle={&quot;curved&quot;:0,&quot;rounded&quot;:0};" parent="H98rCoK42WbpM3wih2S7-13" vertex="1">
          <mxGeometry x="45" y="480" width="10" height="140" as="geometry" />
        </mxCell>
        <mxCell id="H98rCoK42WbpM3wih2S7-16" value="" style="endArrow=open;html=1;rounded=0;dashed=1;endFill=0;exitX=0.5;exitY=0.114;exitDx=0;exitDy=0;exitPerimeter=0;" parent="1" edge="1">
          <mxGeometry width="50" height="50" relative="1" as="geometry">
            <mxPoint x="607.5" y="260.0000000000001" as="sourcePoint" />
            <mxPoint x="355" y="260.1" as="targetPoint" />
          </mxGeometry>
        </mxCell>
        <mxCell id="H98rCoK42WbpM3wih2S7-17" value="return data" style="text;html=1;align=center;verticalAlign=middle;resizable=0;points=[];autosize=1;strokeColor=none;fillColor=none;" parent="1" vertex="1">
          <mxGeometry x="355" y="240" width="80" height="30" as="geometry" />
        </mxCell>
        <mxCell id="H98rCoK42WbpM3wih2S7-18" value="" style="endArrow=open;html=1;rounded=0;dashed=1;endFill=0;" parent="1" target="H98rCoK42WbpM3wih2S7-14" edge="1">
          <mxGeometry width="50" height="50" relative="1" as="geometry">
            <mxPoint x="725" y="360" as="sourcePoint" />
            <mxPoint x="65" y="360" as="targetPoint" />
          </mxGeometry>
        </mxCell>
        <mxCell id="H98rCoK42WbpM3wih2S7-20" value="" style="endArrow=open;html=1;rounded=0;dashed=1;endFill=0;" parent="1" edge="1">
          <mxGeometry width="50" height="50" relative="1" as="geometry">
            <mxPoint x="850" y="630" as="sourcePoint" />
            <mxPoint x="355" y="630.3100000000001" as="targetPoint" />
          </mxGeometry>
        </mxCell>
        <mxCell id="H98rCoK42WbpM3wih2S7-21" value="return data" style="text;html=1;align=center;verticalAlign=middle;resizable=0;points=[];autosize=1;strokeColor=none;fillColor=none;" parent="1" vertex="1">
          <mxGeometry x="360" y="625" width="80" height="30" as="geometry" />
        </mxCell>
        <mxCell id="H98rCoK42WbpM3wih2S7-22" value="" style="endArrow=open;html=1;rounded=0;dashed=1;endFill=0;" parent="1" target="H98rCoK42WbpM3wih2S7-15" edge="1">
          <mxGeometry width="50" height="50" relative="1" as="geometry">
            <mxPoint x="725" y="520" as="sourcePoint" />
            <mxPoint x="360" y="520" as="targetPoint" />
          </mxGeometry>
        </mxCell>
        <mxCell id="H98rCoK42WbpM3wih2S7-23" value="return favorite" style="text;html=1;align=center;verticalAlign=middle;resizable=0;points=[];autosize=1;strokeColor=none;fillColor=none;" parent="1" vertex="1">
          <mxGeometry x="345" y="520" width="100" height="30" as="geometry" />
        </mxCell>
        <mxCell id="zha-cPZ6Djakdp4-bvfR-46" value="&lt;span style=&quot;color: rgba(0, 0, 0, 0); font-family: monospace; font-size: 0px; text-align: start;&quot;&gt;%3CmxGraphModel%3E%3Croot%3E%3CmxCell%20id%3D%220%22%2F%3E%3CmxCell%20id%3D%221%22%20parent%3D%220%22%2F%3E%3CmxCell%20id%3D%222%22%20value%3D%22Marketplace%22%20style%3D%22ellipse%3BwhiteSpace%3Dwrap%3Bhtml%3D1%3B%22%20vertex%3D%221%22%20parent%3D%221%22%3E%3CmxGeometry%20x%3D%2220%22%20y%3D%2210%22%20width%3D%2290%22%20height%3D%2250%22%20as%3D%22geometry%22%2F%3E%3C%2FmxCell%3E%3CmxCell%20id%3D%223%22%20value%3D%22Manager%26lt%3Bdiv%26gt%3B%26lt%3Bbr%26gt%3B%26lt%3B%2Fdiv%26gt%3B%22%20style%3D%22shape%3DumlActor%3BverticalLabelPosition%3Dbottom%3BverticalAlign%3Dtop%3Bhtml%3D1%3BoutlineConnect%3D0%3B%22%20vertex%3D%221%22%20parent%3D%221%22%3E%3CmxGeometry%20x%3D%2250%22%20y%3D%2280%22%20width%3D%2220%22%20height%3D%2240%22%20as%3D%22geometry%22%2F%3E%3C%2FmxCell%3E%3CmxCell%20id%3D%224%22%20value%3D%22%22%20style%3D%22shape%3DumlBoundary%3BwhiteSpace%3Dwrap%3Bhtml%3D1%3B%22%20vertex%3D%221%22%20parent%3D%221%22%3E%3CmxGeometry%20x%3D%22220%22%20y%3D%2270%22%20width%3D%2270%22%20height%3D%2250%22%20as%3D%22geometry%22%2F%3E%3C%2FmxCell%3E%3CmxCell%20id%3D%225%22%20value%3D%22%22%20style%3D%22endArrow%3Dnone%3Bhtml%3D1%3Brounded%3D0%3BentryX%3D-0.029%3BentryY%3D0.496%3BentryDx%3D0%3BentryDy%3D0%3BentryPerimeter%3D0%3B%22%20edge%3D%221%22%20source%3D%2228%22%20target%3D%224%22%20parent%3D%221%22%3E%3CmxGeometry%20width%3D%2250%22%20height%3D%2250%22%20relative%3D%221%22%20as%3D%22geometry%22%3E%3CmxPoint%20x%3D%2290%22%20y%3D%2295%22%20as%3D%22sourcePoint%22%2F%3E%3CmxPoint%20x%3D%22220%22%20y%3D%2296%22%20as%3D%22targetPoint%22%2F%3E%3C%2FmxGeometry%3E%3C%2FmxCell%3E%3CmxCell%20id%3D%226%22%20value%3D%22Manager%20Home%20Screen%22%20style%3D%22text%3Bhtml%3D1%3Balign%3Dcenter%3BverticalAlign%3Dmiddle%3Bresizable%3D0%3Bpoints%3D%5B%5D%3Bautosize%3D1%3BstrokeColor%3Dnone%3BfillColor%3Dnone%3B%22%20vertex%3D%221%22%20parent%3D%221%22%3E%3CmxGeometry%20x%3D%22180%22%20y%3D%2245%22%20width%3D%22150%22%20height%3D%2230%22%20as%3D%22geometry%22%2F%3E%3C%2FmxCell%3E%3CmxCell%20id%3D%227%22%20value%3D%22Display%22%20style%3D%22ellipse%3Bshape%3DumlControl%3BwhiteSpace%3Dwrap%3Bhtml%3D1%3B%22%20vertex%3D%221%22%20parent%3D%221%22%3E%3CmxGeometry%20x%3D%22410%22%20y%3D%2260%22%20width%3D%2260%22%20height%3D%2260%22%20as%3D%22geometry%22%2F%3E%3C%2FmxCell%3E%3CmxCell%20id%3D%228%22%20value%3D%22%22%20style%3D%22shape%3DumlBoundary%3BwhiteSpace%3Dwrap%3Bhtml%3D1%3B%22%20vertex%3D%221%22%20parent%3D%221%22%3E%3CmxGeometry%20x%3D%22220%22%20y%3D%22190%22%20width%3D%2270%22%20height%3D%2250%22%20as%3D%22geometry%22%2F%3E%3C%2FmxCell%3E%3CmxCell%20id%3D%229%22%20value%3D%22%26amp%3Bnbsp%3BManager%26amp%3Bnbsp%3B%26lt%3Bspan%20style%3D%26quot%3Bbackground-color%3A%20transparent%3B%20color%3A%20light-dark(rgb(0%2C%200%2C%200)%2C%20rgb(255%2C%20255%2C%20255))%3B%26quot%3B%26gt%3BMarketplace%20screen%26lt%3B%2Fspan%26gt%3B%22%20style%3D%22text%3Bhtml%3D1%3Balign%3Dcenter%3BverticalAlign%3Dmiddle%3Bresizable%3D0%3Bpoints%3D%5B%5D%3Bautosize%3D1%3BstrokeColor%3Dnone%3BfillColor%3Dnone%3B%22%20vertex%3D%221%22%20parent%3D%221%22%3E%3CmxGeometry%20x%3D%22180%22%20y%3D%22160%22%20width%3D%22180%22%20height%3D%2230%22%20as%3D%22geometry%22%2F%3E%3C%2FmxCell%3E%3CmxCell%20id%3D%2210%22%20value%3D%22%22%20style%3D%22endArrow%3Dnone%3Bhtml%3D1%3Brounded%3D0%3BentryX%3D-0.017%3BentryY%3D0.464%3BentryDx%3D0%3BentryDy%3D0%3BentryPerimeter%3D0%3B%22%20edge%3D%221%22%20source%3D%2226%22%20target%3D%228%22%20parent%3D%221%22%3E%3CmxGeometry%20width%3D%2250%22%20height%3D%2250%22%20relative%3D%221%22%20as%3D%22geometry%22%3E%3CmxPoint%20x%3D%2290%22%20y%3D%22100%22%20as%3D%22sourcePoint%22%2F%3E%3CmxPoint%20x%3D%22450%22%20y%3D%22250%22%20as%3D%22targetPoint%22%2F%3E%3C%2FmxGeometry%3E%3C%2FmxCell%3E%3CmxCell%20id%3D%2211%22%20value%3D%22Task%26amp%3Bnbsp%3B%26lt%3Bdiv%26gt%3BList%26lt%3B%2Fdiv%26gt%3B%22%20style%3D%22ellipse%3Bshape%3DumlEntity%3BwhiteSpace%3Dwrap%3Bhtml%3D1%3B%22%20vertex%3D%221%22%20parent%3D%221%22%3E%3CmxGeometry%20x%3D%22610%22%20y%3D%2255%22%20width%3D%2280%22%20height%3D%2275%22%20as%3D%22geometry%22%2F%3E%3C%2FmxCell%3E%3CmxCell%20id%3D%2212%22%20style%3D%22edgeStyle%3DorthogonalEdgeStyle%3Brounded%3D0%3BorthogonalLoop%3D1%3BjettySize%3Dauto%3Bhtml%3D1%3BentryX%3D0.5%3BentryY%3D1%3BentryDx%3D0%3BentryDy%3D0%3BendArrow%3Dnone%3BstartFill%3D0%3BendFill%3D1%3B%22%20edge%3D%221%22%20source%3D%2213%22%20target%3D%2211%22%20parent%3D%221%22%3E%3CmxGeometry%20relative%3D%221%22%20as%3D%22geometry%22%2F%3E%3C%2FmxCell%3E%3CmxCell%20id%3D%2213%22%20value%3D%22Load%22%20style%3D%22ellipse%3Bshape%3DumlControl%3BwhiteSpace%3Dwrap%3Bhtml%3D1%3B%22%20vertex%3D%221%22%20parent%3D%221%22%3E%3CmxGeometry%20x%3D%22570%22%20y%3D%22240%22%20width%3D%2265%22%20height%3D%2270%22%20as%3D%22geometry%22%2F%3E%3C%2FmxCell%3E%3CmxCell%20id%3D%2214%22%20value%3D%22DIsplay%22%20style%3D%22ellipse%3Bshape%3DumlControl%3BwhiteSpace%3Dwrap%3Bhtml%3D1%3B%22%20vertex%3D%221%22%20parent%3D%221%22%3E%3CmxGeometry%20x%3D%22350%22%20y%3D%22350%22%20width%3D%2260%22%20height%3D%2260%22%20as%3D%22geometry%22%2F%3E%3C%2FmxCell%3E%3CmxCell%20id%3D%2215%22%20style%3D%22edgeStyle%3DorthogonalEdgeStyle%3Brounded%3D0%3BorthogonalLoop%3D1%3BjettySize%3Dauto%3Bhtml%3D1%3BentryX%3D1.013%3BentryY%3D0.587%3BentryDx%3D0%3BentryDy%3D0%3BentryPerimeter%3D0%3BendArrow%3Dnone%3BstartFill%3D0%3B%22%20edge%3D%221%22%20source%3D%2213%22%20target%3D%2214%22%20parent%3D%221%22%3E%3CmxGeometry%20relative%3D%221%22%20as%3D%22geometry%22%3E%3CArray%20as%3D%22points%22%3E%3CmxPoint%20x%3D%22603%22%20y%3D%22385%22%2F%3E%3C%2FArray%3E%3C%2FmxGeometry%3E%3C%2FmxCell%3E%3CmxCell%20id%3D%2216%22%20value%3D%22%22%20style%3D%22shape%3DumlBoundary%3BwhiteSpace%3Dwrap%3Bhtml%3D1%3B%22%20vertex%3D%221%22%20parent%3D%221%22%3E%3CmxGeometry%20x%3D%22200%22%20y%3D%22355%22%20width%3D%2270%22%20height%3D%2250%22%20as%3D%22geometry%22%2F%3E%3C%2FmxCell%3E%3CmxCell%20id%3D%2217%22%20value%3D%22Manager%20Suggestions%26lt%3Bdiv%26gt%3BScreen%26lt%3B%2Fdiv%26gt%3B%22%20style%3D%22text%3Bhtml%3D1%3Balign%3Dcenter%3BverticalAlign%3Dmiddle%3Bresizable%3D0%3Bpoints%3D%5B%5D%3Bautosize%3D1%3BstrokeColor%3Dnone%3BfillColor%3Dnone%3B%22%20vertex%3D%221%22%20parent%3D%221%22%3E%3CmxGeometry%20x%3D%22180%22%20y%3D%22315%22%20width%3D%22140%22%20height%3D%2240%22%20as%3D%22geometry%22%2F%3E%3C%2FmxCell%3E%3CmxCell%20id%3D%2218%22%20style%3D%22edgeStyle%3DorthogonalEdgeStyle%3Brounded%3D0%3BorthogonalLoop%3D1%3BjettySize%3Dauto%3Bhtml%3D1%3BentryX%3D0.989%3BentryY%3D0.496%3BentryDx%3D0%3BentryDy%3D0%3BentryPerimeter%3D0%3BendArrow%3Dnone%3BstartFill%3D0%3B%22%20edge%3D%221%22%20source%3D%2214%22%20target%3D%2216%22%20parent%3D%221%22%3E%3CmxGeometry%20relative%3D%221%22%20as%3D%22geometry%22%2F%3E%3C%2FmxCell%3E%3CmxCell%20id%3D%2219%22%20value%3D%22%22%20style%3D%22endArrow%3Dnone%3Bhtml%3D1%3Brounded%3D0%3BentryX%3D0%3BentryY%3D0.5%3BentryDx%3D0%3BentryDy%3D0%3BentryPerimeter%3D0%3B%22%20edge%3D%221%22%20source%3D%2224%22%20target%3D%2216%22%20parent%3D%221%22%3E%3CmxGeometry%20width%3D%2250%22%20height%3D%2250%22%20relative%3D%221%22%20as%3D%22geometry%22%3E%3CmxPoint%20x%3D%2290%22%20y%3D%22100%22%20as%3D%22sourcePoint%22%2F%3E%3CmxPoint%20x%3D%22450%22%20y%3D%22250%22%20as%3D%22targetPoint%22%2F%3E%3C%2FmxGeometry%3E%3C%2FmxCell%3E%3CmxCell%20id%3D%2220%22%20value%3D%22Load%22%20style%3D%22ellipse%3Bshape%3DumlControl%3BwhiteSpace%3Dwrap%3Bhtml%3D1%3B%22%20vertex%3D%221%22%20parent%3D%221%22%3E%3CmxGeometry%20x%3D%22425%22%20y%3D%22440%22%20width%3D%2260%22%20height%3D%2260%22%20as%3D%22geometry%22%2F%3E%3C%2FmxCell%3E%3CmxCell%20id%3D%2221%22%20style%3D%22edgeStyle%3DorthogonalEdgeStyle%3Brounded%3D0%3BorthogonalLoop%3D1%3BjettySize%3Dauto%3Bhtml%3D1%3BentryX%3D0.017%3BentryY%3D0.673%3BentryDx%3D0%3BentryDy%3D0%3BentryPerimeter%3D0%3BendArrow%3Dnone%3BstartFill%3D0%3B%22%20edge%3D%221%22%20source%3D%2216%22%20target%3D%2220%22%20parent%3D%221%22%3E%3CmxGeometry%20relative%3D%221%22%20as%3D%22geometry%22%3E%3CArray%20as%3D%22points%22%3E%3CmxPoint%20x%3D%22255%22%20y%3D%22480%22%2F%3E%3C%2FArray%3E%3C%2FmxGeometry%3E%3C%2FmxCell%3E%3CmxCell%20id%3D%2222%22%20style%3D%22edgeStyle%3DorthogonalEdgeStyle%3Brounded%3D0%3BorthogonalLoop%3D1%3BjettySize%3Dauto%3Bhtml%3D1%3BentryX%3D0.68%3BentryY%3D0.979%3BentryDx%3D0%3BentryDy%3D0%3BentryPerimeter%3D0%3BendArrow%3Dnone%3BstartFill%3D0%3BendFill%3D1%3B%22%20edge%3D%221%22%20source%3D%2220%22%20target%3D%2211%22%20parent%3D%221%22%3E%3CmxGeometry%20relative%3D%221%22%20as%3D%22geometry%22%3E%3CmxPoint%20x%3D%22664%22%20y%3D%22140%22%20as%3D%22targetPoint%22%2F%3E%3C%2FmxGeometry%3E%3C%2FmxCell%3E%3CmxCell%20id%3D%2223%22%20value%3D%22%22%20style%3D%22endArrow%3Dnone%3Bhtml%3D1%3Brounded%3D0%3BentryX%3D0%3BentryY%3D0.5%3BentryDx%3D0%3BentryDy%3D0%3BentryPerimeter%3D0%3B%22%20edge%3D%221%22%20target%3D%2224%22%20parent%3D%221%22%3E%3CmxGeometry%20width%3D%2250%22%20height%3D%2250%22%20relative%3D%221%22%20as%3D%22geometry%22%3E%3CmxPoint%20x%3D%2290%22%20y%3D%22100%22%20as%3D%22sourcePoint%22%2F%3E%3CmxPoint%20x%3D%22220%22%20y%3D%22355%22%20as%3D%22targetPoint%22%2F%3E%3C%2FmxGeometry%3E%3C%2FmxCell%3E%3CmxCell%20id%3D%2224%22%20value%3D%22Choose%20suggestion%22%20style%3D%22text%3Bhtml%3D1%3Balign%3Dcenter%3BverticalAlign%3Dmiddle%3Bresizable%3D0%3Bpoints%3D%5B%5D%3Bautosize%3D1%3BstrokeColor%3Dnone%3BfillColor%3Dnone%3Brotation%3D60%3B%22%20vertex%3D%221%22%20parent%3D%221%22%3E%3CmxGeometry%20x%3D%2295%22%20y%3D%22250%22%20width%3D%22130%22%20height%3D%2230%22%20as%3D%22geometry%22%2F%3E%3C%2FmxCell%3E%3CmxCell%20id%3D%2225%22%20value%3D%22%22%20style%3D%22endArrow%3Dnone%3Bhtml%3D1%3Brounded%3D0%3BentryX%3D-0.017%3BentryY%3D0.464%3BentryDx%3D0%3BentryDy%3D0%3BentryPerimeter%3D0%3B%22%20edge%3D%221%22%20target%3D%2226%22%20parent%3D%221%22%3E%3CmxGeometry%20width%3D%2250%22%20height%3D%2250%22%20relative%3D%221%22%20as%3D%22geometry%22%3E%3CmxPoint%20x%3D%2290%22%20y%3D%22100%22%20as%3D%22sourcePoint%22%2F%3E%3CmxPoint%20x%3D%22219%22%20y%3D%22213%22%20as%3D%22targetPoint%22%2F%3E%3C%2FmxGeometry%3E%3C%2FmxCell%3E%3CmxCell%20id%3D%2226%22%20value%3D%22Enter%20type%20of%20task%26amp%3Bnbsp%3B%22%20style%3D%22text%3Bhtml%3D1%3Balign%3Dcenter%3BverticalAlign%3Dmiddle%3Bresizable%3D0%3Bpoints%3D%5B%5D%3Bautosize%3D1%3BstrokeColor%3Dnone%3BfillColor%3Dnone%3Brotation%3D45%3B%22%20vertex%3D%221%22%20parent%3D%221%22%3E%3CmxGeometry%20x%3D%2295%22%20y%3D%22145%22%20width%3D%22120%22%20height%3D%2230%22%20as%3D%22geometry%22%2F%3E%3C%2FmxCell%3E%3CmxCell%20id%3D%2227%22%20value%3D%22%22%20style%3D%22endArrow%3Dnone%3Bhtml%3D1%3Brounded%3D0%3BentryX%3D-0.029%3BentryY%3D0.496%3BentryDx%3D0%3BentryDy%3D0%3BentryPerimeter%3D0%3B%22%20edge%3D%221%22%20target%3D%2228%22%20parent%3D%221%22%3E%3CmxGeometry%20width%3D%2250%22%20height%3D%2250%22%20relative%3D%221%22%20as%3D%22geometry%22%3E%3CmxPoint%20x%3D%2290%22%20y%3D%2295%22%20as%3D%22sourcePoint%22%2F%3E%3CmxPoint%20x%3D%22218%22%20y%3D%2295%22%20as%3D%22targetPoint%22%2F%3E%3C%2FmxGeometry%3E%3C%2FmxCell%3E%3CmxCell%20id%3D%2228%22%20value%3D%22%26lt%3Bdiv%26gt%3BSelect%26lt%3B%2Fdiv%26gt%3B%26lt%3Bdiv%26gt%3B%26quot%3BMarketplace%26quot%3B%26lt%3B%2Fdiv%26gt%3B%22%20style%3D%22text%3Bhtml%3D1%3Balign%3Dcenter%3BverticalAlign%3Dmiddle%3Bresizable%3D0%3Bpoints%3D%5B%5D%3Bautosize%3D1%3BstrokeColor%3Dnone%3BfillColor%3Dnone%3B%22%20vertex%3D%221%22%20parent%3D%221%22%3E%3CmxGeometry%20x%3D%22110%22%20y%3D%2275%22%20width%3D%22100%22%20height%3D%2240%22%20as%3D%22geometry%22%2F%3E%3C%2FmxCell%3E%3CmxCell%20id%3D%2229%22%20value%3D%22Add%20to%26amp%3Bnbsp%3B%26lt%3Bdiv%26gt%3BFavorites%26lt%3B%2Fdiv%26gt%3B%22%20style%3D%22ellipse%3Bshape%3DumlControl%3BwhiteSpace%3Dwrap%3Bhtml%3D1%3B%22%20vertex%3D%221%22%20parent%3D%221%22%3E%3CmxGeometry%20x%3D%22330%22%20y%3D%22660%22%20width%3D%2280%22%20height%3D%2260%22%20as%3D%22geometry%22%2F%3E%3C%2FmxCell%3E%3CmxCell%20id%3D%2230%22%20style%3D%22edgeStyle%3DorthogonalEdgeStyle%3Brounded%3D0%3BorthogonalLoop%3D1%3BjettySize%3Dauto%3Bhtml%3D1%3BentryX%3D1%3BentryY%3D0.5%3BentryDx%3D0%3BentryDy%3D0%3BendArrow%3Dnone%3BstartFill%3D0%3BendFill%3D1%3B%22%20edge%3D%221%22%20source%3D%2231%22%20target%3D%2211%22%20parent%3D%221%22%3E%3CmxGeometry%20relative%3D%221%22%20as%3D%22geometry%22%2F%3E%3C%2FmxCell%3E%3CmxCell%20id%3D%2231%22%20value%3D%22Update%22%20style%3D%22ellipse%3Bshape%3DumlControl%3BwhiteSpace%3Dwrap%3Bhtml%3D1%3B%22%20vertex%3D%221%22%20parent%3D%221%22%3E%3CmxGeometry%20x%3D%22530%22%20y%3D%22660%22%20width%3D%2270%22%20height%3D%2260%22%20as%3D%22geometry%22%2F%3E%3C%2FmxCell%3E%3CmxCell%20id%3D%2232%22%20style%3D%22edgeStyle%3DorthogonalEdgeStyle%3Brounded%3D0%3BorthogonalLoop%3D1%3BjettySize%3Dauto%3Bhtml%3D1%3BentryX%3D0%3BentryY%3D0.5%3BentryDx%3D0%3BentryDy%3D0%3BentryPerimeter%3D0%3BendArrow%3Dnone%3BstartFill%3D0%3B%22%20edge%3D%221%22%20source%3D%2229%22%20target%3D%2231%22%20parent%3D%221%22%3E%3CmxGeometry%20relative%3D%221%22%20as%3D%22geometry%22%2F%3E%3C%2FmxCell%3E%3CmxCell%20id%3D%2233%22%20value%3D%22%26lt%3Bdiv%26gt%3BYes%26lt%3B%2Fdiv%26gt%3B%22%20style%3D%22text%3Bhtml%3D1%3Balign%3Dcenter%3BverticalAlign%3Dmiddle%3Bresizable%3D0%3Bpoints%3D%5B%5D%3Bautosize%3D1%3BstrokeColor%3Dnone%3BfillColor%3Dnone%3B%22%20vertex%3D%221%22%20parent%3D%221%22%3E%3CmxGeometry%20x%3D%22435%22%20y%3D%22660%22%20width%3D%2240%22%20height%3D%2230%22%20as%3D%22geometry%22%2F%3E%3C%2FmxCell%3E%3CmxCell%20id%3D%2234%22%20value%3D%22No%22%20style%3D%22text%3Bhtml%3D1%3Balign%3Dcenter%3BverticalAlign%3Dmiddle%3Bresizable%3D0%3Bpoints%3D%5B%5D%3Bautosize%3D1%3BstrokeColor%3Dnone%3BfillColor%3Dnone%3B%22%20vertex%3D%221%22%20parent%3D%221%22%3E%3CmxGeometry%20x%3D%22290%22%20y%3D%22660%22%20width%3D%2240%22%20height%3D%2230%22%20as%3D%22geometry%22%2F%3E%3C%2FmxCell%3E%3CmxCell%20id%3D%2235%22%20value%3D%22Display%26lt%3Bdiv%26gt%3BFavorites%26lt%3B%2Fdiv%26gt%3B%22%20style%3D%22ellipse%3Bshape%3DumlControl%3BwhiteSpace%3Dwrap%3Bhtml%3D1%3B%22%20vertex%3D%221%22%20parent%3D%221%22%3E%3CmxGeometry%20x%3D%2280%22%20y%3D%22720%22%20width%3D%2260%22%20height%3D%2260%22%20as%3D%22geometry%22%2F%3E%3C%2FmxCell%3E%3CmxCell%20id%3D%2236%22%20style%3D%22edgeStyle%3DorthogonalEdgeStyle%3Brounded%3D0%3BorthogonalLoop%3D1%3BjettySize%3Dauto%3Bhtml%3D1%3BentryX%3D0.681%3BentryY%3D0.947%3BentryDx%3D0%3BentryDy%3D0%3BentryPerimeter%3D0%3BendArrow%3Dnone%3BstartFill%3D0%3B%22%20edge%3D%221%22%20source%3D%2229%22%20target%3D%2216%22%20parent%3D%221%22%3E%3CmxGeometry%20relative%3D%221%22%20as%3D%22geometry%22%2F%3E%3C%2FmxCell%3E%3CmxCell%20id%3D%2237%22%20value%3D%22Display%20suggestion%20chosen%20details%22%20style%3D%22ellipse%3Bshape%3DumlControl%3BwhiteSpace%3Dwrap%3Bhtml%3D1%3B%22%20vertex%3D%221%22%20parent%3D%221%22%3E%3CmxGeometry%20x%3D%22330%22%20y%3D%22520%22%20width%3D%22100%22%20height%3D%2290%22%20as%3D%22geometry%22%2F%3E%3C%2FmxCell%3E%3CmxCell%20id%3D%2238%22%20style%3D%22edgeStyle%3DorthogonalEdgeStyle%3Brounded%3D0%3BorthogonalLoop%3D1%3BjettySize%3Dauto%3Bhtml%3D1%3BentryX%3D0.972%3BentryY%3D0.817%3BentryDx%3D0%3BentryDy%3D0%3BentryPerimeter%3D0%3BendArrow%3Dnone%3BstartFill%3D0%3B%22%20edge%3D%221%22%20source%3D%2220%22%20target%3D%2237%22%20parent%3D%221%22%3E%3CmxGeometry%20relative%3D%221%22%20as%3D%22geometry%22%3E%3CArray%20as%3D%22points%22%3E%3CmxPoint%20x%3D%22455%22%20y%3D%22589%22%2F%3E%3C%2FArray%3E%3C%2FmxGeometry%3E%3C%2FmxCell%3E%3CmxCell%20id%3D%2239%22%20value%3D%22%22%20style%3D%22endArrow%3Dnone%3Bhtml%3D1%3Brounded%3D0%3BexitX%3D1.005%3BexitY%3D0.541%3BexitDx%3D0%3BexitDy%3D0%3BexitPerimeter%3D0%3BentryX%3D-0.014%3BentryY%3D0.618%3BentryDx%3D0%3BentryDy%3D0%3BentryPerimeter%3D0%3BendFill%3D1%3BstartFill%3D0%3B%22%20edge%3D%221%22%20source%3D%224%22%20target%3D%227%22%20parent%3D%221%22%3E%3CmxGeometry%20width%3D%2250%22%20height%3D%2250%22%20relative%3D%221%22%20as%3D%22geometry%22%3E%3CmxPoint%20x%3D%22480%22%20y%3D%22430%22%20as%3D%22sourcePoint%22%2F%3E%3CmxPoint%20x%3D%22530%22%20y%3D%22380%22%20as%3D%22targetPoint%22%2F%3E%3C%2FmxGeometry%3E%3C%2FmxCell%3E%3CmxCell%20id%3D%2240%22%20style%3D%22edgeStyle%3DorthogonalEdgeStyle%3Brounded%3D0%3BorthogonalLoop%3D1%3BjettySize%3Dauto%3Bhtml%3D1%3BentryX%3D0%3BentryY%3D0.5%3BentryDx%3D0%3BentryDy%3D0%3B%22%20edge%3D%221%22%20source%3D%2241%22%20target%3D%2211%22%20parent%3D%221%22%3E%3CmxGeometry%20relative%3D%221%22%20as%3D%22geometry%22%2F%3E%3C%2FmxCell%3E%3CmxCell%20id%3D%2241%22%20value%3D%22Load%22%20style%3D%22ellipse%3Bshape%3DumlControl%3BwhiteSpace%3Dwrap%3Bhtml%3D1%3B%22%20vertex%3D%221%22%20parent%3D%221%22%3E%3CmxGeometry%20x%3D%22405%22%20y%3D%22180%22%20width%3D%2265%22%20height%3D%2270%22%20as%3D%22geometry%22%2F%3E%3C%2FmxCell%3E%3CmxCell%20id%3D%2242%22%20style%3D%22edgeStyle%3DorthogonalEdgeStyle%3Brounded%3D0%3BorthogonalLoop%3D1%3BjettySize%3Dauto%3Bhtml%3D1%3BentryX%3D0.538%3BentryY%3D0.196%3BentryDx%3D0%3BentryDy%3D0%3BentryPerimeter%3D0%3BendArrow%3Dnone%3BstartFill%3D0%3B%22%20edge%3D%221%22%20source%3D%227%22%20target%3D%2241%22%20parent%3D%221%22%3E%3CmxGeometry%20relative%3D%221%22%20as%3D%22geometry%22%2F%3E%3C%2FmxCell%3E%3CmxCell%20id%3D%2243%22%20style%3D%22edgeStyle%3DorthogonalEdgeStyle%3Brounded%3D0%3BorthogonalLoop%3D1%3BjettySize%3Dauto%3Bhtml%3D1%3BentryX%3D1.008%3BentryY%3D0.483%3BentryDx%3D0%3BentryDy%3D0%3BentryPerimeter%3D0%3BendArrow%3Dnone%3BstartFill%3D0%3B%22%20edge%3D%221%22%20source%3D%2241%22%20target%3D%228%22%20parent%3D%221%22%3E%3CmxGeometry%20relative%3D%221%22%20as%3D%22geometry%22%3E%3CmxPoint%20x%3D%22290%22%20y%3D%22216%22%20as%3D%22targetPoint%22%2F%3E%3C%2FmxGeometry%3E%3C%2FmxCell%3E%3CmxCell%20id%3D%2244%22%20style%3D%22edgeStyle%3DorthogonalEdgeStyle%3Brounded%3D0%3BorthogonalLoop%3D1%3BjettySize%3Dauto%3Bhtml%3D1%3BentryX%3D0%3BentryY%3D0.571%3BentryDx%3D0%3BentryDy%3D0%3BentryPerimeter%3D0%3BendArrow%3Dnone%3BstartFill%3D0%3B%22%20edge%3D%221%22%20source%3D%228%22%20target%3D%2213%22%20parent%3D%221%22%3E%3CmxGeometry%20relative%3D%221%22%20as%3D%22geometry%22%3E%3CArray%20as%3D%22points%22%3E%3CmxPoint%20x%3D%22255%22%20y%3D%22280%22%2F%3E%3C%2FArray%3E%3C%2FmxGeometry%3E%3C%2FmxCell%3E%3C%2Froot%3E%3C%2FmxGraphModel%3E&lt;/span&gt;" style="text;html=1;align=center;verticalAlign=middle;resizable=0;points=[];autosize=1;strokeColor=none;fillColor=none;" parent="1" vertex="1">
          <mxGeometry x="1100" y="288" width="20" height="30" as="geometry" />
        </mxCell>
        <mxCell id="zha-cPZ6Djakdp4-bvfR-305" value="Marketplace" style="ellipse;whiteSpace=wrap;html=1;" parent="1" vertex="1">
          <mxGeometry x="910" y="50" width="90" height="50" as="geometry" />
        </mxCell>
        <mxCell id="zha-cPZ6Djakdp4-bvfR-306" value="Manager&lt;div&gt;&lt;br&gt;&lt;/div&gt;" style="shape=umlActor;verticalLabelPosition=bottom;verticalAlign=top;html=1;outlineConnect=0;" parent="1" vertex="1">
          <mxGeometry x="940" y="120" width="20" height="40" as="geometry" />
        </mxCell>
        <mxCell id="zha-cPZ6Djakdp4-bvfR-307" value="" style="shape=umlBoundary;whiteSpace=wrap;html=1;" parent="1" vertex="1">
          <mxGeometry x="1110" y="110" width="70" height="50" as="geometry" />
        </mxCell>
        <mxCell id="zha-cPZ6Djakdp4-bvfR-308" value="" style="endArrow=none;html=1;rounded=0;entryX=-0.029;entryY=0.496;entryDx=0;entryDy=0;entryPerimeter=0;" parent="1" source="zha-cPZ6Djakdp4-bvfR-331" target="zha-cPZ6Djakdp4-bvfR-307" edge="1">
          <mxGeometry width="50" height="50" relative="1" as="geometry">
            <mxPoint x="980" y="135" as="sourcePoint" />
            <mxPoint x="1110" y="136" as="targetPoint" />
          </mxGeometry>
        </mxCell>
        <mxCell id="zha-cPZ6Djakdp4-bvfR-309" value="Manager Home Screen" style="text;html=1;align=center;verticalAlign=middle;resizable=0;points=[];autosize=1;strokeColor=none;fillColor=none;" parent="1" vertex="1">
          <mxGeometry x="1070" y="85" width="150" height="30" as="geometry" />
        </mxCell>
        <mxCell id="zha-cPZ6Djakdp4-bvfR-310" value="Display" style="ellipse;shape=umlControl;whiteSpace=wrap;html=1;" parent="1" vertex="1">
          <mxGeometry x="1300" y="100" width="60" height="60" as="geometry" />
        </mxCell>
        <mxCell id="zha-cPZ6Djakdp4-bvfR-311" value="" style="shape=umlBoundary;whiteSpace=wrap;html=1;" parent="1" vertex="1">
          <mxGeometry x="1110" y="230" width="70" height="50" as="geometry" />
        </mxCell>
        <mxCell id="zha-cPZ6Djakdp4-bvfR-312" value="&amp;nbsp;Manager&amp;nbsp;&lt;span style=&quot;background-color: transparent; color: light-dark(rgb(0, 0, 0), rgb(255, 255, 255));&quot;&gt;Marketplace screen&lt;/span&gt;" style="text;html=1;align=center;verticalAlign=middle;resizable=0;points=[];autosize=1;strokeColor=none;fillColor=none;" parent="1" vertex="1">
          <mxGeometry x="1070" y="200" width="180" height="30" as="geometry" />
        </mxCell>
        <mxCell id="zha-cPZ6Djakdp4-bvfR-313" value="" style="endArrow=none;html=1;rounded=0;entryX=-0.017;entryY=0.464;entryDx=0;entryDy=0;entryPerimeter=0;" parent="1" source="zha-cPZ6Djakdp4-bvfR-329" target="zha-cPZ6Djakdp4-bvfR-311" edge="1">
          <mxGeometry width="50" height="50" relative="1" as="geometry">
            <mxPoint x="980" y="140" as="sourcePoint" />
            <mxPoint x="1340" y="290" as="targetPoint" />
          </mxGeometry>
        </mxCell>
        <mxCell id="zha-cPZ6Djakdp4-bvfR-314" value="Task&amp;nbsp;&lt;div&gt;List&lt;/div&gt;" style="ellipse;shape=umlEntity;whiteSpace=wrap;html=1;" parent="1" vertex="1">
          <mxGeometry x="1500" y="95" width="80" height="75" as="geometry" />
        </mxCell>
        <mxCell id="zha-cPZ6Djakdp4-bvfR-315" style="edgeStyle=orthogonalEdgeStyle;rounded=0;orthogonalLoop=1;jettySize=auto;html=1;entryX=0.5;entryY=1;entryDx=0;entryDy=0;endArrow=none;startFill=0;endFill=1;" parent="1" source="zha-cPZ6Djakdp4-bvfR-316" target="zha-cPZ6Djakdp4-bvfR-314" edge="1">
          <mxGeometry relative="1" as="geometry" />
        </mxCell>
        <mxCell id="zha-cPZ6Djakdp4-bvfR-316" value="Load" style="ellipse;shape=umlControl;whiteSpace=wrap;html=1;" parent="1" vertex="1">
          <mxGeometry x="1460" y="280" width="65" height="70" as="geometry" />
        </mxCell>
        <mxCell id="zha-cPZ6Djakdp4-bvfR-317" value="DIsplay" style="ellipse;shape=umlControl;whiteSpace=wrap;html=1;" parent="1" vertex="1">
          <mxGeometry x="1240" y="390" width="60" height="60" as="geometry" />
        </mxCell>
        <mxCell id="zha-cPZ6Djakdp4-bvfR-318" style="edgeStyle=orthogonalEdgeStyle;rounded=0;orthogonalLoop=1;jettySize=auto;html=1;entryX=1.013;entryY=0.587;entryDx=0;entryDy=0;entryPerimeter=0;endArrow=none;startFill=0;" parent="1" source="zha-cPZ6Djakdp4-bvfR-316" target="zha-cPZ6Djakdp4-bvfR-317" edge="1">
          <mxGeometry relative="1" as="geometry">
            <Array as="points">
              <mxPoint x="1493" y="425" />
            </Array>
          </mxGeometry>
        </mxCell>
        <mxCell id="zha-cPZ6Djakdp4-bvfR-319" value="" style="shape=umlBoundary;whiteSpace=wrap;html=1;" parent="1" vertex="1">
          <mxGeometry x="1090" y="395" width="70" height="50" as="geometry" />
        </mxCell>
        <mxCell id="zha-cPZ6Djakdp4-bvfR-320" value="Manager Suggestions&lt;div&gt;Screen&lt;/div&gt;" style="text;html=1;align=center;verticalAlign=middle;resizable=0;points=[];autosize=1;strokeColor=none;fillColor=none;" parent="1" vertex="1">
          <mxGeometry x="1070" y="355" width="140" height="40" as="geometry" />
        </mxCell>
        <mxCell id="zha-cPZ6Djakdp4-bvfR-321" style="edgeStyle=orthogonalEdgeStyle;rounded=0;orthogonalLoop=1;jettySize=auto;html=1;entryX=0.989;entryY=0.496;entryDx=0;entryDy=0;entryPerimeter=0;endArrow=none;startFill=0;" parent="1" source="zha-cPZ6Djakdp4-bvfR-317" target="zha-cPZ6Djakdp4-bvfR-319" edge="1">
          <mxGeometry relative="1" as="geometry" />
        </mxCell>
        <mxCell id="zha-cPZ6Djakdp4-bvfR-322" value="" style="endArrow=none;html=1;rounded=0;entryX=0;entryY=0.5;entryDx=0;entryDy=0;entryPerimeter=0;" parent="1" source="zha-cPZ6Djakdp4-bvfR-327" target="zha-cPZ6Djakdp4-bvfR-319" edge="1">
          <mxGeometry width="50" height="50" relative="1" as="geometry">
            <mxPoint x="980" y="140" as="sourcePoint" />
            <mxPoint x="1340" y="290" as="targetPoint" />
          </mxGeometry>
        </mxCell>
        <mxCell id="zha-cPZ6Djakdp4-bvfR-323" value="Load" style="ellipse;shape=umlControl;whiteSpace=wrap;html=1;" parent="1" vertex="1">
          <mxGeometry x="1315" y="480" width="60" height="60" as="geometry" />
        </mxCell>
        <mxCell id="zha-cPZ6Djakdp4-bvfR-324" style="edgeStyle=orthogonalEdgeStyle;rounded=0;orthogonalLoop=1;jettySize=auto;html=1;entryX=0.017;entryY=0.673;entryDx=0;entryDy=0;entryPerimeter=0;endArrow=none;startFill=0;" parent="1" source="zha-cPZ6Djakdp4-bvfR-319" target="zha-cPZ6Djakdp4-bvfR-323" edge="1">
          <mxGeometry relative="1" as="geometry">
            <Array as="points">
              <mxPoint x="1145" y="520" />
            </Array>
          </mxGeometry>
        </mxCell>
        <mxCell id="zha-cPZ6Djakdp4-bvfR-325" style="edgeStyle=orthogonalEdgeStyle;rounded=0;orthogonalLoop=1;jettySize=auto;html=1;entryX=0.68;entryY=0.979;entryDx=0;entryDy=0;entryPerimeter=0;endArrow=none;startFill=0;endFill=1;" parent="1" source="zha-cPZ6Djakdp4-bvfR-323" target="zha-cPZ6Djakdp4-bvfR-314" edge="1">
          <mxGeometry relative="1" as="geometry">
            <mxPoint x="1554" y="180" as="targetPoint" />
          </mxGeometry>
        </mxCell>
        <mxCell id="zha-cPZ6Djakdp4-bvfR-326" value="" style="endArrow=none;html=1;rounded=0;entryX=0;entryY=0.5;entryDx=0;entryDy=0;entryPerimeter=0;" parent="1" target="zha-cPZ6Djakdp4-bvfR-327" edge="1">
          <mxGeometry width="50" height="50" relative="1" as="geometry">
            <mxPoint x="980" y="140" as="sourcePoint" />
            <mxPoint x="1110" y="395" as="targetPoint" />
          </mxGeometry>
        </mxCell>
        <mxCell id="zha-cPZ6Djakdp4-bvfR-327" value="Choose suggestion" style="text;html=1;align=center;verticalAlign=middle;resizable=0;points=[];autosize=1;strokeColor=none;fillColor=none;rotation=60;" parent="1" vertex="1">
          <mxGeometry x="985" y="290" width="130" height="30" as="geometry" />
        </mxCell>
        <mxCell id="zha-cPZ6Djakdp4-bvfR-328" value="" style="endArrow=none;html=1;rounded=0;entryX=-0.017;entryY=0.464;entryDx=0;entryDy=0;entryPerimeter=0;" parent="1" target="zha-cPZ6Djakdp4-bvfR-329" edge="1">
          <mxGeometry width="50" height="50" relative="1" as="geometry">
            <mxPoint x="980" y="140" as="sourcePoint" />
            <mxPoint x="1109" y="253" as="targetPoint" />
          </mxGeometry>
        </mxCell>
        <mxCell id="zha-cPZ6Djakdp4-bvfR-329" value="Enter type of task&amp;nbsp;" style="text;html=1;align=center;verticalAlign=middle;resizable=0;points=[];autosize=1;strokeColor=none;fillColor=none;rotation=45;" parent="1" vertex="1">
          <mxGeometry x="985" y="185" width="120" height="30" as="geometry" />
        </mxCell>
        <mxCell id="zha-cPZ6Djakdp4-bvfR-330" value="" style="endArrow=none;html=1;rounded=0;entryX=-0.029;entryY=0.496;entryDx=0;entryDy=0;entryPerimeter=0;" parent="1" target="zha-cPZ6Djakdp4-bvfR-331" edge="1">
          <mxGeometry width="50" height="50" relative="1" as="geometry">
            <mxPoint x="980" y="135" as="sourcePoint" />
            <mxPoint x="1108" y="135" as="targetPoint" />
          </mxGeometry>
        </mxCell>
        <mxCell id="zha-cPZ6Djakdp4-bvfR-331" value="&lt;div&gt;Select&lt;/div&gt;&lt;div&gt;&quot;Marketplace&quot;&lt;/div&gt;" style="text;html=1;align=center;verticalAlign=middle;resizable=0;points=[];autosize=1;strokeColor=none;fillColor=none;" parent="1" vertex="1">
          <mxGeometry x="1000" y="115" width="100" height="40" as="geometry" />
        </mxCell>
        <mxCell id="zha-cPZ6Djakdp4-bvfR-332" value="Add to&amp;nbsp;&lt;div&gt;Favorites&lt;/div&gt;" style="ellipse;shape=umlControl;whiteSpace=wrap;html=1;" parent="1" vertex="1">
          <mxGeometry x="1220" y="700" width="80" height="60" as="geometry" />
        </mxCell>
        <mxCell id="zha-cPZ6Djakdp4-bvfR-333" style="edgeStyle=orthogonalEdgeStyle;rounded=0;orthogonalLoop=1;jettySize=auto;html=1;entryX=1;entryY=0.5;entryDx=0;entryDy=0;endArrow=none;startFill=0;endFill=1;" parent="1" source="zha-cPZ6Djakdp4-bvfR-334" target="zha-cPZ6Djakdp4-bvfR-314" edge="1">
          <mxGeometry relative="1" as="geometry" />
        </mxCell>
        <mxCell id="zha-cPZ6Djakdp4-bvfR-334" value="Update" style="ellipse;shape=umlControl;whiteSpace=wrap;html=1;" parent="1" vertex="1">
          <mxGeometry x="1420" y="700" width="70" height="60" as="geometry" />
        </mxCell>
        <mxCell id="zha-cPZ6Djakdp4-bvfR-335" style="edgeStyle=orthogonalEdgeStyle;rounded=0;orthogonalLoop=1;jettySize=auto;html=1;entryX=0;entryY=0.5;entryDx=0;entryDy=0;entryPerimeter=0;endArrow=none;startFill=0;" parent="1" source="zha-cPZ6Djakdp4-bvfR-332" target="zha-cPZ6Djakdp4-bvfR-334" edge="1">
          <mxGeometry relative="1" as="geometry" />
        </mxCell>
        <mxCell id="zha-cPZ6Djakdp4-bvfR-336" value="&lt;div&gt;Yes&lt;/div&gt;" style="text;html=1;align=center;verticalAlign=middle;resizable=0;points=[];autosize=1;strokeColor=none;fillColor=none;" parent="1" vertex="1">
          <mxGeometry x="1325" y="700" width="40" height="30" as="geometry" />
        </mxCell>
        <mxCell id="zha-cPZ6Djakdp4-bvfR-338" value="Display&lt;div&gt;Favorites&lt;/div&gt;" style="ellipse;shape=umlControl;whiteSpace=wrap;html=1;" parent="1" vertex="1">
          <mxGeometry x="970" y="760" width="60" height="60" as="geometry" />
        </mxCell>
        <mxCell id="zha-cPZ6Djakdp4-bvfR-339" style="edgeStyle=orthogonalEdgeStyle;rounded=0;orthogonalLoop=1;jettySize=auto;html=1;entryX=0.681;entryY=0.947;entryDx=0;entryDy=0;entryPerimeter=0;endArrow=none;startFill=0;" parent="1" source="zha-cPZ6Djakdp4-bvfR-332" target="zha-cPZ6Djakdp4-bvfR-319" edge="1">
          <mxGeometry relative="1" as="geometry" />
        </mxCell>
        <mxCell id="zha-cPZ6Djakdp4-bvfR-340" value="Display suggestion chosen details" style="ellipse;shape=umlControl;whiteSpace=wrap;html=1;" parent="1" vertex="1">
          <mxGeometry x="1220" y="560" width="100" height="90" as="geometry" />
        </mxCell>
        <mxCell id="zha-cPZ6Djakdp4-bvfR-341" style="edgeStyle=orthogonalEdgeStyle;rounded=0;orthogonalLoop=1;jettySize=auto;html=1;entryX=0.972;entryY=0.817;entryDx=0;entryDy=0;entryPerimeter=0;endArrow=none;startFill=0;" parent="1" source="zha-cPZ6Djakdp4-bvfR-323" target="zha-cPZ6Djakdp4-bvfR-340" edge="1">
          <mxGeometry relative="1" as="geometry">
            <Array as="points">
              <mxPoint x="1345" y="629" />
            </Array>
          </mxGeometry>
        </mxCell>
        <mxCell id="zha-cPZ6Djakdp4-bvfR-342" value="" style="endArrow=none;html=1;rounded=0;exitX=1.005;exitY=0.541;exitDx=0;exitDy=0;exitPerimeter=0;entryX=-0.014;entryY=0.618;entryDx=0;entryDy=0;entryPerimeter=0;endFill=1;startFill=0;" parent="1" source="zha-cPZ6Djakdp4-bvfR-307" target="zha-cPZ6Djakdp4-bvfR-310" edge="1">
          <mxGeometry width="50" height="50" relative="1" as="geometry">
            <mxPoint x="1370" y="470" as="sourcePoint" />
            <mxPoint x="1420" y="420" as="targetPoint" />
          </mxGeometry>
        </mxCell>
        <mxCell id="zha-cPZ6Djakdp4-bvfR-343" style="edgeStyle=orthogonalEdgeStyle;rounded=0;orthogonalLoop=1;jettySize=auto;html=1;entryX=0;entryY=0.5;entryDx=0;entryDy=0;" parent="1" source="zha-cPZ6Djakdp4-bvfR-344" target="zha-cPZ6Djakdp4-bvfR-314" edge="1">
          <mxGeometry relative="1" as="geometry" />
        </mxCell>
        <mxCell id="zha-cPZ6Djakdp4-bvfR-344" value="Load" style="ellipse;shape=umlControl;whiteSpace=wrap;html=1;" parent="1" vertex="1">
          <mxGeometry x="1295" y="220" width="65" height="70" as="geometry" />
        </mxCell>
        <mxCell id="zha-cPZ6Djakdp4-bvfR-345" style="edgeStyle=orthogonalEdgeStyle;rounded=0;orthogonalLoop=1;jettySize=auto;html=1;entryX=0.538;entryY=0.196;entryDx=0;entryDy=0;entryPerimeter=0;endArrow=none;startFill=0;" parent="1" source="zha-cPZ6Djakdp4-bvfR-310" target="zha-cPZ6Djakdp4-bvfR-344" edge="1">
          <mxGeometry relative="1" as="geometry" />
        </mxCell>
        <mxCell id="zha-cPZ6Djakdp4-bvfR-346" style="edgeStyle=orthogonalEdgeStyle;rounded=0;orthogonalLoop=1;jettySize=auto;html=1;entryX=1.008;entryY=0.483;entryDx=0;entryDy=0;entryPerimeter=0;endArrow=none;startFill=0;" parent="1" source="zha-cPZ6Djakdp4-bvfR-344" target="zha-cPZ6Djakdp4-bvfR-311" edge="1">
          <mxGeometry relative="1" as="geometry">
            <mxPoint x="1180" y="256" as="targetPoint" />
          </mxGeometry>
        </mxCell>
        <mxCell id="zha-cPZ6Djakdp4-bvfR-347" style="edgeStyle=orthogonalEdgeStyle;rounded=0;orthogonalLoop=1;jettySize=auto;html=1;entryX=0;entryY=0.571;entryDx=0;entryDy=0;entryPerimeter=0;endArrow=none;startFill=0;" parent="1" source="zha-cPZ6Djakdp4-bvfR-311" target="zha-cPZ6Djakdp4-bvfR-316" edge="1">
          <mxGeometry relative="1" as="geometry">
            <Array as="points">
              <mxPoint x="1145" y="320" />
            </Array>
          </mxGeometry>
        </mxCell>
        <mxCell id="zha-cPZ6Djakdp4-bvfR-348" style="edgeStyle=orthogonalEdgeStyle;rounded=0;orthogonalLoop=1;jettySize=auto;html=1;entryX=0.5;entryY=0.096;entryDx=0;entryDy=0;entryPerimeter=0;endArrow=none;startFill=0;" parent="1" source="zha-cPZ6Djakdp4-bvfR-340" target="zha-cPZ6Djakdp4-bvfR-338" edge="1">
          <mxGeometry relative="1" as="geometry" />
        </mxCell>
        <mxCell id="zha-cPZ6Djakdp4-bvfR-350" value="" style="shape=image;verticalLabelPosition=bottom;labelBackgroundColor=default;verticalAlign=top;aspect=fixed;imageAspect=0;image=data:image/png,iVBORw0KGgoAAAANSUhEUgAAAa4AAAE0CAYAAAB0CNe/AAAAAXNSR0IArs4c6QAAAARnQU1BAACxjwv8YQUAAAAJcEhZcwAADsMAAA7DAcdvqGQAAJ0YSURBVHhe7P17dFtXeuCJ/g7eLxIEARIkRZAUKZHUg3rLtmSVVYnlqqRUdqVc7nK6bnduOTXJTKpvepIZd6/uTHfdnpo1lcyMM0k6N+6Z8h3bU0l8y46t6rKilG1RaUuWKLlEiZIoWXyYlElQJAECBAHi/bx/ADgiwIdI8SHS3r+19iLOPt/ZwN5nc3/78e1vS3V1dRkEAoFAINggKIojBAKBQCBYzwjFJRAIBIINhVBcAoFAINhQCMUlEAgEgg2FUFwCgUAg2FAIxSUQCASCDYVQXAKBQCDYUAjFJRAIBIINhVBcAoFAINhQCMUlEAgEgg2FUFwCgUAg2FAIxSUQCASCDcWKKC5JklAqlSgU8yenUChQKpVIklR8SyAQCASCRTO/plkkkiRRWlpKU1MT1dXVKJXKYhF0Oh01NTXU1NSgVquLb29IFAoFOp1uzvyoVCp0Ot2CivyLjlKpRK/Xo9Foim9Brl5pNBr0ev3nphwlSUKv16PVaotvyajVagwGwwPnWZIkjEYjKpWq+Na65otYH/IoFApKS0tpaGjAbDaLzv0iUJrN5v9QHLkUFAoFVVVV7N27F5PJxMTEBLFYTL4vSRKVlZXs27cPi8WCy+UquL8RkSQJq9XK4cOHUSqVeDwe+Z5KpaK+vp59+/YxOTlJJBIpeFZwr078yq/8CtXV1YyOjpJMJgtkSktLeeyxx2htbWViYmLDl6MkSZhMJp566im2bNmC0+kkkUgUyGg0Gh599FEOHjyIy+UiFAoV3F8MJpOJb3zjG4RCISYnJ4tvr0u+iPWBXL5tNhu/9mu/xq5du9i0aRPbt29n8+bNuFwuotFo8SOCHCvadTEajVRUVBT0GLRaLVarlZKSEjKZe0d/KZVKzGYzVVVVVFRUYDAYkCQJSZLQarUYjUb0ej1lZWVYLBb0en1BuiqVCqPRiNlsxmQyzRr5KJVKdDodBoMBjUaDSqVCpVLJaUi56U2NRoNarS7oxUmShEKhkH/PXMyUKY5XKpWo1epZ9wSFKJVKysrKqKysnDPebrcXxH8ekHIzFDU1NbPiTSYTtbW1BfFfJL5o9UGn07Fv3z7cbjdvvPEGb7zxBm+99RYej4eDBw9uuFHzWrLsEZckSbJySaVSKBQKPB4PyWQSSZKwWCzU1dWh0+kIhUKMjY2RTqfZtGkTW7Zsobq6msrKSkwmE6FQiGQySXV1NZs3b8ZkMrF582bq6+sxGAyEw2Hi8TharZaamhqam5tpbGzEbrejUCgIhUKkUinUajU1NTXs2LGDrVu3YjQaKSsro7y8nHg8Tjwex2Aw0NjYyN69e2lqakKpVBIIBMhkMpSVlbF9+3b0ej27d++mqqqK8fFx0um0nGej0UhNTQ0+n69gxKVUKrFYLFitVkZGRohEIkiSxKZNm9i/fz8tLS0olUr8fj/pdBq1Wk1zczNKpZLNmzezY8cOjEYjoVAIu93Ozp07qaqqIhKJEI/HC5T/RiXfSNfU1JBOp1GpVIyOjsp50+v1bN68mYqKCsLhsFyOarWanTt38uijj9Lc3IxCocDn8yHlRsBbtmxBq9Wyd+9e2tra0Gq1+P1+UqmUrDB27drFgQMHqK+vJ5VKye9ckiTKy8vZs2cP+/btw2w2o9frqaioIJPJEIlEUCqVNDQ0cPjwYbZv345SqcTn85HJZDAajezZswelUsn+/ftpaGjg7t27BXVGo9HQ0NBAIpHAZDIxNDQk31epVDQ2NlJTU0M8HmdoaIhQKIRKpaK5uZlHHnmEbdu2odFoCAQCpFIpSkpK2LVrF2q1mn379lFXV8fExARbt27l7t278ohr69atNDc3y/+X640van0wGAxs2bKF/v5++V2lUim8Xi+hUIhwOExFRQVNTU1Eo1FisRhqtZpNmzZRU1MjtyGlpaW0tbVx4MABKioqUCqVVFdXy22iJEls2bKFxx9/nJaWFqLRKA6HA5PJxNTUVMG72CismOIymUwEg0FZQQWDQdRqNdXV1ZSXl8sVwuVyIUkSW7duJZ1OMzAwQCgUoqGhAa1Wi8fjoaqqisbGRlKpFOPj48Tjcaqrq9FoNHi9XsrLy2lubiYej3Pnzh0kSaKuro50Oo3f76e+vp6WlhbC4TCjo6OUlJQUpC9JEnv27KG6uprPPvuMcDhMY2MjZWVljI+PU1ZWxu7du7FarbjdbpxOJ8FgUP5HknKKq7q6mqmpqVmKq7y8nPLyckZGRojFYrS1tdHW1obL5SIQCFBXV8emTZu4e/cuKpWKXbt2UVNTQyKRIJFI0NDQgN1uR6/XE41GKS8vx2634/F4iMfjM0p/Y5JvqGw2Gz6fj5KSEnw+H+FwGCnX2dmyZQtTU1NkMhnGxsZIpVJ85StfwW63c+vWLSYnJ9mzZw9qtRqXy0VFRQW7du2irKwMr9dLOByWOz/j4+OUl5dz5MgR9Ho9vb29JJNJWltbyWQyeDweqqur2bt3LxqNBqfTiV6vZ8uWLRiNRvm37d+/n+3btzM4OIjP56OlpYWKigqcTidGo5H9+/ezadMmPB4Pn332mVzn83nWaDTU19czNjaG1WplcnKSYDAIucZ59+7dTExMoFar5brzxBNPUFdXx8DAAG63m23btmE0GvF4PBgMBvbt20d1dTUTExMMDQ0Ri8Vobm6WFVdLSwu7d+/m8uXL8netN76I9YHcMkttbS1lZWW4XC556jiRSBAIBJAkCbvdTl1dHV6vl2AwiEajoaamBqvVytjYGKWlpezdu5eysjI+++wzFAoFLS0tlJWVEQgE8Pl87Nu3j7a2NgYGBvB4PLS2tuJwOIjFYoyNjRX8po3Ciigui8VCSUkJXq8XjUYjKxij0UhtbS3JZJLp6Wm0Wi0ul4twOMzk5CQul0seRRgMBkpLS7l79y7l5eXodDp6e3sZHh7G7/ej0+kwGo1MTEwQDAZxu92MjY3JozRjbkE6EAjQ1NSE3+/n1q1bjI+P4/F4KC0tRaVSyf/wtbW1dHV14XQ68Xg8TE9P43A48Pv9KJVK7HY73d3dfPLJJwVKK59nk8lEQ0MD5eXlVFVV0dDQQENDA3V1dVRVVaFQKHA6najVavbv38/Nmzfp6+vD6/UyOTnJli1biEQihEIhtm7disfjobe3l7GxMQwGAyUlJdy+fZu7d+8SiURwOBxMTEwQDoc3ZEWbycyGyuPxoNVq0Wg0jI+Po9Vq2bRpE2azmbt371JaWsrY2BjhcBiPx0NPTw8ul4vJyUnS6TR1dXUMDQ1RUlJCeXk5t27doqenB4/HQyqVoqKiArfbTTAYZGxsjP7+ftxuN36/H41Gg8ViwePxUF9fDyDXCbfbjUajwZRbt5UkiR07dvDxxx8zMDDAxMQE4+PjNDc3y734xsZGuru7uX79OtPT07PqjEajoa6ujrGxMVQqFaWlpTidTrmHXFtbS19fH3a7nZGREYLBID6fj76+PkZHR/F6vSQSCTZt2sT4+DgqlYq6ujq6u7vp7u5menoatVpNS0sLd+/epaKigt27d/OP//iP63q964tYH5gxumpsbOSRRx6hsbERrVbL9PQ0iUQChUKBxWKhvLyc8fFxgsEgKpWK8vJy9Ho9ExMTVFdXYzabuXLlCkNDQ7jdbtLpNFarlYmJCdLpNAcOHODjjz+mr6+PiYkJXC4XTU1NTE1NFYxsNxIrssYlSRKZTIZgMIjf78dsNsshX8AzRwpKpZLS0lI2bdpEU1MTTU1NWCwWOS1JkkilUvK0RiqVkp9X5kzqtVotVVVVtLS00NLSgtVqRZIkdDodSqWSYDAoPxOLxQgEAsRiMfm7tVotNpuNrVu3ylOWarUao9GIJEmk0+n7jm5SqRR+vx+XyyWHvGLNVwaz2QzA+Pg4iUSCeDzO1NQU09PT8py9JEmEw2EikYgc4vE409PTRCIR+Z9Sq9Uifc7WzcLhsNxDNplM6PV67Ha7XI550uk0Pp8PpVLJli1bOHToEK2trQXrjDPfWSqVkpW8UqkkkUgwPT2NXq+ntbWVRx55hPr6erkuqdVqwuEw4XAYQH5P+V5/WVmZ3LA1NzfT3NyMw+FArVZTWloKQCaTWZThUTKZ5LPPPqOyspLS0lKUSiX19fW43W6mp6dluUwmI0/lNDQ08Mgjj7B9+3a0M6wS5/vOpqYmHnnkES5cuIDX6y2+vW75ItWHTCaDz+fj1KlTvPnmm/T29lJfX89v/MZvsGPHjmLxWahUKrRaLZFIRK43yWQSv98vl5XJZCKVSjE5OSm3SdPT0/h8voK0NhororjyxONxuUA2bdpEWVkZsVgMz4ypNClnSbN//35qamrIZDJMTEwUyMxHvtI5HA4OHTrEli1bUOas+vJzy3MZTBSTf+FWq5XKykrZOMTj8cgV7X69EEmSSCaTuN1u+vr65JDvfaXTaaRcLzsejxdU4EwmQzgcRqfTyWnN/L78dX4+PJ1Ok8nNu3/eSCQSeL1epNw6YElJiTxVNhO9Xs/Xv/51vvGNb9DQ0EA4HGZ4eLhAZj6k3JTL008/zVe+8hWqqqoIBAK4XC6Ysccwk8nI7yFf/vlyz88k5EdGmzZtwmaz4fV6F2yc5iKdTsudufr6ekwmE6WlpQwODhbUA41Gw7Fjx/jGN75BS0sLyWSSu3fvLmqdymw2E4lE5DXVjcIXsT7k24Nbt25x6tQprl+/TnNzs6wA52Oh35lvO9Q5o7X8df5zKpUqqGsbjRVVXOl0mkAgQCgUoq6uDqvVWjBXnckpnpKSEpLJJJcvX6a7u5vx8XH5BZCrWPOh0WgoLS3F6/Xy0Ucf0dXVxfj4uPxsJBKRF7/1uT0feeMMjUYj97ympqa4du0a586d49y5c3z00Ud0dnbiyq3BsQjlRVFFmRnylSkUCqHO7c3Jky8Dv99fkNZCLFQmG5lMbqSenzKpqakhFAoV9AglSaKqqgqNRsPPfvYz2tvbuX79utwbvh9qtRqbzUYwGOTdd9/lww8/pKenRzY3jucMdnQ6nTyaUavVlJSUoNfr5fcYDoe5fPky//iP/yiHDz/8kKGhoaJvXJhMric+PDzM5s2baWhoIBqNzuq85TtUH3zwAe+//z5Xr16VF+Tvx9WrVzl9+jQVFRXs3bu3+Pa65YtSH6ScAcnBgwcxGo1yfDqdlqd1VSoVyWRy3o5KIpEgGo2i1WrR6/WQe6akpEROMxAIoFQqMZlMchtiNBqxWCwbuk1ZEcWVV0rkFMfU1BRarRalUsnExASZGaOFdDpNKBQik8ngcDhwOBzU1dVRXl5ekGa+4c+T/45UKiVb19hsNmw2GzU1NZSXl5PJWfu43W5sNps8Bbh161Yqcmb6+WFzOp2mpaVFXk/asWMHv/qrv0pZWVlBfuZjIeU2857f7ycWi7Ft2zZUKhXKnCVSaWkpo6OjsnxxfvPP58nLKBQKtm7dyubNm1HmzO5bW1tlKyKdTsf27dvlfGwEYrEYExMTlJWV4XA4GBkZIZVKFchEo1Gk3DQOuSmQ5ubmApn5yGQyJBIJlLntD8qcAU1dXR3k0vZ6vVgsFnbs2IHVapWnsFUqFel0Gq/XSzQaZffu3ahUKhQKBQ0NDTz77LNUVFQUf+V9SaVSjI6Ootfr2b59O3fu3JnVQOWnufJTxAaDgaamJrkXfT/8fj9XrlyhpaWF6upqJEnC4XCwZ88eKioqZEvGtrY2zGYzWq2W1tZWtm3bJjeED4MvSn1IJBLU1tZy8OBBNBoNkiRRUlJCW1ub3I5Go1GUSiWbNm2S1+bzVsj50alWq2X37t3YbDYcDgetra1ochu5p6ammJiY4PDhw1RVVWE2m3n00UfljnT+d+/evZvy8nJUOSvWnTt3UlJSgk6nY8eOHTQ3N8szROuBZRtnMKNnkC/odDpNIpFgYmICt9tNJpNBo9HIBR2JRNDMsI7RaDS4chvuJiYm0Ol0ZDIZedidHzVlctOKsVhMrkybNm1CpVIxNTVFKBSSpw2TySQ1NTXU1dURDAaJRCKkUikmJibw+/2Ew2GamprYu3cvzc3NGI1Gbt++jcvloqSkhIqKCsbHxwvWHPIoFApMJhN2u52pqamCNYT8P0FZWRl3796V1/2amprYs2cPra2tlJeX093dzejoKCqVii1btuD1evF6vaTTaaqqqjAYDDidTpLJJGq1ms2bN+N2u4lEIuzevZuysjJGRkbQ6XTs378flUrF+Pg4FouF/fv3ywv7xcpwPSDlFuMrKyvxeDz4/X4ymQwlJSXE43Fu375NOmfma7PZGB0dxefzYbFYePzxx2lra6O5uZnR0VEMBgODg4OYTKaCd6bIeSOwWq3cvXuX6elpqqureeyxx9i5cyfV1dXye3M6nXLdraurY8eOHUiSJC/oT01N4fP58Hq9bN26lcOHD8sbRm/dusXQ0BB6vZ7GxkZGR0fldaniPGtyVoUTExNMTU2RSqXkNa7r16+TTCbR6/XU1dUxMjKC1+vFZDLxyCOPsGfPHrZt24Y3ZwA1PDyMMrc2Njo6Ko/eNRqNbJwxOTnJ5OQk2pxJ+Pj4OJWVldTX18sjhrzHm/zv2bp1K2azWf4/XQu+iPWBnOLy5awRH330Ufbt20drayvhcJgLFy4QDodJJBKo1Wra2trYtWsXJpMJj8dDJpPh7t27BAIBAoEANTU1tLW1YTQa5RmoQCDA5OQkd+/exWQysWfPHrZs2cLAwACSJBGNRnG73TQ0NFBbW0sgECAej7NlyxYqKyvlUW5LSwtGo1FW1usBqa6u7qG0bNIM/4aJRGLJDawkSahyG4qLn8+7W4rFYqRSKVQ5k3OdTsft27flF5JvTCRJIhaLLek3SDM2JxdP3SiVSpRKJclkknQ6jUKhQKvVyoYj0WiUaDRKMpmUlXJ+eiKTyaDX61GpVLKRh0KhwGw2Ew6HSSaTlJWVAeDLLU5brVZ5fVGbMzoJBAJzWjJtdFQqFRqNhkgksuS85euMUqmc9b7z7zIfJ0kSjY2NbNq0iYGBAe7evSvHq9VqVCrVA/2GB0GpVKLVauVOoeAen4f6kE9DrVYTi8VmjbzvhzRjhkiSJKqrq2lpaWFoaIjBwcGC++Q63seOHWNycpKrV69uyDq1IiOuByWdWyR8UOZ6XqlU0traypYtW+S4qqoqHA4HXq8Xl8tVUDFSM6wXl0pmjum9fPzMxc9MJkMymSQWi8kWg/nKkslkiMfjBflIJpPyNFFeJhqNymlGcpaHmdz6Wn5EmX82b0H5eSQ/mn9Q0un0rPedn37ds2cPAMFgEIvFIu81HB4eLijPVCq1rN+wVDK5qa256toXnc9LfcinsRQlosjtA3vkkUfQaDT4/X5MJhNbt25Fr9czMDBAasZ+t/yyTVNTE1u3buWTTz4hEAgUJ7sheGgjrtXEYDDQ3NxMfX09Wq2WeDzO4OCgvNlZIChGp9OxdetWtm/fjslkIp7zXnHz5s11vQdKsDpslPqgyXlj2bVrF2azmWQyyejoKNevX8ftdgNgsVg4dOgQVVVVSJJEKBSis7OTwcHBJSnK9cTnUnEJBAKB4PPLilgVCgQCgUCwVgjFJRAIBIINhVBcAoFAINhQCMUlEAgEgg2FUFwCgUAg2FAIxSUQCASCDcWyzeGtta1YaxfnIywWmtv1yVJIJqKk4svfXBsJLv+3AERXIE+peIxkYn24UhEIBIL1zrIVV33bE9S3HS2OFjwEkvEoqQdUgANXP8Dj7C2OXhWa9n8FU1lVcbRgg9Fz6efEQos/4WA+VGodO574dnG0YIMx7Rtn8OoHxdGrglBcAgA++eitNVNcu5/8Lcz27Amzgo3Lxz//jyuiuLRGM49+418WRws2GH7XENfP/KQ4elVY0zWuYHCanp5uIpHFnZsjWDsSsQcbqQkEAsFasyaKK51O8+lAD+c7zjDsHOTylQs4R+4UiwkEBSQScQYGerl46b8QCgsfkwLwB3xc7rxAf/9tYqKz9YVl1RVXIDDF+QunGRzsQyFJgEQkEuH27Rt0dV0iLBokwRxMTnq49PFZBgZ7mQ4GuHDhDAODazOVKVh/JBIx+gdu88tffoTP5+HOUD8fXz6Pa3ykWFTwBWDVFdeEx000GsVoMKJSqSkrK0elVFJSYsbtdeObnCh+RLBMkvEo44PXV8Ti8WHw6ae36bzSkZtSzkAGIMPAQA/nPjq97CMkBLNJxqNMuT4rjl4XJBMJPv7lBQYH+5FPdslkiERCXOu+wmdDnxY9IVgJgr7xdVsnVl1xQQYkiVKzBQB7ZTVqtQZTSSkSoFrkMeSCxXOj/Sfc7fmYq794hWR8402nTHongAzV9k2o1RoqrHZMxhJKS8uIRiMkk0JxrTRXfvEKvZdO8suf/2XxrYdOLBYlFA5SaiqhrKyc8jIbWp2O2po6ANyuseJHBMtkfPA6N9p/wifn3uJu78fFtx86q6a4EokEkz4vIEEmg0KRPVE0Eg2DBKlkkgygUmuLH10SA8NhbvQEGHCGcY4/nEbaNTx7CmvS7STo9xRHy8SjYeLRlTFSiQanuN7+E6784hXu9nxMcMrF7mO/hbHMzsCVD+R7QZ+r+NH1SbaqEEvESGcyJFJJkunkrAP/Pm+sVH1YDNHgFLfOvUXvxXcZH7xOKhHl0W/8Psl4BNfgNa63/4Tr7T9ZF6N2CZAkSCST2YNf00kUkoJYPJatKtKyDKPXNWtZJ+72fMz19p8w1H0Wv2uITa2P0rj/q4wPXGeo+yxXfvEKQ91nix97KKyK4hpx3uH8hXZGR4fJj+3D4XDu9N4wyUSCeDyOWqVGYzDhVpiYUJiIoSpO6r4MDofRqLPZCIaSnPrQTTC8tg1cx6nXiqNwDfXiczmLo2Wc/dfo6Wwvjn4gXHeugwSbWh7BM9JL0/6votLoaNr/FaKhKcrsDZRV1q+bSjcf3kkPExPjudlBiQqbHZVCgbXcik5roLTUnJ01XCanz3s4fd7DqQ/dnL7gweVZ/ob2peAa7qXzzJvF0Zw98fKCdeZ2Z/uC95fCUPc5VBodSNnP+S0tm1of47PujyizN6AzlXG355fFj64ZiUQit66ZnS7W6w2UlJgpMZWilBRUVtaQzgCZXE/nAXF5Ytm6kKsTHV2+NW9DOs/8dNa79bmdnH7jpYK4Yi7O0fY8CMl4lIGrH2Bv3I3H2UtwyoW9cTe22hZ0JWV4Rvqo3/lEtmPsGy9+fM1ZtuLSGs0F159+2sMnPd0k8tM5uTpVUWFHpVJRXVVLIpkgGJqm7cAT3ClpYUht5zO1nR5NDTFp6crLUa2jyWFgW5OJAzvNXOm+dxz17YEgF6/6GBi+13MZGA4z6U9w8aoP53iUSX+Czpt+WSaeSM+SjyeyJ4W6PLHsCG/G/bmw17dgr2shHg3jGu7FNdyLs69rzlFYPBqeVWmXgrmygZDPha22hd3HfotNLY8AYLJUsfvYb1Hf9gTR0BQ6Y1nxo+uCRCLOlasX6bzSwXRwGgCJDEPOO0TjMYaG7xAMBvB43JhLy4gYbAyoK+lXVT5QfQlGkjx1xMbxL1dyaK+Fi12+WcorNE/DNTN+Ppm5KJZNzNGTfuo7L2KxO+Tr4lF5IhomHpv93IOgM5URDU7R8tgzPPqN35frTH3bEzz6jd+nvu0JplxDmCz24kfXhEmfl45L/4VPB3vlRmRqahK3exSXe4xoPEZf/y0kSaLMVs1dVTl9ajtORRnJB1Bk5aVquU5YStVc7CocacYTabkNmC9+Ppm5KJZNRCOz3q2l0sHx3/5BQVyoqP0I+r0F1w+KSqNDpdYiAfu/9rvs//XfQWcsQ6XRseNL385em7JtvUqjK358zVm24iomHJpGpzdgMpagkBTy2vrAYC/RWIy+/k9Qq9S0Hfgyo5btZEizKz7ErvgwGSTuKsuLk1wSdpuWYCTbSNzomSYUSbGrtYRQOMmN3qxCGxwOMzIWpbXJxI2eAC5PjCaHgZ7BIC5PjEQiw6DzXiUaHA6TSKRxjkW4PRDEbtPi88cXnJoc6evC53aSiEX48J2XcQ33MjlHDyoeDXP2xMsP3GlMxqNEQ1MFa1m9F9+l4+/+N6784hV5qic/Tbgepn6KuXb9Ml7vRL6Pk51dBpo2b8WgN9K4uZlkMonJWErNI8f5VFNNFDVhhY6bagfhBxip5zEZlBzaa2Ew1xFxjkU59aGbzm5/wej99IUJzn7spbPbT+dNPx1dPjq7/fzsdLb3me/Q5MnHB8PZWYDObj+nL3gWbNhOv/ESIb+Hge4OTr36QzpOvc4/vPZDei6fKRbl1Ks/ZLC7ozh6USTjUbRGM373kHw9cOUDPv75X9J78V2S8SjJeJRYaAqt0bzmdSYcDtLZeYFYNCob5gBYLOVsqqmjdlM9JlMJiUSCzVt2EG/9FVxKMxkUjCktfKqpLk5ySWxrMqFRS3JnpqNrirMfT3L240lu9GY7VgPDYfm9/sOH7myduOrjHz500zOQtZS+eNUnd1hcnhgXr/og1y6d/XiSi1d9cnpzEfJ75fbi9Bsv0XHqNTrb3+L0Gy/N6gBPup2cevWHs+IXSzIexVzZILcTQd+4vMTgGckuhfhdQxgtVURXyF3eclhxxYUE6VTy3lAr9ymVTGIpK6e6ahP7DxzBY9kCZGhNjKHNJNFmEhjTUWLS8o01ErnGwTke4cBOM0aDil2tpTjH7jXuTXV6LGY15aVqys1qLGY1jirdfacIEskMGrWCA21lOKru3/MI+j1U1bWw68gz7D7yDBqtQe41xWNZpbX/2POUV97raS+FG+0/wTV4XZ4eHB+8jt/9Gfu+9juUVdbTe/FdAJr2fYWgb3xdGmxkgIrKKsostmytyU0v3/zkOuFImN6+W1gsNqof+XXGtZVsSk6yI3GXnbFhJDK4lcsbSVrMaoKRFAA3egMcfcTK0UetHNhppmcw2wgFwyn2t5Vx9FErLk+UbY0mjj5qpcqqxeef31hkcDjMrpZSjj5q5dDerIHSYrDYHXz5W9/nay/8gJ7O0wX3Ok69xraDx2hsO1wQv1iyaxXnaNr/VQAGrnzAlPszuY7c7f0YlUZHfdtRhrrPcaP9r4uTWF2kbNvR0rwDSVZbGbxeD0PDA9z57FN8vkkam3cSa/kySRRsjztpSYzRknIxrdATWUZnBsBSqiYYTuIci0Amw1NHbDx1xIZrIiYrNEupmsP7LBzaa8HnT/DlR6187cuVOMcjxckV4ByP8NQRG0cftS6qDcmz7cAxjn7r+zS2HS7otAT9Xi7+/Wsc/db3MZltBc8sBr9riF/+/D+STETZ1Joded8693eYLFVsanmET869RTIexd64G4DeS+8+dIONFVdcCqUKg8GEXq8nA4RC04BEY2MrNY9+neD2X8NZvp2KlJ9tiRG0ZBXFtKTFrzBiSd7rtT4IwXASo2HuSptXaADq3LrYUnBU62l0GLjRE+D0Bc+CDdZMNDr9jM8G+fNI3zUS0TAa7b37SyUamqKqcTf2zbsACPnGsda2ojOWYa1tkZWUzdFCy6FnIJNZF3PUxUxP+wkG/WTIyEMutUpNw+YWtu19nJ37HmdSXc6m1CSbUtmeq1ICJel8O/fA5HvFoXAKjVqByaCEnELLv2OTQSnHa1RKLOZ7HayFRlGNdUa5vrg8MXk99n6YzFbI1ZeZ63qd7W8S8nsfWGlFQ1PEQlPsPvbP5enBZCJKbcuj2BwtVDXulkdY9W1PyOuka9vZyb7QcfeoHJNBAgmMRhPb2w6w+7FjWBt2kkxLtCRG0WWy7zBDhkwGMtLiynkhNGolPn8Cu00jxzmq73Vu8/XBZFBh0ufqxiLer6NKJ6+lqdWLr7z5diRfN8jN2Jx+43+j9eCxB1JaAFPuzzDbG9h97LfQGcvkOlLf9gRVjbvRGssI+saz04ZPfJuqzXvWzD3cfNy/lJdIhgzhSAh/wJ819smkaWxsQbn1MKPqcqzpIKpMiiGVjYQi+88/jZZe9SZMqRD2zPxD5/vh8yc4+8tJGh1Z5aBRKeTe0aQ/QaX1ngXjQhVMrZYK5q3zU48uT4xys5qjj1ppbTQyMGM6sZjQIuaeG9sOs//Y85x95+UHth6q33WUkRmm7/bG3bgGr3Hr3Ft8cu4tbI4WAAauvM/Vf/gx1tpWyuwNxck8dCorqjGbLUhIZMigVqvZdfDLRLcfY3zTI3Rr66lITclKC+AzpZUESqpSy5u6cI7FaHQYCt47c6xL3Y948p6KyXeSTAYlx38lu5bm88cZGF7ehvtdR57GUlnLjfMni28tCp2xjE0tj/LL3LQgQJm9nqHucwxc+YCh7nOUVWbrx/X2n3D1F69Q3/bEmq9rZICmhuac0s427kaDifpHvs543RGGbW041Ta2p0bRZ7Kdi5ikZkhViS4VxZCJF6S3FOKJNAPOMBazGo1aQSJx771OBhJo1Fkl9aDsai3l+Jcr2dZoov3Cg03tzeSp7/wrei+3P/A0ob1xN0HfOOfe+J/wjPSiM5Zhrqzn1rm3uHXuLSQymHJThL/8+V9yt/fSQ/dPO3/rvQxisVjWHYsEDQ1bUW09jEdVhiPhQUuKilSA8lSQaUmHRzLSq6mhLBWgOeWeMcG4OMrLVHRcneL0eQ83egIc2GmmqS6ruA7ts3CjZ5pTH7q50RNgV2spzOgpAag194pArVagUSvRqBXYrRp+dnqcjty8NDll13nTz8WrPjpvBmhtNEFuYfX0Gy/JoXgBdSHsdS00th1+4IZoU8uj7Hji2yTjEaKhKUyWKvZ97Xcpq6xn+xPfliuYZ6SP5se+kR11rUOGhwfxet1kMhlUqqzSulveChmJ5sQom9IBRtQ2PFL23X6mtOJRltKYm2peKgPOMAPOMB05w4ymOoP83m/0TuMcj9LRNSW/4/thMasZya2BXu+51/m60RPgRu80vkACXyApN3pBv5eB7g45LBaNzsCBY78pG/w8CE37v8K+X/8dXHeuk4xH2dTyKHVtT6DSaNn+xLflKSG/e4h9v/67D6WRkoAr1/PTURlKjCYcjx1nzFCDLTXNjsRdyECPOmtZGJNU9KhrIJOiNbX0fV3BSIoBZ5jbA0FOX/CwrdGEyaCksc6AczyKczzKgDOMz5/AUb04JW40KOm8md2qcyNXJ+KJNP/59DguT0yens7j7O+S68Ni361GZ8BktnLo6y88cAdYZyzj0W/8Sza1PIp3pAeAHbl6UFZZz65jv4VKo8M70ovWaObwP/nXlD1kJ9lKs9n8H4ojl4K1tgWT5d4RFe6JMaanA0hARUUVsU27mFBbqE1OUJ0OEFAaGFLZqMgEkdIphtWVlKeDNKU8S1ZaADWVOprqDDTVGWioNWCaMU2oUStoqjPQ3GCkoTbbMJGb8pv5fP6ZinIN5pLs5xq7jm1NJhpqs9aKGrUCvU5JU52BcrOaXa2lcno7Dv06TW2H5aDRGXA078VktmEy27DXtaBUZUeXjq170JvMmMxWbDWNKFVqKjY1YrZWFUwjLoW7vR+jUKqpatxNwDOCSqOjvGYLOlNZdue7BBISvrEBKut3FD8OgGvw+op4+l4MVY270ZnurUvdHXUSjWbXBazWCupbdjNcugWA1uQoIyor2kwSSzJISSbKXaUFj7KULfFRLCzdlN1kUJLKDayqrFq5Q0PuvQfDKQLTCZobjNTYs42UyaCS60n2c35qSInRoEKvU1JbrScQTFJj12G3aTGXqLPGQrn0muoM1Nh1aLQGuT7kKbc7MJmtGM029CYzxjIb+pzFrslsxWytRq0zoDeWotEZsNe1EPJ7MFsfzBDB+ckFDGYblfU7CPrGKa/ZIpvAB33jaPQmoiE/094RbLWtxY9Drt6lEksv/2JUGh21rY/K14lkguHhQbk92NLUgsKxC5dhE5UpHxWZIEPqCupTHpTpFDopRY96E0pSbEuMoWH+qdu50KgVKJXZb1MqJfZuL8Vuy87OKJUSdpsWz2ScVCrDgTYzSqWERq2Q3zuAXjejTmgUmE0q7DYtqVSGeCLNjuYSTAYV5hIVtdV6RsYipFIZHt1dlk1PZ0CpujclqdEZMZqt6I2lmK3Vct1QqtRotAZ0JjN6Y7YdMZmzdcVsrcref8B25OaHb9Dy2DMolCqSiShl9gZKbbUAhAMeyuwNDHefxVLThEY/u0MXC/mzW3PWgGUfa9L82NNUNe6Rr7tvdTE66kQhKdjx5W8yYqijNjFBTebe2pVTWc6YMrtQXZGaYnPq/tNqgvmZcg3Rdyk77aNUa0klYjzyjd+n9+K7TLk/Q8o1AdbaFpr2f6Xo6SzX238iW5mtNsXHmlzuvIDP5yUDtOw4QKDhMTJItCbuos0kGVWVM6K0UJGaJoaSoELH1sQY5sxarrt8vhjqPodr8DpKjY6QbxxzZT27j/0Wt869hTc3XZQBalsfYVPLPaUyk9U61iQcCfPR+XYkQKfX0/ylbzGsqaAyMUVD2ksKBZ+oN5GWFJSnpplUlqAkTUviLurM0pSW4B4f//w/YrJU4XcNkUxE2f7EtzGV2bn6i1eADGZ7A96RXh75xu/PubVmLY81WaURlx+LxYamYQ8q0mxO3Zs6cyrLiUsqGhMuKmNuKiXR+CwXnakMo6UKo8VO8yPHGeo+i0Klwj30CS2PPYO1thWjxU7djseLH5V52COuSDSMubQcY9uvEENNa3JUngLUpeOQThFU6kkhsTXpojSz/J7+F5kyez1KjQ5jqZWtj3yNwasfYK1tYbj7LHu++tvoS22UWOxsmjESKmZ1R1wDgMTW5p2Mlm/DkgzQlM52cBVk0KQTpCQFfoUBbTrK1qQL9RJHWoJCbI4WEtEgju2PozOZ8Y0NkEklSSaitP3qd0hEg9S3HS1o72eyliOuFV/jqqttYO+eR9jS1IImnSAsaeRNooNKG+MqCyXpCEYSGFUr/vVfWMrs9VTl1ibqdx1lfOA6ttqWrNeMGffWJZmsJaHJZCKGEhNRWWnFJDWfaGoJqwzsTIywNfgpJqG0VoSqxt1san1UNti4+otXsNa2YrJUyfceDhl5mlBtNJORJGzcW7txK0ro19ZQngqyOzHM5vCwUForgM5YRn3bUcrs9bLBxlD3WbmO5O+tB1Z8qnAmKRTcVNUQU2hQZNJkFArqExNUph/cclCwOlz5hx8TmlobX4bFU4WJRJxEIoFCoWDSWMOY0kx9fAKtlGRQnfXc0Jq4NwITrA9Wa6qQ3CZkkFCr1Xxi2IKGJHVJD370jGis2JIBGmfM5AgePms5VbiqQx4laXYlR2hMuKlJ+dgWHRZKa52STDy8KVu1WoPBYESn02NPTWFOhxnU2Lmt3gTptFBaX0AMBhMGgxG1WkNTYow4Sm6pa7mrtlKZ8Aul9QVnVRUXObNWWyZITdqPSRKNj2BhlGTYknTTFh9mZ9zJ7uSIUFpfcEwk2J1w0poYZU/8Mxpya12CLy7Lnir8ly/+W752/BsAhKNxQpEH3/iXx+Nb/qgsHI0RXoHfMuELFkc9EJ4VSCccjRGOLj9Pc7FS0z6LoXiqULAxWak6M9dUoWDjsZZThctWXH/6p3/Kc889VxwtWMfMpdS/8fVfY2RkbY5Bf/3//gltu/cVRws2GCtVZ2pra/n5379XHC3YYFy8+DH/r9/7XnH0qiAUlwCAxx9/fEUaocXw05/+lEOHDhVHCzYYK1VnamtruXDhQnG0YINx8eJFfvM3f7M4elVY9TUugUAgEAhWkmWPuH784x/z1a9mj0cACEVjXLk1vOR1KqNOg15/zwnug1Jhme2KZCYGvYb66nvelQVZVqr3vBjEiOvzwUrVGTHi+nywliOuZSuufCMUisb4z+1dvHfhZrHIusNmMfFrj+/kq4/vLL61okz4pnn/wk2ufLJ0RT4Tm6WkOOq+GPQaKspM7N9ez5f2NxffnsVKNUKL4X6KKxSNcb6zn6Fx74oYtQgWj0GnYdvmavbtqKfiPvVuperMYhTX7cExeu6MMeGbFnVijamrLqe+2sq+HfUYdfMPLjac4tq1dx8/euUUw6OTxbfXNXU1Vv7od45j1N1zbrlSvH/hJifar66aFeBSsFlM/NHvHF+wIVqpRmgxLKS4fnbmKu+dv7kuyu2Lzpf2b+WbT+6bt96sVJ1ZSHFN+KZ55e1z3B5cusd3wcpis5h4Yn8z33xybsOqtVRcK7LG9bcnLxUoLWdf1j3//Vis634An8spf3b2dUHu+Rvn3+XG+XeX5M4/Lzs86uUv/rrwdNmV4KMrffzN31+6b+Mbj4bl37KU379UPL4gP3rlFBPLGPWtNqFojB+9cmrdKHsBfHSlnx+9coqhsYezb2po1Mu/+48/E0prneDxBTnRfpU//+vThB7y/+iyFZdnKsRHV/sL4pz91wj5PcSjYT5852U+fOdlgn4vnWd+ykB3BzfOn8TZ18WN8ycZ7O6g88xPud3ZTsep15h0O7lx/l16Lp/hdmc7N86/i2u4l84zb8oHpfncWSVmr8sektjUdpjBmxfp6Wxn0u2k88xPuXH+XSbdTno62/G5nNw4f5Ib599loLuDsydeln/r7cGxFf3HmPBNc+LM1eLoOfG5nVw89ToAp177ISG/B5/LSdDvIZj7TE5pB3Pl6RruLfi8WDy+IK+8fa44et3wtycvreh7EKwMHl+QH/147Ts9E75pfvTKKdGJWYdc+WSIv/37i8XRa8qyFdf7Hd0F10G/l5Dfi881gs/txFRWTlV9MyN9XZhKK/C5h4FM7rwqK0azFUulg0Q0jL2uBddwLxkk4rEQUy4nTW2P4xruxV7XvODR1M6+LjIZGOnrwlLpACCRG9E4+7vwuZwYzTZMZiv2usI1n58tUtEshp7BsSXPwTv7ujCZbQT9Xpz9XfR0tnOl/S0m3U4Gui/gGu7lSvtb8siyp7Odi6deX9KBc+SU9HLW2laLj670zer8CNYP4Wh8zTs9P377nFBa65iPrvQ/1I7mshXX8N3Z61qHjn+XQ8e/SzwaJjQ1SQaw17cAGeyOFlmxVNa1EI+GMZltWCqzB+k5tu5FIoPRbKMyN6Iymm0YzbbsKMTtlJ/P31NrDTia9yBJ2VGYKSc/mRuxGM02Kuub0Wj1aHQGgv7CqY+h0ZWbCrnyydLOtGpsO0RP5xnsdc1M5kaSABqdHpPZSsjvxTXch7GsHI3OQDyWPXBRrdNTXulAo13aoXGdS/x9a8FcI9RrZ09w8R9e5+I/vJb7m/+cv34NZ/+14scEq8RKz0wsxO3BMXqKvmt6cnxGPZhZH+7Viytn3iSRO5BUsPqsZId/qSzbOOOxr/9XaErnPoU1Hg3jczvlKb25CPk9GM02eY3nfqd3Bv1eTOaVN2f/6z/+r4qjHoj/+ZVTs/7pFiIeDWcVUu5vyO9BnVNG+fhELIxaa8DnduIa7kWtM9C08zChgLdAiS+Gbz65j2ePzV5cXamF9sUw0zhjaCy7jjET/8QIvzz9U3YfeRqAfAWVZnxOxCL0dJ7h2D/97+XnBKvLs0/u45sz6s5K1Zli44y/+ftLvF9kndz1X95CX1JeUN/z9SH/d7D7IrVb2nC07C94VrB6/Nm/fl62et5QxhkV5fPvm8ofMb4QH7zxEvFomIHuDno623EN9+Ls68pOm/V1yes5eYOMxIy1nZnrQfn1rwfBdp+9X0thIQvFjlOvQW5qMJ8fjc6As69LVthGsw2f2ylfa3QGjGabXJZNbYfZduAYGp1hyUprPTLntKoEGq0BY24qOXs8eeFntVZPJrOsPpdgiayVkcac35MBtdYgv/+Z9SH/V63Tg5Q/yUuwFqzkbNVSWPYJyN95/nnuuB98eB7yewj5vUzlGuuQ30t/1zn0JjNKlZqhnsuQM/iIxyJ4RgdxDfcRj0UYvXOTscFbjPRdp6Zx531Ha/Oxf0c9+7c3FEc/EKMTfnruzD3iunH+JGZrFbcuvYfeaGZidJCxO7dIpRJEg36Gbl8m6Pcy2H0RvamUns52Ru/cJJVMMHT7Mj7XCKlkgv5rZym1VnPjwrt4RgdR6wz0d50lHg0T8I7Tf+0stppGlCp18U/g1x7fQU3l7GO3X331VQKBQHH0qvDcc8/hcGSV7qfDE1wtmr7s6zqLZ3SQz25fZnSgm/6uszj7uxgf6mXg+kcM3uxgyjNK0OemYfsjqDTz7y0RrBxlJkPBnsCVqjOlpaV873v3fNy933EL//S9NkWCrHGWz82nNz5i5NPr3O2/zsCNCwzevIjb+SkD186RSiVJJuLUNK7u/kzBPXY1O6ivyc6AjYyM8PbbbxeLrArLHnG1NlbT2jj3VOFiyK45eeT1rJDfizFnhKHRGUhEI7kRiB6NVl+wPqXWGrPGHfbaZU0fPjvPvoQH4deOzP9PY69rprP9Tdk4JBTw4nM5s0YksQiOrXtxD/fm8mMjODWJRmskFPDS1HYYn3uYeCxCPBrBNdwrj7h6L7ez68gzWOwOBrsvotEaiMdmm9fbLCb271gZBb1ahAJeBrs7+Ppv/4D6ln18+bnfZ8eh42zZdZhfff4PaNp1hEe++s/ZeejrHPra/5OP3n2lOAl5JD7fdTHxaHjB+wsxc5uGYGUIhwuNMq6dPUFd6wEeO/4Cux5/mua9X+bLz/1LGnce4pGv/jMe/eo/w7HtAL/67T8gNOVhONfZnUmxEVPxdTE+l1NevlgKy539ESyOZSsugP/6uSceeLpt15FnOHDsN2lqO0zrgWPsf/J5Dh//Lo6te7BUOth15GlaDxxj1+PPYK9rySownZ6mtsNsaTtE64FjtB44Vpzsonn2yX0P5JliPgw6Df/s648VRwPgaN7LriNP09j2OBa7A6PZSm3zHux1LZTnr7fuwdG8l6Dfg6N5D2qdHkulA7U2OzUoASazFY1WLxu1tB15JmtxGIvQ2HaIeCxr8FLMQp5CVmKtYiW4eOp1jv3T/57glAdbTQOu4T4q67bKVTWTM8AZH7qNvX4bJWUV3P30ekEanWfepKezHXJroqde++GCDZWz/xqDC+w7vN3ZLk/tziTk99J55s3iaMEK4vfcxTdxl11HnuHOzYvUtR4gEY2g1urIkMFWvRmXs4+mnYcYHbjOoa+/wNX/cqIgjZDfy+k3XpLrwEB3hzxtPx+dZ94kMUfnL8/FeZ4fXKKlr+DBWPZU4XPPPUfL1iYObK/nyidDyzJhVarUs4JGZyi4ttU0Yq9rmXXvQShebF4pttRVAsyaMjSZbZit1Wh0BkxmGxU1jZTbHZjMNvTG7NSo2VqN3mjGZLZRbndQUdOIyWzL5n1TIxa7A3tdC2ZrdUF69roW9EYzZmv1nFMlzz65j6e/vLs4WubP//zPi6NWjZlThUNjkwVThc7+q6RTKQa7O9AazYzduQWAy9lHIh4l4BlnetJFIhrGPfIpwSkPZXYHZmuVnMZgdwcB7zgN2w4yeucWUzkDoZH+6/RcPsOtS7+gYdtB3vnLF/GMDaI3mUklE7iG+3AN9xKPhun68Gf0XzuLva6Z6x+ewOcewWS2cvqNl3AP99F/7SyO5r04+69hr2vh7ImXZeUX8nv45ft/y2B3ByazlZH+69y8+J6c3oNOaT9sKiwlazNVeOGW3I4kohEGrp9HoVLjcvaSSibwjg0Si0ZwD/eRSqcYG7wJCiV3P71OKpViyu1k696jcnqJWARnfxch/yQN2w9yJdfZqGncyYcnXmak7xrRUAD/5DgXT73G9OQYkVAAi93BxVOvY69r5mxOzjM6iFKlpqezHbXOQG9nO4PdF7l29h1AIpVKoNEZZtW1rg9PcOvSe/Rcbqdh20E++vkrDN2+jGd0cM7/143C/u0NG3OqMI/NUsKf/evf5A/++VN89fEdtG6uXnSwlZUsOtRU2ampss+KXyy2shK+tG8rf/Q7x1dFaeV59tg+fve5J6h7yA59DToNv/vcE6ua15XkwLF/irOvi1Jrdvq50pFtKKsatgNgsTtQafWUWKsYHbyBo3kPjq17CtIAsNc309PZzmB3B41thwGobd6DxV4LuV44wNFn/wVqrYGB7g58Lie7jjzDjfMnKbfXotEaGOzuoLZ5D41tWSvI8so6jn7r+wXTixqtntrmPRjNVtzDvfR0nuHAk89z6PgLGM02Bm5ckNMb6RMm/EuhpNzOri99gyvtb1K7JfueKxzZZYWapjYAqnMNv6Wqgd7Odg5/ffaZUPkZCGdfF0azNdd5tLLtwJMYy8px9mdH1I7mPex/MmsZ13HqNVoPPEnI7yXk92Cx1+Ls78oZhNhoytWr1oNP8tR3/lXBSMte13yvrgW8+NxOnvrOixz++gv43E45vcHujgeakvyis2xz+IX8zgmyhKMxhh7Aj+NyT5SusJjYtsj1x/r6tTuReGadOXeln1fePltw/+Kp12hsexx7XTOJWIThnk4khRKA8LSPnYePA3Dh5z9mz5eflddE85x+4yUOHHueD9/5q9y+vqzl2WB3B4ePv0DnmTdpPXCMjlOv8c3f+xMGujtw9l0j7PdwKHf/0PHvynvmRnKNncls48b5kxx99vuceu2HfPlb/0Jes8xbQY7k9pbllWV2w/gZOb38FO9GZNvmav7od7Nlzyqaw//h//ImnqnCjfI/+0//hm/+3p8AMP7ZJ4Snp+R72Y7DXkJ+Lx2nXuOp77w448lsJyWvhC6eep2v/fa/5+Kp12k98CTO/mtsO3iMzvY3aWw7TMjvYdeRZzj9xkvUNu9hpO8ah4+/IKfr7OvC0byXU6/+kOO//QMunnqN2lzHabD7IhZ77ay6tuvIM5x956/42gs/YPDmRSyVtfRcPsPRb31fTm+j8rvPHeVL+7fCRjOHF9wfg07LtsbqJYf92+t5Yv/WBw6LVVrrk2x/KhGLoDeZaWw7TGPbYSTp/lXW0bwHY6mVXUeeYdeRp3Ob2204mvdy/fxJLLmN246t2QbDZLbS1HaIQ19/AWd/F4eOv8CV9rcY7L6ARqvH0bwX93CfnP6VM2+y7cAxjKVZLyyNbY9npxmdvVTWtdB25BkGujsY7O7AYncUpbcxpwnXE8Ept1wfGtsOE4+FikUKUGv12Ouasde10HrwSUxmG/a6FnmrzqTLmfPMk/XiQ64ONe08jKN5D/FomMa2w5x952V5pN606zA9l7PrqC5nL4PdF9l/7Ntz1jVjqZX9Tz6fde+WyWCva6G2eU9BeoKlIUZcAliXI67D2OtaCAcmmZpwUtOUXZ+7dfEX7Dj06wCc//mP2TvHiGu1cA33MtjdwaHjLxTf+kKwXkZc/dc+ZOueL8v3BrvP09h2ZN4R12oys65+EREjrs8xtwfHOHelnxPtV+Vw7kr/ssOVT4ZkVzxzhTk3cm4wFupVrfVWU3tdyxdWaa0r1tHG80PHX/jCKq2HybJHXL/4xS/Yvj27cC4o5PbgGD87c3XNfLzNxf3O0Mmz3kZclkoHFnsd4Wkv0WCA8urNIMFntz6mYfsjgMT1cz/j8ae/t2Yjri86D3vEdfj4bwMwNniD6qZd2RuZDO7hHirrtxGa8jDQ3bGmI64vOht2xFVaWlocJcg5jv3RK6ceqtJixhk6/8Nf/uyhn6GzWLYdfAqf28lg9wXGP+thyjPKYPcFBm9cIJ1KMtjdwWD3BWybGoXS+oKw/eBT2TrQfYFIaJrBG9n6MNjdQdA/yeCN7CkKOx55svhRweeQZY+4Lly4QG1t1uxTkGXCN81/97+uv42p2xqr+aPfuddjnsl6GnEJ1icPc8QlWJ88rBGXUFyrwFI9xK8lf/Q7x+e0NnzYiuvG+XeFhdU659ChR/jr//PP5OvVVFyj4y55o7Bg/fKXf/4Sv/6r2f9lobg2MAuNtrIHYs6/kJs/4oWcbH7vUP54GGac+nw/fC4nFvts7/HzjboetuLKH98iWL+0Ntbwoxd/S75eTcXlmZomJHz+rXv+xf/j13ny8azFr1BcG5jbg2P86JVTxdEAnD3xVxx99l9Azv+dRpt11TTYfYHa5r2ce+evOPadFzGZbZx69Yc4mvew68gz2aNe+rtoans857HBi2PrHlmZqXUGQlMe+QgUn2uYkf5rc1rAGXQa/s//973GJ8/DVlyC9Y+YKhQU87CmCpdtnCEoZGKu86VyxHOns7qGe5Ey4M4ppKDfi5TJnsVlMtsI+r05f3aS7FbI5xrB2dfFQHcHGq1ePrtssLuDkb4uErEIN86f5OKp1xb0hbccX5ICgUCwHhCKa4WprykvjpIxma1cPPUa8WiY8eE+MoA250lh0u3EaLYS9HsI+T2YzFZcw71otAY0OgONbYfYdeQZErkjTWqb9+Ia7mMyd6yGMXesi72uWfa7NhcP6sVfIBAI1gtiqnAV+K//x5+s25HNl/Zv5Xefu+c5O4+YKhTcDzFVKChGTBV+jnh2HXtiX8lDMwVrw1D3WXov/Zwp12f0Xvo5A1c+IBmPFosJBF8YhOJaBb76+M5lnQq9Wqz0oZmC1edu78e4Bq8DEjfO/HV23dM3zlD3OVnG53LiGu59oNOYxaGHgo2IUFyrxP/wO8cXPHF4rVno0MyVmO4RrA5Bn4v6tqO0PPYM+379d2h57Bnq244S9I3LMh2nXiPo9xKPRYhHw7iGewn6PbIim/k36Pdkt1fkPgf9Xm6cf5fr508WyBR/FgjWE0JxrSL/7OuP8Wf/+vmCgzXrqq2zDsF8kLAYbGt0aKZg9dAZyxgfvA6AyZI95dnvvndidJ7snqcMgzc7CPq9XGl/i57OduLRMDfOn6Sz/U0m3U4unnod13Av18+fJB6L4B7uJQNIZLh9uR2Xs5cr7W/h7OvixvmTjPRfEwcdCtYdwjhDwMjICI8//nhx9KohjDMWTzIe5covfkxV427q245yt+dj7vZ+zK5jv4XOWAa5gzPzjmU7z/wUo9nGSN81dh15mp7LZ7IHIvZ3cehr2YMN7XUt8oGJF0+9RmVdC5DBPdyHWqcHoLHt8ex2jb5rHH32+2h0BmGcIZiFMM4QCASzUGl07D72W4wPXqf30rsMXP2A7U98W1ZaQKGHlEx29FVur8Ve10I8FsZe18yuI8/QeeZNLHYH5XaH7KGlLHftGu6j9eAx4tEI8WgEjdbApMuJWhx8KViHCMUlEKxzdMYydjzxbbzOHpr2f1WeMsxz4Mnn730+9pscePI32f9ktuf7VM4Ti6XSweHjL7DtwDEslQ6a2g4DyNeHj78g/z18/AVMZiuHj7/Al7+VHW0JBOuJNZ8qDEVjXLk1jMc3/1TASli+VazQRtuVSEev12DUaYuj1w1iqnBjkExEUal1xdFrhpgqFBTzsKYK10xxrYdDFTc6Bp0Gg35hBVhhMfGlfVtpbaymYpEdAKG4BItBKC5BMQ9LcS17qnAxSuv9CzfXxaGKG51wNI7HN71guD04xo/fPsd/97++yc/OXC1OQiAQCDY8y1Zc9+PEmav8zd9fKo4WrAEn2q/y4w02mgn6vZx95+U5N9O6hntx9nXlPORn9yPlr/Py+Y24xTLM2M+U3+cUj4Zlb/t5mfy+JWdfV26fU1Zupkw+nWKZSbdzlsxAd8e8MvnvysvM/H0rkc/878vnc6PS03mGjpyPz2LWU/luxHq0UVGazeb/UBy5FP7wD/+wOEpmwjfNX/x1e3E0yXgU5ycXKLM3yHF3ez5GoVSj0S9/TUlwj+GxScLROLua5x8ZBwIBXn311eLoVeO5557D4chawg2NTXL1k3v7kgZvdtDT2Y5SraKmsXADd2f7WyRiYXo6z1Bud+AZvUNg0sWtS+8RmBzH0byXi6deJxLyc+P8STY17mTgZgfR0DQ3zp8kEvZjq2nk2ocn8Ize4dal93A072Ggu4NUKskv3/sbomE/Zms1fdfO4nM76frwBA3bD9J9/iQKtZprH55AqdKgVKtx9nfhuTvIrUvv0dR2mJ7L7cRjEa60v4mxzEYiFsbl7KW/6xyD3R1sO3iMrg9PEA356frwBHqTuUDms9uXad57dFY+R+/cIuSfLMjnlfY3Cfo9C+az+/zJgnwu18iiwlLCl/Y3y9evvvoqgUCgQOZBKC0t5Xvf+558/f6FWwW+Pj9+728Yu3OLHY/9OkqVWo53DfeuSfk2bD9I37Wzs8q3p/MMruG+DV2Plsv+7Q3U12QdfI+MjPD2228Xi6wKy17jGhqavRkyz4//7iwfXe2Xr6PBKbwjvURDU9zt/SX1bU/I98YHb2Cy2DFZ7NgbdxeY+wqWz3wnH7MO17icfV3Y61qW3dAKVpaHtcYV9HsJ+T2LPkRVsHZs2DWu+QhH4wVKC+CTc28x5R4iGvIDEA1NySEVj5CMRwn6XNxo/2vhRHSF2UjrXY7mvUJpCWRMZqtQWoICVk1xDY16i6NIJGI07f8KLY89g7W2hZbHviGH+l1Hadr/VXY88W2ioSmSCaG4VpK53odAIBBsRFZNcc13EnBwcpygb5xNLY8Q9I3LIy5rbQsqjZZoaKr4EcgdtHj6jZc49eoP5UXJmfjcTm7kHIUuhng0TM/l2etvn1fyFokCgUCw0Vk1xTUXsdAUA1dP03vpJL2XTnLr3N9xvf2vud7+1/zy538ph7k4+85fcej4dzn6rX/BjfMniUfDDHR30Hnmp7LFTCj393ZnOwPdHbIVjbOvixvn35Wtf253tuNzO3EN90HOGicv7xruxTXcy6R7Y1vdzMV8nQmBQCDYSKyp4gLYfeyf8+g3fn9WeOI7/14OxYT8XkxmWy5YOf7bP5DvObbu5fQbLwGg1unpPPMmUiY3oupsZ6T/Gi5nL/FomMHuDjrPvEnI78HZ14VGp5cXfn2uYQa7Oxjs7sDZP3tEJxAIBIL1wZorrgdBrdXLoylyI6R4LELP5faCkZFGayARCxMMeEjEwlgqsybXjq17sdjriMfChPxeth04RtOurBWdzzVM0O/F5x4hHsum79i6l/LcswKBQCBYX2wIxaXRGWg5cIxTr/2Q02+8RMifVUwAiaJNiZWOFkJTkwT9cxsj1G7dQ2f7W9zOrW/53E40Ov0Xwgv2fH4Xnc7P37SoQCD4/LIhFBfAtoPHOP7CDzj67PfZdeQZLJUOnvrOi7QeOMZXvvMi9roWWg8cY9vBYxw6/l12H3kaR/Ne9j/5PJZKB46te+T7rQef5MCTz7P/yefZdeQZHFv3cuDY8zS2PU7rway3bIFAIBCsTzaM4iI38pq5vyd/nT9bKH+vOG5mAOTNrTOvTWYrJrMVS6VD7CESCASCdcyaKi5jmZ2BKx/Qe+nnDFz5gKHus7NC78V30RnNwnOGQCAQCOZkTRXXjqPfxmSxozOWodLcO54jmYjJ+7lUWh3bn/h2wXOCLw757Qp5x6HF9/IGOnlCRXKLlSmmOK74eq64udJdbzKfBybdTga6O4qjYZ48F+d7NWWKKY4rvp4rbq5010pmo7Jqvgpn+qBTKiCVhkzMTyIWIYNULA5AIhYBKXv8OEAmnSCTSqJQ6wFQqNSoVKr8bVluJqlUknQyQTIWQaXNPleMUqVGoVRlvytPBpAgEQmjUKlIp1LZ+Bm/R/6c+6vSGgqSSCXjKFQaOS6Tz9MCKFVqMoBSec95aDGpVIJ0Kil/dwaQ8r8j92NUmvtPb/7V//hfY7dZiqPX1McY9/FVeOP8u9w4f5JdR55m15FnZjyFvO3BOMMF0GB3B0azlUQ0wtFvfb9AxrF1D/FYpEDm0PHvcvqNl7JTxVoDrQefZHy4F/dwH0azlZDfy9Fnv8/ZEy/L33vo+He5cf4kiWgEtS5bp3YdeYZz7/wV6ty08tFnv8/FU69D7r2byspxbM06ay2zO/C5nBz/7R9w9p1sumqdPjtlrdUz2H1R3prx1HdeXLV8Ltdt0sPyVXjq1R/iczs5/sIPsNjvrT+7hnsXVb49nWew2GvxuUZWpXwBdh15elY9OnT8hYI6UlyPNDo9rQeekmXi0TBPfefFeeuR0Wwj6PesaD6Xy8PyVbgmikuRCqPUlpBI5pQBQGwKtUZPPA2KdIJEIo5SrUOhMZDJ/6JkhHQiikKfbWxT0WkkpRopnUBSa1BmksRT2YZbo9aQku41/tHJYXTldfK1IpMmHvKiVGtRaEvIpBMkY2HUehMZVLJcaGoctc6ERpe1wFOQymkKBUopTSTkR6MrIZ1OIqm0ee2BJEn4x/oprdoip5VJRcmkUqi1etIZiUw6haRUkcnIWgeAeNCDrsR6L9/kFFQygUKpJJ1OIylVkCnUoalkDCkZRtJly0fK3ZUkBXJiM7ToS//6n855uvRaVjjuo7iCfi89nadpPXAMU26dMk/I78FotuFzO7FUOuTeZDwWQaPVo8n982t0hgIZjc5A0O+9r4zP7cRYapVl4rGIvK0iL+Ma7pXXQe8nkyee67yYzNZF5WEumcXmYSGZ5fKwFJezrwuf2zmrIzOz7FgH5Vv8/vMyC9WRuWTyv2+uerRQHhYjU5yH5fKwFNeypgpLS0uLo+YkGg4VKi0gnYyRioeJR6ZJhH1IyQjhSScK6V6DnikaVKlUEqQixKbuEpocI6PUE5z4jJhvBClVNCQvUscZhYJUMk4imSAZj5KKhYj6RlAUjJkAJFSqGdOY0SCJsJd4YBzf3R40SkhEAiiUakIeJxkkMkhIkoTWaJavM0ikYhGS0WkS0y5i0x48d/shkyIe9hfIISlJoygISoUKopOoSCElg6SCbhKJOBkUZHIy5D7fi1OSTmeI+0eRFErivs9Ix8JEJp1kJGVBLtcrJrOVA0/+5iylBcgGN/l/Zk3OwMZkziqbfFyxDLl07yeTb0jycXljnZkyM73W309m5u8zmbNHPywmD3PJsMg8LCSzUXE0752ltCgqu/VQvvnrpdSRuWTyv2+uerRQHhYjQ1EeNiqrprgikZj8WZqhjMgNApKoSCdiZOIRFGo9Cn1Z4YgjJ1cwFZfKkAr7QFOCWq0hGpxEozNirGhg2js6QxIUqnujKMgOQJQqNSq1jkTUj4I0an0pyWSyQE4ig1KtuXet1pFOhEklQujNdpJpSKfTkEmjnmcqMk9aoQKlllQyTjIRQyFJpJP3zhlaEAkSiThpJGLhIMlEolhibiQFqQxEAy6S6TTJZAyFxki6uHAFAoFgg7IsxbUQoRkHwWXIoJDuBUnKoDdZUZZUYbTWojZaUWkMmGuaSWfSSDkZ0qnsmlHuWqUzobU2YiivQVdWjb7EitFWB0oNxqpWWU4ig2rGgXN5VKZKFBojBnMVSoMVlbEClIUKrlBVgqTUoiqpQW9rQmkoB7URtbGcVAY0pZUFssXDPJXGiNpQhrqsFl1ZNZbqLaSSSTTG2etMxSRTGXQWB0lJjdJkR2WwoChaByuccJyBQoNaq0dn3QIKDSrd7OlBgUAg2KismuKaSTQ4RWxqjFTERzrqJxb0EZ325sJkNgSzf0PeETkEPMNMTzhJ+keJTN4lPDlCZGqceNBLPPd8bDr7Of83EZwk6h/HP+EkMukkMTVCfMpJ3J+9jkw6CXmdRAPjkAyRjvhIhTykwl5SYS/J8CTpsId0xEN0cpjI5DBRvyv7jO8usYCbyNRdon4XYa+TVNhDMuQhHpwgHpwkGcpeJ0Me0lEfybCP8OQo0alRIv4x4uEpwt5sutngJDw1TmJ6gmTIQyr3bCI4QTQ4SSLoJR2bJhGZJuq7S8Q7LIew14nf4yTsHSbsHSYRmiAZ9qJQQDweJR6aIJ2KkowGSIQmSKUKR5cCgUCwEVkTxaXWGjDb66itraW+bhPWSjtqk7UwGLPBUO6QQ4mtFktVHZW1m6nfvIW9u3agNVehMtpQmWyo5wgqoxWtuRpzhYMyez21DVtoaGqhyrEFfblDDpqSKpQGWzYYbSgN1uwoTG/BUlFNY8Nmduxso7ou/1wdOvn5OjkdlTH7vdqSCrQlVuzVm9jcUE9dXR1mazVqkxWDtW7hUFaFzlzJploHlsoaajbVoinKl7asGoOtbkaox2hzUFZRj7F8E0ZLFRpTJWpTBWpTBZoZIX+tLJo+FQgEgo3ImigugGqLlkwGEikwahdpKJDJrk1VWfRo1Eo0KgmVcs7JsTmRFBIlBhXxZIqK0nvrVvcjk86gUSsw6ZQYNAsXUSb3GzM5S5IMGcKxJBIZQtFkwf25Q3Z6MZXOoADMBhUWkwZJkuaQLXouA5lMGrUiTXTaQyaTmUPuXig2WBEIBIKNyMKt8goy5A4z4Y/iD8YZ990z3LgfGWDYHWbUG+bW0DTJ1GJb3+yGp6lQgkgshXNi4f1UM1EoJALhOIPj0wTCS5hek6DMoEWpVDARiMlK6f5k0KoUlBhUhKIppqNJ0ot8NAOkJTVqrbH4lkAgEHwuWRvFJUkkUxkSyTShaGLxDboEqVSa6UiCVDpDMp0ulliADNF4Co8/RiiaJBxbvAKaCiUYn4wwHU4QjC7+OTIwOD6N2xchnljKb4VYMk3f3Wkmp2OMesKLKqN0Opkt2zQo9cJFlkAg+GKwNorrAZHmtplbXZbxlfdXNXOTiIazU3lLJJNKyq9wMYpOIBAIPg+sa8X18HgwJRAJ+YujFsdDUJYCgUCwUVnXims5jXLeDcxSiYWDxVGfG+Zy97Qe8bnEwZaCe8Sj4TmdLgu+uCjNZvN/KI5cLKWlpXzve98rjgbg9uAYPXfGAEjHw6i0c5++uyDJKCiUSMrFWwTmSUb8qPTm4uj7Ep2eRF9aXhx9XxSSRHR6Eq1p6c8mItOo9fN7IZmPdDLrjSPrM/H+PHtsX3EUAJcuXeKDDz4ojl41nnvuORyOrBuaobFJrn5yz9/lQHcH//jWX0DO5c1MOk69xkj/NeKxCCG/h2gowMVTr5OIRhi9cwt7XQsfvvMyY3duEvJPkkol8Lmc/PL9v4Wcg9Gaxp18+M7LjOZklCo1ntFBfvn+36LR6hm6fRlLpYMzb/0FPpeT0Tu30BvN9F87x43zJ3MynRjNNj488TIhvxdn/zXM1ip6Os/IMmODn6AzmTn9xktEQwGc/dew1TTS9eEJbl16D41Wj2f0DhqdQZYZ6O7A0bx30fnM52Gx+dSblv7/MJMKSwlf2t8sX7/66qsEAoECmQehuB15/8ItwjMcGLz3kz/m2tkTNLUdLnBVFPR7V6R8A95xfvn+35KIRvjs9uVZZbfY8l3v9WiufC6X/dsbqK/JutsaGRnh7bffLhZZFdZEccUCE2TSCVKxEKlYiLDfTSw0NW9IxsJkklFiQR/JWIR0KkEyFioI2U3MHmIhXy5MEQv75TT8E06USgXpRNYv4Xwh7HcTC04RC08RC04RmnJl/Qnm0omHpiCVIBULzxmSuRD2uwl4RiCTJjpXnuJhUvFo7veHZ/wNE532AhAN+Qj7PdkjXoJzh3QyQSIaIhENEQtnve2nkslsXCxMPHdvVoiFef74l4reUpZPPvlk3SguSQLP3UEath3EbK2e8VSW+u2P4B7uzf7TSRIN2w4SCQUwma2YrdUoVSrqtz+Cf3KMms07ScQitB44RmBynJqmnSiVakxlNhzNe/FPjuFo3ks0FGDXkWfwjN7BXt+CRmvAtqkRe10LkZAfR/NeAFoPHMPnHsHRvAeN1kBN4w7I+YCz17Wg1hlo3nOUkf5r1G8/CEg0bD9IPBZBbzRTsakRpUpNY9vjjN25iaN5T4GMyWyjPOf9fDH5bFhiPpfLw1Jc0ZAfkGhsO4xyhkeceCyyIuWrVGvk8jVbqxZdvpYqBzWNOzdEPWrY9khBParY1DinP9Cl8rAU17K8wxd7dZ7Jifar/OzMVQASQQ9qlQpJrSOj1BWLzks65kepUJBOJkFrQlLMduM0H5HJYfTldZAIg3rxDiV9Y59SXrOV2PQEWr2JjFJHkavFOVEqJCZH+zFbN4FCPcuVVLHfxZkEvU5M5dWkk3GUasOCU6Qz04hH/CgUUm60JskGGslkglRitk/EN/73/7Y4CoC/+7u/48UXXyyOXjUW8g4vWL88LO/wgvXLhvQOvxQktQbSSzAtzyMpkaQ0S9h3DPkGPhYgPu0qvrUwucZfoVCQSmYd2xZv5J0vSCiIT0+QScdn3UtnIDVPyJA1aY+HJkml07PuzwzJGSGVSzcanCQ0cYdkGpJpQKFGqTXOCgKBQPB5YG0Ul5Q9HuRB1qpSqThkMix63/EMFBoDGn3JokZMxaiUClSKpe3FggxqtRKVYulfqFCqMZRYyEiLfyX5b1GQRm9a+hqZQCAQbEQW30ouhwwojZWkFUtXXJKkAr1tSdOEedKSCslQkR9ELYEMkq6MtHppi9npTBqppJakYuHjTmYhZfdhJZVLHxUpVSokvWXJv1UgEAg2KmujuB4iD7ox90EeU6l1D/R9Gk1W0T3Ao7k9A8oNc1CkQCAQLJdlKa7a2triqBVl6RNuy0elXpxpeTEKiYIDKNeMh1FIAoFA8BBZluJaCI/v4VkFKaTsUSoPgkqzeKtHgUAgEKw9q6a4CnmwYUEmnVz05tqV4kGm+pbNgxWPQCAQfCFZE8UV9LkITnxWEMK+7CnC84WY38W0Z5SAe+ZzQ7P+hidHZj0bmRon5HcTC7iIBVwEPUPZMDHEdC5k07gXogF3NgS9RAMT965nhGnP8LzBPzFEJOAlOu0hUhSigQkigQmigQnCvjGmPSNMe++FgKcwLhLwZsP0/YKPcGDynnzASyTgyQUviVi4IAgEAsHngTVRXLqSMsyVmzFVNMjBYNmEzmyfN2jNdkpsNZRU1mOqaKCkcrP82VRx76+hvHbWs/qyKgzmSrSl2WuTrT4bKuopyYVsGveCvsSGvsSGzmRBl/tcHEqttfMGc0U9hhILepMFQ1HQl5RjKClHX1KOsaySUms1peX3Qkl5YZyhxJwNpvmDTm9EpVajUWvQaLNBrdWg1mizQatBkUkWBIFAIPg8sCaKSwEEPXdIBd3FtxZEApQSJAJjpCMekoHxYpF5kQCVlCIV8ZGevnvfvVwZSZHbQ6UASSId86PIxCA2Kd9bMCCBpCQVnYJ0gkximoyUtfa7X5AkZfb04lSMdCpBJp0kI6kWDJJKh1pnQqU3odLoUWsNpCN+1BodKl0JKm0JSl1pQRAIBILPA2uiuDJIlJaVIymXZrKdyWRI5zxLKBRK1NrFrnfl1qkUaiRJQSq9kMOlQvJSWW8WEqoZvtEWQiKDJEE6HkGh0pKOhYpFFkSpUEAyQjo0Tiq2RA/1iQjpeAidRkkqlSq+u6Fw9nXx5p/9twx0dxTfoqfzDD2XzxD0e3EN9xL0e7l46jWCfg/Ovi5ZZqC7g6Dfi8/lJOj30nnmpwT9HgZzaeZlfG4nQb+HSbdTlsl/743zJxno7sh9jwfXcO8smc4zP8XZ14VruJd4NIyzr4vOMz9l0u3E2dcl/z6fy8lAdwfxaDjnQPXdOfOQT3e5+SyWyedzo9LZ/iY/+0//hni0cLq7uHzJ5XmtyjdfRx60HuXTWWo9Wsl8blTWRHFBhmhSgdKQdca4aHLDJK3JRkZlIslizc2zz6VSaRRaE+oS26KNLvJSSo0RKZMilVEuSuVlyLpfUhstxKNBkplCX4ULkU4lyEgKVFoTKoMN1SLdM2UySZBUKNQaFEoN8bQCFGv0SleJeCySXZOLzj6WJh4NodbpudL+JkazFZ9rGMfWPdw4f5KQP+uoOL8Z7kr7m6h1+pzMXm6cP0k8Gs42fpkM8WiYGx+dhNwxKo6te3Me2LMyJrOVkN9Dz+UzmMw2fG4nTW2Pc/HU62i0eoJ+L+WVdfjcTnoun0GjMxAKeGlqe5wr7W8CkIiFsde1MNB9gZG+a2h0BuLREPa6Fi6eeg1j7jscW/fQc7mdRK5hniufjW2HF53PkN87Zz43Kj63k0Q0Qrxonba4fMmV3VqVr0arJ+T3zFuPgn7vgvWInPItrkd5mbnqkXu4d8F83jh/cmn53KAsy8nuY489xptvZgu3mB//3Vk+utoPQHRqFF1ZTbHIfUlHvEjaEqQletxQSFnHvkrj0r0fh6dcGC32JW8GltIJItOT6Mz24lv3JTzpxFCe9ea8FOLTbrTGMjKLLJ+//uP/qjgK1qGT3Xg0XHB8hWB98DCd7Io6sT753DvZXVsyC3pYX4hYZPqBTrBMJuIP/q0P+NjnFdFACYoRdUIwk/WtuJY67JlB8Xz46vPgv3UtsFnmP8hzevrhbRYXCASCpbImiktSLM0o4x4PqgykRa1LrSjS4g1AZnE/k8dVZiUOAxQIBIK1Yk0UVyzoIzI5NGeIT42QDIyRmBGSgXESgTHCPhfxqXFi/rtEvLOflYN3iMT0GInpcZLT4yT8Y4QD7nvpTWdDYto1I7hzofBzOjZNOjpFJjZFJjqV/Zz7m45OkY75SccCpKOB7N9cSEWnSUWnSccCkAyjSMcKQyYX0lEU6ShSOiGHTOre56UEUgkkUkiZ9KKCQCAQfB5YE8WlL7WhVGrQlVZiMJoxWuvRl2eDpqwWVWk16hlBVVqFurQao6UKXZkdlcaAoawKpUorP1cQrPWoS6pRl1ShKqlCba5GX1qJprQS1AZSGQmFrgxJZ54RSnPBjEJXiiL3OaPQklbqSCTToNSSTiXJKDSkFVrSCi2ptIJEIkkimSSRSOVCMncAZJpIYJJ4OEDY7yESDt0LoVwIh4mEw4SnfYSm3IT8E4SnfYT9boLeEcL+CSKBbHxkepJY2D9viEYCBL1jhH1OQt5hgp4hwlOjhHx3CflGCflGifjHiQUniAU3thWRQCAQ5FkTxZUB0uk0mXgQrUZJepEnIWeADAoUkoSkVKLWLu2cK7VCIh0Po1elSUYCqNS6OYMyF7Kftdl4KY2CJIpkGDJJVBp9dqOvvgStqTwXLLlQjkZfilZXgrnchl6VQanSoC+xzpAtDHpzJYbyTRgsNRjLKtGZLJSaLZgt5aiUCgyWGnRmOxqTbd6gNVkxWWsxltkxl1kwV9SgUGowlDswlNdmvYqU1aApsaMpqSguHoFAINiQrInikgC1sQxJW8ZUIARLOOUXMkgqPZl0Bkm9NMuiJEpUOiMpKetlYnFk19UyKiNqvQmUGiTlIjY+S5AhTdDvJaXQQCa5JCvDdDJJPBYlpdCjVC3OvJ3cr41HpklLKiI+F3qzUFACgeDzzVI0yAOTyW/oVarRmauW8LW5pl+lJaNQwxJPQU6nMyi1pUj6ciTN4jb15lFq9MSTEgpT1SI91EsgqdCV14POisZcvWijSKVKjaQ1gt5KKp1B0pUXi8yJUpkrD7WJJGoyeiup1CK/VCAQCDYoi9UggvsgZUA14yDJxSotAKVKhUKhRJl3L7VIK8O8lEqjR1Jq0OiMSBvcc4ZAIBDcj2W1cg7H/N4ewtF4cdQDsLgGfDaZB7ak1+pLiqMWhSSB8gFPTxYIBALB4lmW4lqI0EoorkwaSVr6HjAJUD3gTvsHVZWClSHo93L2nZfxuZzFt5h0O/G5nMSjYYJ+j+yQNB4Ny/J5Z6bFMuR8yRXL5ENeJu+MNi9zLy3vrHSyDlCXJjPpduLK+ZvLf1deJv/MauVzo9LTeYaOU68VR8MKly/zlN1iZPLhYdej4jpyv3xuVJRms/k/FEculh07dvCVr3ylOBqAj6724/FlvZwno9OotIs1jrhHJh5A8QDHcSgkSMYjKDVLV17JaGgJhhwzSCVAkpDy605LIJ2IoFii4QlAJhFFodLAIpS7Qa/h1x7fWRwNwKVLl7h06VJx9Krx3HPPyaP1obFJrn4yJN8bvNlBT2c7SrWKmsbC3/vxe3+bdWp6/iRmaxUhvxeXs5eezjN4Ru/QsP0gZ995mcDkOF1nT1C3dS8DNzuIhqa5cf4kkbAfW00j1z48QWBynBvnT+Jo3kPftbOkUkk+ufgegckxzNZqbne24xru48b5kzRsP0j3+ZMkUwm6z58klUqi0Rlw9nfx2Sed9HedpantMLcu/YKQ30vXhycwltlIxMKM3rlJf9c5Brs72HbwGF0fniDk99D14Qn0JnOBzGe3L9O89+ii8nnx1Ov43M4l5XO5bpMqLCV8aX+zfP3qq6+uyOb10tJSvve978nX71+4VTBj8/F7f8PYnVs0tR0uyINruHdFytfnHsEzNsitS+/hnxzH0Zx1lLvU8p2vHo30XefWpV8U1KMr7W+i0RlRqtUrWo96Os/I+exsf2tWPkfv3KKn84ycz+Wyf3sD9TVZ5+kjIyO8/fbbxSKrwrKc7P6Tf/JPeOmll4qjAfifXzlFz+AYAFN3b1FqyTqfnW9Ek4jHScSjBXHRgBu9uVL27K41ZJVYZt50ssegKKQM4YAPXcncRg5aw/zTgcHJMYyWatL3WaRSq7QoNffWtFKxIJIkoZhhBJJOL5xGnkTIg3oBh8DzpZOMTKLWmhblZNdqMfG//6vni6MB+PM//3P+7M/+rDh61bifk11nXxf2upZlN7SCleVhOdkN+r2E/B7sdS1ynGB98Ll2smsosWIwlWIqq0BfUoYmtzl4ZjDaaimr2VIQbNUNmO2bMdtqKKvZir6kHFN5FSXlVZhmBkv+czUavQmN3oRWX4LOYEJvMKJWq9Ho9PI9RS7jxUHKWfhlknHSsSCpWIh0NEAqGsyGWC5Eg0SDXiJ+FxH/eDYEJgj5xoj5x4hMjRKeHCHkHSYw/umCIeobIRKYIBF0k8yF/OdELoQ8g3MG//gg0+5BYv67ZCIeiHgg6iET9ZCJenMhdx3eOOcxOZr3CqUlkDGZrUJpCQpYE8WVTqeJhKaJh6eIBDzE43ESyfR9QyqTPZ8pFQ+jSIYJ+SeIxlOzQ+LeZ1QGJJUBSa0jlUoRnhonGZokgxJUBlAZSCn1c4a0Uk9G0qDQmZEkBTplGmUmhsZUgbqkErUpF0qyQWmwoTRUoDRUoDZY0ZhsKCQJjVpHJpVAZ6nFUNG4YFCV1qAx2lBqS1ArFai1uqyZu96GlAt66+Y5Q0nlZkwVm1FrDSiUKlLpJCmViYzWSkZbngtWMlor6Jd4FppAIBCsU9ZEcUGGRNgPCjUqtXbRhzoCpJNxlCo1kVCAdCI+zxThXGRIRqcxlFWhL7MTC08VCyyIUkpm940pNEiZRXj6kCQymQypVBKFvhSVwbokk/h0RiKRSpOMTM+aMp0PKT9tqtSCJJFOp0mGl7/mIBAIBOuZtVFcGQmNtZGkwkBKY0GxBAMGpb6UhEKP0lSJ3upYtJW7BKiMNpJoSSr06MxLO8gypSwhrS5BYawgvZiNz5kMCoUSSVNKOg2odMUS85JKJkinEtlN0loLCn1ZscicpJIxkJQkYyEyCi0ZSY1Sby4WEwgEgs8Va6K4FqtsZpNBkhRICjWZDGSWNN4CSalBUqoWZXVXjFJrJKNQk5FUxbfmJBqeJpUBSWMklZGWdJRLKplAoTGSUerJqHSLczE1A6XRRlqhRWW0Za0MBQKB4HPMmiiuJeibIh74QVLJRHHUoohFph9c0T7ogw+ezUVj0AmFJhAIPh+smuKqKJuxF+oBG3SJ9JLWiWbyoIprOUrkAX/qA+dxKRh184/iVmIvjkAgEKwVq6a4WhvvrSnN9OG3FB64PZceXAE94GPrHlv5/JuqheISCAQbiVVTXAd21MvTU7HQJImgm8ikk4BrgGnXAIF5QizgIhZwEQ+4CPkm5OuZIep3EfWP5/7ODuEpF5lkjHQ8tHCIZUNqxt94NPs3FQtBOoFKKS0YFIpsUOZC/nqxQanMPidJDxDIatp7ccVv4R77t9UXRwkEAsGGZNUUl0Gn4dlj+7KfSywYjSWYKzZhq66jvGYL1nlCSXkVpdZqSqzVlFhslFoqKSktw2yrxmzN3tMaTGgNJbm/s4PeYEIC1KqcglHMDqQSJONBkvEgqfzfWJBMKkk6HkSRDBEPTeYU5Pwh7B1meuxTfOODTLvvMD3ez/R4P4GxfgJjnxIY6yc6OUxy2lUQEoF7IRKYIOQeIDzxKeGJTwlNfEp4YoBQLoQnBohNjZAOT8ghFXITC3pIBSdIh9y5uAkinsFZwZB0s39HQ/ErEggEgg3JqikugK8+vpMv7Wsmg4JUKkEmMkk6FiaZhkQqM2eIJzPEEmliiTTpjEQqnSYW9JCMhghN+4kl0khq48JBY0RS6TCbLUhqI2mVYVZQ6MtyJwPPCKV2NAYzpbZNbKpvoLS8BpXJvmDQWRwY7U2Y7Zsx2hpobNnF44cew2TfgsnehMm+BU2ZA4WxsiAoTdmgMFaiNdkwVDSyafN2ymu2YrA1obc1YsgFva0RjXmTvCFZ0ttQGCrQmGwojdnN0XWOOtTGSvQ5+ZnhD37vheJXs26JR8MMdHfIjkOL78WLnMXe73quuOLrueKKr+eKK76eK26u6+K4UFFe55K53/VcccXXG5VJt1N2DltMcR7nKru1LN/iuOLrueKKr+eKm+u6OG6ufBYzV9xGZNV8Fc7kr3/Wzgf/5SIKpQZJkkhryxe1fpWeHkVlLCcR9KAx15CIRQp8Ac6HUpHBP+GkoqaBRDJDcgmHK06NfUp1Qwu15XruTIRJJtPFInMS9Y+j1pdQVWHFbFQzMLp468TwpBOjtQ6HVUsknmYisDjP+omgC43Bhk6n5fBuB7+86WQ6UrhZ+tkn9/HN3Mh3Pl588UX+7u/+rjh61VjIV+GN8+9y4/xJWg8+yYEnC/2enX3nZeKxMMYZLoAGuzswmq0kohGOfuv7nH4jWx+NZiuOrXuIxyKyTMjv5eiz3+fsiZdlmaa2w4wP9+Ie7sNid+BzOQtk1FoDu488zUB3ByG/F4vdQdDvYdeRZzj3zl9hMGedoB599vt0nnmTRDSCWqdHo9PT1PY4F//+NSx2B+PDvRx/4QecPfEyGq0BtU6f9ceo1XPj/Eksdgchv5envvNiQR5WMp/LdZv0sHwVnnr1h/jcTo6/8AMs9ntHKfnczkWVb0/nGblcVqJ8E9EIh45/d1b5FtejQ8df4GLOq31xPTKWZf2oth54at56ZDSXg8SsevTN3/sTTr/x0orkc7k8LF+Fa6K4AD660se5K/30fTZ+Xwe2edLToyhLNyEB6UwGSVqcBZ5SAf6JYUps9ZDJnaK8SKbGPsVW24JeqyISS5BMLU1xGYylqJUSwegivG3kjEEi/vHcydCgVilILFJZpkITqPTlKNUq6u0mht1hEskUADaLid997ijbGquLH5vFelJcQb+X7vPv0nbkaUzmQsfDIb8Ho9mGz+3EUumQe4/xWASNVo9GZyAeDaPRGQpk8tfGUqssE49FSMTCBTKu4V4slY4Vk8kzUyafB9dwL/a6loI8kPPLN1c+NToDQb93WflcLg9LcTn7uvC5new68owcx4zRw3op3+L3/6AyM/Ow2vVouWxIxfW9732PH/zgB8XRC+LxTTPhCzKRO/JkQRIhJLVRVjwe373KvBAKKUM0HEAzjxeJhdIJT41jKMsqkYUo/v2JcNYbfWoJozsArz9IKhJAoV368S2piAelvoxwNEU4GsdWVkJ9dTnbGqv50oGtGBYwgZ/JelJcgvXLw1JcgvXLhlRcf/iHf8gf/MEfFEcLNhhCcQkWg1BcgmIeluJaVeMMgUAgEAhWGqG4BAKBQLChWNOpwlA0xvDoJMOjXkIzjuZeCKNOg16/uLWahaiwzO85YimsRDo2y/wnMD8MxFShYDGIqUJBMQ9rqnBNFFcoGuODC7d47/xNwotUWIL7M5cCNOg11FeX86V9zYuyKEQoLsEiEYpLUMzDUlyrPlU44Zvm3/3Hn3Gi/apQWiuMxzc9KwyPevnoSj8/euUUP377LBMLWFAKBALBRmRVFdeEb5ofvXIKz2JM3wUrTl6BCeUlEAg+T6yq4vpZ+1WhtB4yHl+QH71yatFrigKBQLDeWTXFdXtwjI+u9hfEBf1eBro7ZoXBmxcZ7O5g8GYHzv5rBc8Ilo/HF+SD8zeLowUCgWBDsmqK68onQ8VRdJ9/l5BvnJDfkwteQn4PwSkPQb+XkN/L7Y/fx+dyFj8qWCbvXbi5YUZdxc5CBV9s4nM4lBV8sVGazeb/UBy5WA4dOsRjjz1WHA3AybPXZ00TjvRfo+XAk9S17Mde1zJnCPpc6EvKMZmtBc8KlkcimWJXcy0Vc1gi/l//1/+1ItZhi+W5557D4cj6YBsam+TqjE7OQHeH7By02ClsZ/ubDN2+TDwWwed2Iknwj2/+BUqVmsHuDmoad3L6jZdwDfcS8k+SSiXwuZz88v2/hZyD0ZrGnXz4zst4RgcJeF0oVWo8o4P88v2/RaPVM3T7Mva6Fj5852UCk+P4XCMoVWpG79ziypk3MZmtDHZfxGi20XHqdQKT47iG+zCZrfR0nuHG+ZOYzFZG+q6jM5kLZCyVDm5deo+ey2fQm0pxDfeh0Rk4e+JlEtEIfdfO4mjeW5DPkN9DOpVckXzqTXO7QFssFZYSvrS/Wb5+9dVXV+QQ0tLSUr73ve/J1+9fuFVgyPXeT/6YK2fepPXAMZQqtRwf9HtnlW/Xhyfo7zq3auWr0erp7zo3Z/kW1yNLpYOPfv5KQT0a6umk68MT961H+ToyXz1abD5H79wkEgrMm8/lsn97A/U12bZ6ZGSEt99+u1hkVVi1EZdncvba1vSUm4/f+wn/8NoPeffH/55Tr/6PvPvKv+PdH/87fvaf/i0/+0//lt6uc0SCk8WPClaAoTFvcdS6w2S2Yql0FDgXzWOxO2g78gwhvwd7XTPxaFj2cJ33Gt7YdphdR54hHgvJaRx9NiuTf6ap7RCtB4+RkTLyc09950VCAS+1zXsJ+r1sO/gk9rrmApmjz34f13Avtc17ANh28EkslbUYzVaMZhuWyloOHX8hJ7ObRCzM7iNP5+5nHbNaKmvZf+z5nHPUZhKxMIeOf1f28l2cT4s96xx1pfK5EbHXNc9ZH+YqX3td86qWbzwWwdG8Z97ynVmP4rHIrHqk1upn1aOZecjXo3we5qtHi81n64GnFsznRmXV9nEV78XoPn+SDBma2h7HNdyLSqWkftujDHR3kMmkqarfhvPTa9S3HuDs23/Jkd/4b2Z5Bxcsj28+uU8+3HMmzz//PJcuXSqOXjXEPq6NidjHJSjmc7uPCyA45Wbszk12HXmGkf4umnY9TjgYIAOk00mq6rcR9HvQ60tIJZPs+5V/wsV/eL0gDddwL6de/aE81z1zSmk+Os/8tDiqgPkOp5vvIEOBQCAQPHzWRHGl4hFM5VVMjg0SCwfxjg4Qj0UJ+T3EQtNABrezD9umRpy3P8ZotpKKx4qTwed2MtjdAbl5/LxyuXH+JBdPvUbQ78HZ10XP5TMMdHfgc2V7gzfOnySeO1m388xPCfo9uIZ7uXjqdVzDvbJ1443z7xKPhnEP9xLye5l0O7lx/l1cw72QO4n1xvl35e91Dfdyu7NdKDmBQCBYQ9ZEcZkr69HqDJz7z68QmvbRe/UsIb+HG+dPEvC5uXH+JMEpD7/84A3uDn7C6Tf+lNaDTxYng2PrHlzDfdnD3HLGG/FoGEtlLZV1LVxpfwuf20nQ78GxdQ/B3HdABp/byUjfNeyOFtrfeAlLpQO1To+l0sFgdweJnOVST2e7/H3u3CFtne1vEvR7s6eQVjq4eOp1gn4vty+fobzSwZX2t2b8SoFAIBCsJmuiuABaDxzDaLZy6PgLHDr+Ai37v4y9vgV7fQuVdS3s+tLT/Mo/+Zfs+5XnsNc107B9trWiRmfAaC6n4+9fY9uBY5Ab9fR0niHo9xCPZacRLfZa+XTPkb4uTGYbQb+XeCyMz+2kse2wfD//19G8B0fzXkL+ewYM40N9DHZ3ZJ9zDVNud+Bo3stT33kR13AvYb8HZ38XGp1efkYgEAgEq8uyFFdtbW1xlEw4OnuqbybesSEadx6mcedhqhu2EfRNAJBILPyco3lv1jorZxWTVzw+18icJvTHvvMiPZfbZfl4LIxruA8ArdYgr3NdP3+SzvY3qZxhgj3lHqbM7iAejWAqs+FzZacKT7/xEva6FtQ6A5bKOvmEZoFAIBCsPstSXAtxP4e6SrVG/pxJpwvuzYW9roVDx1/AXtfCU995EYBv/t6fYK9r4eiz3+fL3/o+h46/wK4jz9DU9rh8X6Mz8LXf/gHllQ6e+s6LbDtwTH7+2HdelE1Htx04xpe/9X2a2g6z/8nnsVQ6OPadf0VVXQvf/L0/zl1n5Y8++31MudGjyWzlwJPPz/ilAoFAIFhNVk1xzcXMzYOZFRym5Eddi8E4w8ReozOg0RlobDss76GYGZ/fUzRzWtFe1yJfm8zWgmuBQCAQrD5rqrjU6nuKaz3RNGPN6/PMXF4zBAKBYKOxZopLrdUTi4b5h9f+J/7z//Fv6b5wkv/8f/wR//n/+Lec/v/9b1z8h/+bn/2nf8PFf3h9lqsfgUAgEAjyrJni0ugMHPunL/K1F/49v/Hf/HEu/Cj390/4jd/7E775e3/Cb/w3f0xj2+HixwUCgUAggOU62f3qV7/K9u3bi6MB+NmZq5DbtDs6eAuf27lgSMTCOW/xywtSzofZcgJF63GfF2Y6xJzJ22+/vSKuexbLQk52XcO9nH7jJTQ6A+VF/tQGujvwuZ1odAZ8bicgcePCu5Raq3AN92K2VtPTeQa/dxyNzkDI7yWVSsoyI/3XsNgdsowkQSqZIBjwcuvSLyi1VuHsv0a53SFvWo+Gsk5k8zK2mkY+u31ZlgEI+b1otAY8o4MMdndgqXQwOngTvdFM19l35HRNZiuf3b6Me7gPncks56Gnsx2j2Sp/92rlc7nT4Q/LyW5n+5t0fXiChm0HC/4v49HwnOVbXHbF5Tuz7FayfJdaj0YHb2K2Vi+5Hs1XRx4kn8vlYTnZXZavwj/90z/lueeeK44G4J//2/8v5Dw4h/we4tEw8VikWGzJrNSRF6EZ+7UelHg0Iu8dmwuNTo9Ge//GIh6b/9gGjTZrKHI/7vdbAP4/f/ESz/3G14uj15WvwoHuDi6eeo0DT/7mrE3one0/xWKvY7C7g0PHv4truA+tVs9w/zXKKx20HjzGjfPvotZm/1F3HXkaZ1/+n7gdu6MFR/NeBrqzfvGCfi+7jjzNYHcH9rqWeWUOPPk83RfepbHtcW6cf5fGnYfl7RFBf/ZInsPHX+DG+Xex17Vw4/xJWg88KTcYwSkPPvcIT33nRTkPPZfb2XXkaQASsQjjw71odHoOPPmb3Dj/LkazbcXzuVzfnw/LV+HpN17C53Lytd/+9wV5cA33Lli+B449TzwanlW+V878lLLKwnqU9cqeLbsHLd/iemSvb5G329yvHk26honHIhw+/gKd7T+VvbvvOvL0fevRUvOZV4qtB7N7YZfDw/JVuOqKS7B+mFnJZrKeFBe5zslM60/B+uBhKS5yo6vFdOAEa8vDUlxrtsYlECwWobQExQilJZiJUFwCgUAg2FAIxSVYkekegUAgWCuE4hIIBALBhkIoLoFAIBBsKITiEggEAsGGQigugUAgEGwohOISCAQCwYZiWYqrpGRx3sbj0TA/+0//htNvvFR8i0m3k4unXiPo98i7zG+cP8lAdweu4V6Cfg+TbiedZ35K0O9hoLtDlnH2dRXI9FxuJx4N4xruBeB2Z7t8Lx4NM+l2MtDdMadM/nrS7Zyx2z3r8WOgu4Og34PP5YT8jn1XNs28TP6ZvEzeq0I8mvWKMfM7894/ZsqQK6f8vXzcXJ5C8vcEAoHgi8iyFFdpaWlxFMxziKSUc19UjM/lpLHtMDfOnyTk92Z3yGv1APRcPiPLOLbu5eKp10lEwwT9XjQ6Pb6cItJoDYz0dWGxO/jwxMvEo2F8bicS0HO5nRsfnUSjMzB4I7s7Py/jGu4lEQ1nZXL+wnout+NzOzn16g9xDffl3MoMc/HU63Sceg2A25fPMNB9QXZF09PZjrP/GqffeInOM28CcPbEX9HT2c6p136Iz509Ofn25TOcfedlOtvfIh4Nc/HUa1w89Tqn33iJoN/DjfPv0tn+Fh2nXqPzzJsE/V7OvvMyp994SZbpyD2TlflprhQFAoHgi8OyXD7NdN0zE49vmj/8X7MN+BedeJGrmvxoaWZc3sVRXnamTDzn4zERC2OpdMgyruHegkMuF8N8Lp9WynXPYlnI5VPQ76X7/Lu0zeFbb9LtRKPN+n+Mx8KYzDacfV04mvficzmx2B24hnsxmq2yjEabLav5ZPLkZYJ+DyazTZZhRofL53Zir2uR0/G5nKh12U7WUmRCfi8Wu0P+LmdfF/a6FjlPq5XPpdSVuXhYLp96Os8Qj4bYdeQZOS7PUso3H79a5csc9Wiu37eYOrIYmaXmc648LJeH5fJpWd7hZ3r5nkk4Guf9C7eKo7+QFHuZV6rUs+LyDUo+fqaMUqVGozOgN5oLZExm26x07seX9m2lprKsOHrFvHwvloW8ww/e7ODWpfdAgprGnTOegvM/fwWf28mtS++hz3lXH71zi57OM4zeuUVT22Ha33iJoN9L19kTVNW10N91Fp97hMHui7iG+6hp3MEv3/9bpnLpOJr3cOvSL4jHIvRebicwOU5pzmP36OAthm5fzj7zwd+QTCboPn+SVCoJwM1L7zF0+zIj/ddo2HaQi6deJxLyc+vSeyhVGiIhPwM3OxjsvshI/zWa9x7l/M9fIej3cOvSe2h0BkJ+Dy5nLz2dZxjpv0ZT2+El57Nu6156Otvvm8/lKq6H5R3+o5//WC6bmXlw9nUtqXzzZTezfM3WKjyjdxZVvqGAl/6uc/OWb74e3cl5bi+1VtP14Yn71qO+a2flPBTXI53JTMjvWZF8+twjs/K5XDakd3gx4tpY/NHvHGdb4+yjDFaq57xYFhpx5adw7XUty25o78dco+Hi7yyOK76eK674eq644uvVZKW+62GNuIJ+Lz7XMI7mvXJcMcV5LL5eKeZKtziu+HquuOLrueKKr+eKK75eax7WiGtZa1wCwUqj0RlwNO9dk3/G4u8ovp4rrvh6rrji67niiq9Xk7X8rtXAZLYuqLSYI4/F1yvFXOkWxxVfzxVXfD1XXPH1XHHF118UhOISCAQCwYZCKC6BQCAQbCiE4hIIBALBhkIoLoFAIBBsKITiEggEAsGGQiguwYqYNAsEAsFaIRSXQCAQCDYUa6a4zr7zsuwPcCZBv3eWg1pnXxdBv0d2QDuXjC/noHamI9v8vXjOZVLxdTatQie2eZmZzm3z9/IUO7otvj9fnEAgEAhWnjVx+eRzO+k88ybxaJjmvUcLZG9ceBckiWsfniAS9qM3mXOe4fvouXyGprbDsiuV7vMnUao0pFKJWW5Szp74qxnudtSym5SezjMM3b4su0DxjA7S03kGpUqNz+3ks5zLnoHuizS1HeYf3/oLhm5fxpXz5O4ZvcON8ydxDfcy2H2Rhu0H+ce3/oLBnPd6gNHBW3RfOInP7aS/6xw1jTv4x7f+AmffNTyjg+iNZj67fZlrZ08Q8nsZ7O7AYq/j1Gs/JBTw8Nnty5TbHdw4f5KuD0+gVKkZvNlBqbWa02+8RDQUwNl/DVtNI10fnsi6edHqGRv8BNumxoLyXIgv7W+mwjLbo/+f//mfF0etKgu5fBKsXx6WyyfB+uVz7/LJ53ZiLLWu+E7vYpcnc11TtMN8plNbgHgsknVGmXNqq9EZ8LmdBU5tg35vgQxAKODFUumQZV05x7f5NAHZVU1expnzYp91fFkoM+l2Ul7pYKC7A3tds+wc0+dyEo9FaGo7nHPsaWOw+wKNbYdnOaJdiPlcPtXX1xdHrSr3c/nk7L+GY+vyfesJVpaH5fJp0u0kNOW5r/cMwdrzsFw+rZniEjx8NoLiGuju4OKp12g9+CQHniz8J8if52Y0W7HXtUDuGBp7fQuhKS9Hv/V9WcZS6cBe10w8FsmNcLMetp/6zosF6TS1HWbS5WSk/xoWu4PQlJdDx7/L6TdewpjrFOw+8jQD3R0F3rh3HXmGi6dew2S2EotGOHz8u/LRPGX2WhKxME1tj3P2nb+itnkPk64Rvvzs97l46nXisTBGsxWT2YqlMjvSttgdhPzeWb9vJfOZT+tBeViK69Sr2aOBjr/wgwKP5j63Uy5fZ981jr/wg0WV76lXf4hGZ8BS6ZDTW2r5Hn32+5w98TLMU498LieHjr/A2Xf+alY9SsTC2Y5zLETrgadm1aPOM2+SiEZm1aPKuhZcw70rms/lIhSXYNXZCIproWNNZo5as0dHZEfBoYCXDFBe6SDo90JuVG2vaykYDd87piI70s0fFTMz3XzjnpcpTmemTF4uLxP0ezGZrTOOKcmO5GfKFKdzP5mVzOdyeViKa6C7A597eFZHJl8u85VdcfnGY2HKc+/bWGqdcQRJ9r353M5llW/xd/OQ6tFS8rlcNqTi+sUvfsH27duLo4XiWqdsBMUlWL88LMUlWL88LMW1LKvC+U5AnvAFi6MEAoFAIFgRlqW4BAKBQCBYa4Ti+gJh0GuKowQCgWDDIRTXFwijTigugUCw8RGKSyAQCAQbCqG4BAKBQLChEIpLIBAIBBuKNVNctzvbZQe3M1mMU1uEE1uBQCAQ5FiWk93vfe97c+7l8viCfHS1X752Dfdy/uevEPJP0rD9YIHsx+//DUO3Oxm6fRnP2AB6k5nzP3+FidFBOs+8KTu+HRu8xeidm/jcWW/uZ995Gc/oIDfOn6R571FOv/ESg90d+FxOUskEntE7XDz1GoHJcfq6ztGw/SAf5GRCuV3xruE+ejrbCfkn+ez2ZWoad/LhOy8zeucmIf8kqVQCn8vJL9//WzRaPUO3L2Ova+HD3HdHQ1kHo6N3btF9/iRmaxVDty+jM5m5eOp1ApPj+NwjlJZX0X/tHLcuvofeVIpruA+NzsDFU6+TSiVwO/tkmb6usxjLbAS844DElTNvYjLbGL1zi3K7g57OM3ju3kFnMuNzO2d5l1iIX3t8Jwa9tjhaONkVLArhZFdQzMNysrsmIy57XQsHjj1P25eeLr7FgSef5+i3vk/rwSfZ9fgzGEutHPvOi+w68gxf/ta/QKMzcPj4dzn6re/T9P9v795j2rryPIB/E4y5YAfb4GISDCawAULqkIQ2ISGPdkKTTbOTKFVapGr6SEdEmpFSJUo1q51qOu2MuvtPK3Z2pP4x0TSdVFMNTXe6IUqzZaDTsHmQB2mNGxrTYjCYCZfB9aM2vWBnsn/YvsXXD/ATm/w+0lHT42Nj33vu+d1z7rnnareg5qEmSGRKPOYr81BTs/dzmpqx44mfQlVWBVVZNVRl1Xjs6ZegKq3C6od3AgC27D2EzXsP8WvAKVSleGhnM7KZXFSs3YIZbgqrH27C2q37cG/JPajKqiFm8vDY0y9hZvo7qKvWY4abwtptP0Rp1TpMT0/xa4Bt3vs8Br+4hCKNdxmXmod3QiIrxAzngpjJQ3ZOLuqbmjH6lXeRXQBYu/WHcE9P8WVmuCms3boP+v87C4msEC77JCq0WzCovwS3v8d57x6ymVz0drZBIvNWmMUmVI+b3L9CjcqQ+1tKelwAoFxRgVyJLCAPALJE2QAAqUyJLFE2n8RMHl/ev0q4v4yYyeP/6+9x5EpkyBJlQ1a4PKCMrHA5X0bM5EHM5KHAFzj87ylQlfL/lsq8K9g/sML7uBD/e2eXyZXIIJUp+TIFqlJkibKxouJB5Epk/PcqUJXy65EVqEohZvICyuRKZVCuqODL+ANlee3D/GdIZUqsqHiQf3yJsqQCBapSvkw0QvW4zGYz3n777YC8ZIvU4xrUX8Zf3nsD4hxJ0CNb+i6exaD+MgDAYRlHlkjML3Rq/sq7ZtvlcyfBjgzAYWGRJcrG5N+MuPbxHyGVFcKovwxVWTXfW+dcDmQzuWBHDLj28R9RUFQK05fXoSypwOVzJ2GdMMNltyCbycXoV58H9apvdLXBOmGO2Ku+0dUGl/0bTN4ZgnJFBW7f6OLLWNlRZInEAT1v5YqKpP3OaOuL0EL1uP731H9Af/EsVq3fwbcX8K1VGM329W+72dvXO2qyJCHbN5p6JKwjiaxH0fzOeC3qHhch8yWVFUIiK4REViB8CRJZIdZu3Qd21OBbBXsSm/c+D/f0FMQ53kZZVVaNmoeb4HT8nW+sN+99nl+UdIabQoV2MyrXbsE3EyP8icmOJ36KwS8u+VZ/t6BSuwWKIjWc9km+TH1Tc0CvulK7JaBXLckv4HvVqrIquKensPqhJmQzucA975Kgs8soVKVwT0+hvukp7w/0l4nhd8LX6/c/Wsf/O0ur1gX8zkykKqsKOboQ7fb1b7vZ29c/spGo7TvfejR75CXR9Sia35mp4lpk99KlS1Cr1cJsfGm8g38/cU6YTRZY68+aoRQ8SNJsNqOxsTEgL9lokd3MlKpFdl8/cQ63jXcCypD0dPRHTahfUw5k0iK7hMTrAYVUmEXSVJlvSCjZHpBTncgUyoLgJ6qnAgUusqBWVyxHHi1FlRHqa1Pz+JvZ19FI+lIqpNAsT83JjBAFLrLgdjc+KMwiaUapkIZ8llsyrK5YDiX1xNPeEzs3CLNShgIXWXD/vPVBaqjS3OGDO4RZSZXqv0eio1RIF7RnHFfgCjUxg5Bo5TFivNyyl4JXmnpi54aU9bb8Vlcsx4EFPKMn4SkVUrzc8v0knYUQV+AimSU3xKoZ6UKpWIaXW/ambAIAmVseI8bRZ5pwoGlhAsgTTRtw+OB2OqFJIzUrl/tOMhdmUoZfUgKX/4Y0kl7S/XlcSsUyvH7kAI4+8xjqV2uowVoAeYwYNSuX40d7G9D6r82or/VOdV4o2+qr8HLLXhw+uB01K2kiz0JQypdh24ZV+HnLXrx8eOGDFuK9j8tkCr/GnPBeDCs7ColvVQqSesJ7cPwW+j4ukrmSdR8XyUyL4j6u7RtW8f8eHfgM507+Cr1dbQFlAOBGZxv+8t4bGB34DIP6y3DaLfjLe2+g7+JZ3PCVv9HZhivnTmJQfzmgzKD+Mm5f7wR8ywHd6GwDO2IAO2LANxOjuPDfb8HKjqLvYjtfpu/iWYwOfAYrOwp2xIAr507CaZ/kl0a50fUnDOovgx0xwGmfBDtiwI2uPwWU6bt4lv87M9wUvpkYxaD+Mma4KbAjBmDWavj+MuyIgS/zzcQoZrgpvszowGeAbzHi0YHPMMNNwWmfxAw3xf+/lfUuLuz/Xv4y87Wt/vv9QQghmSxpgWtbfRVqfBd0FaoyqMqqoV61TlgMpVXrsHnvIVgnRqEq885S2bz3eUhkhVAUeZdEUZVVQbt1H1z2SajKqgKWLvGTyApRuXYLjPrLkMgK4eamoN32Qwx+cQniHO8CtuKcXEhkhTDqryCbyYXTbkGFdgv6Lp6F27eQZ0FRGVz2Sdy+3gWpTAnrxCgqtY24cu4diHNyfSuyF4IdMeDL610QM3kwD3wGcU4uPv3zW3yQWuILcP4y/gB0o6sNLtskrBOjcHNTuNH5Pgb1VwAAX17vgnViFBf+/BZcdgtGv/oc1gkzLvz5LXx54/sA3XfxLM6d/BXc3Hf8749koWcAEUJIIiVtqBAAprgZ/PuJczD9zfsYEZJ6eYwYr794IOy4NA0VkljRUCGZbVEMFcLXaP68ZS/dYLpAvp9mHjpoEUJIJkpq4IKv8fzRvzSg9WfN2N24BjUrl0MpXxaQaKZQ4m2rX4XXXzxA08sJIYtOUocKU22Km8bUd/E/OfXvVqcwKyaJ+JxJ67fCrIiUimV4aE0Z8pj53bNFQ4UkVjRUSGZL5VDhogpcJHr9/f3Ys2ePMDupKHAtDhS4yGypDFxJHyok6c1utwuzCCEkrVHgIoQQklEocBFCCMkoFLgWKbPZjJ6eHjgcDuFLhITlcDgSct2KkGSiwLWIOBwOtLa2QqvVYs+ePWhpaYFWq8Xx48epMSIR9fT0oLm5GVqtFo2NjdBoNFRvSNqiwLWINDc3o6OjAydOnIBer4der+dnazU3N6d1I/Tpp5/i0UcfxZIlS6BQKHDo0CEMDw8Li5EkOH36NFpaWrB582bo9XqYTCZcunQJMpkMe/bsQX9/v/AthCwoClyLRGtrKxwOB9ra2tDQ0MDnq9VqvPnmm9i1axeOHz8e8J508Zvf/AYHDhzAjh07MGgcwief/BX37t3D+vXrKXglmdlsxksvvYS2tjYcPXoU+fn5gK/evPLKKzh27BhaWlpoyJmklZgDFz39OL188MEHePPNN/mGR+jYsWNpec1reHgYr776Kj755K945Zevory8HHXr1uHtk+/gueeex6FDh4RvIQnU2tqKgwcPora2VvgSAOCFF16AWq3G6dOnhS8RsmBiDlwkfZjNZpjN5oCellB+fj5qa2tx5Yp3Jfp0odPpULduHerWBT854JVf/hKffvopbDab8CWSIGazGbt27RJmB2hoaKDhQpJWKHAtEuF6WkIymUyYtaCsVqswiyeXywGAAlcSpfN1T0LCocC1CPiHbXt6eoQv8cxmM/r7+9NuiLe8vBy6zz8PGZx0us9RXl6O8vKFfXz8Yjaf3lR/f3/YoURCFgIFrkUiPz8/4vJNv//973Hw4MG0C1yPPPII1q1bh9deey0gf3h4GE8cOIDnnnsuIJ8kVm1t7ZwnPB0dHdi9e7fwJUIWDAWuRaC/vx8OhwO7d+9GT09PwPCPw+HAa6+9ho6ODhw7dizgfeni5MmTaD/zP6isWIljx47ihUOHUL9hPWw2G86cOUMzC5Ooo6MDBw8ehMPhCJq447+369ixY2l3wkPubxS4FgH/jC+tVouWlhY0NjbySavVor+/H21tbWnb+JSXl2NoaAitra0oUCiwcmU5PvzwQwwNDeGRRx7Bo48+ij/84Q/Ct5E4+VdX+eCDD/i6smfPHjQ3N6OxsREtLS348Y9/jKNHjwrfSsiCivmxJvQogvThv4dr9+7daGhogMPh4K9b1NbWRpy4kcpHEfhF+1iTd955BzabjRrQBOvp6cHx48fx5JNPoqGhgR82dDgcUKvVc9YdeqwJmS2VbQkFrvtcKiubX7SBi6QnClxktlS2JTRUSAghJKPE3OMqKCzCT37+BgAgjxHP+1HxkSgVy4RZUZPkipHHiIXZUcvLFUOSgM9JxG9Kpo6ODrS0tAizk4p6XIsD9bjIbKnsccUcuHIkMmza/6IwmyRJIgLgAwqpMAtf9F7CpfN/FGYn1b5njmK5pkqYTTLMO63/hmlX+Fsw5qugsAhP/uRVYTbJMHdGBtB+6j+F2UlBges+N27UYaCnXZidVHU7n4VMpRFmkwxz9cx/JSRwUVuyONhZE3Rdp4TZSUHXuAghhGQUClyEEEIyCgWuWWzsMEz6C0GJcwWvoxcvp3UcNnY4KZ9NCCGLWUqvcU2aDbg7w0FVUSd8aU7jRh3sE96lf0TZuRCJw89iFGUzKCytBiPxri4+H5zThmvtv4WqYm1AvmXUAJE4F2ubnonq88JxWsdxq9u70oUoOwcuGwuNdjs02h3CojGzscNgh3SQF5WjUF0NkZgRFuHRNa74TZoNGLjSDo+bC8hnJPKE1RsAGLt9FWbDNUy7bBBlM1BV1EGj3R5x/0bDM8OBNergcXuP0bm+N13jCk/XeQr2CZMwG6qVdajevE+YHRPPDIfB3g5YzAZ43BwkimKoqzfG1L6GY2OHYZ8wgZHI5/zcVF7jijlwyYo0qGt6Vpgdkb/3Ut2wX/hSRDbWhIGeMyE3nMc9Dc/MdwF5nNN7MEXz/bx/ox0b9x8JyNd1noLHzeHuzHTcjRDntOHm+RPQrN2BkuqN3jyXDbrOU1DXbEJJ9SbhW6Jm0neDNX6OwtIa2MaHcdc9jQ17WsI2bpkSuHrPn0DdzmfC/o5wxm5fhUnfHRRUwomlYdF1noKytIbfp/DVp76uUwkLXv79WtWwH9ICFTinDYYr7RCJmajqeTic0wZd17tgJDKIxAwsZgPW7nwGclX4lfkXMnBZRg2YHLsddVuCCEElFEYiR0nNxqiOTad1HH1d72Lj/iMQZX9fXw097WCNupjqWChXz/wWUoUKGu0OMFIZJkcNMPZ+7Gtf5v99wxk36mDs/RiFpdWwsSYswZKIbUkqA1eWTCaLaR4qI5GjOEQgicQ+YYLHzUGprhG+FJFtwgTOZUf15v2Qq8oDUsHySijVNQGJkcgxMdSHkpr57zzOZYfFbAh6D2vUoUizBkuzRBjRd6OwNHIPJhKT/gIYqRwr1/2AzxOJGUgVxfj6+kcorW0MKB+Lvq5T2PD4YRRp1mDFqnpMmg3IyhJBqigWFgUAOK0sLGaDMDupiivqwEija8i/vv4Rlq+qj3rbf3npQ6za+DhWrvsBSmo2RUyqijqM9l8GI5EjT6YUflRYrFGHBzS1Ab+Jc9lhnzBBVVEHY29HXPUGvkavumEf5KpyLM0SQZwrRZFmDYY/78IyZUnU21NozHAVIjGDNdufQpFmDYAlYI26iMf4mOEq7rqnhdlRE4kZqKM4VgHAYRnDtMsWdVtiGTXg7yO3sOHxw0H7P1SSyIsxou9GSRTfb8phgfXOYNDxbDEbIFUUwzYxDJeVhbK0OuD1aIwbdXBMDGP97hcgzpViqe8YX6ZUJ6wtudV9Gqs27kVZbSPUNZswaTbg3j88yFeGXvN02mUHO6QTZidF0q9x2dhheGbmd7YbiWeGg40dnldyWceFb4+KoecMDD1n4JnhIBIzGLzZAXZIB85lg0l/QVh83jzuaUgVKmE2pApVwrYRfEOlfiIxM+/exmI07bJBqlCBkcjnTFJFMRiJDHdj3F6eGQ6cy8bvB4/bW2c5lw19ne/GvI9trAl33VxQ70ckZlBYWjPv3kMknMseUG9kRZqE9KbSjdvNISfEvg+XpAXBx2s0OJct4Dq23ddzYYd0GOztCCgbDZd1POQIlFyl4ethvPzHjp9IzMRchxMt6YHL2NsBZ5yBBL6NaOg5O68UT3ABAKm8GIxEzp+Bbn/6F9j+9C9Q1RBf955zeq9NCPnPxOOtbCIxA1mRBoaedjit4zDpL8DODqNQHfuZ3ULhnDawxsScvQ32dvAnI3MlLo7GetJsgK7zXYwZrkKqUKFiwy6oKupQ1bDPG9BiDIgQnIzMJsrOgWcm/l6PamUdLGYDnNZxcC4bBm92RD2cm2xjt6/CaWWF2VFz2dig/R4uxRNcAODWhfeh63wXnMsGjXY7ynxJVVEXV7voidDTFWWHv/4fDVmRBqa+bn4imZ31jiCkg6QHLneEDRwNmaocm/YfmVeq3d4sfHtUssQMciRyjBt1fOJcNtyN82yDc9mRI5EJswEAORJ5Qs5mqjfvg0jM4Fb3adhYE9Y2PQsmzusrC8E2YcJ4ggKX8Cw6UopHcUUdNu0/Ao12B0RiBsUVdXyKx90ZLmy9YSRyeNyB13hjIVdpoKqow63u93HtzG/BSGSorN8lLLagJs2GuEdT4GvYhfs9fAq93eer/vHD2LT/CP95/vogK4rvpIBz2sLW1yxxLpzfxB/gqzfvg8fD4eb5E+jvfh+atTvC/s1US0rgSkQDLBRpFmEieWY4WMwGsEZdQHJa2bjOmDmnzdf1Dn2tSapQJeRaEyORo7phHzbtP4K6pmfD/r37SUnNRmi0O+aV4mmoTPpudL/364Ck64z/YvWk79pIKBJFMSzmAWF2TDTa7di0/0Vsf/oXWLP9qbC9vEyXI5EH7fdwKZprW6Hc/Oh3QXUiESMJLus4JCEuO8B3EuKyxR/gGYkca7Z5R5y2PPmzgMlHCy3hgYtzeaeVZ6Ks7ByIxIxvero3VdbvQvXmfVDGOdxm0ndDVVEX9gJ9SfUmjBmuxRz0ndZx6DpPBR0k3e/9Gr3nTyTkYEk2/zBVptJot2Pj/iMBac2Op4TFosI5bbBNmFCoDr22o1ylAe7dg42N/SnRY7ev4uqZ3wal3vMnYLjSHnOdTIR4htPSwdrHng2qE4VxTMqAb2KGf1JXKKqVdWCNfTHvN85pw63u94Pqg79OpENbkvDAhST0uKZT1Jj5Lz4arrTz18tudZ+GrvNdTI7G3huysSawQ96emzCo+FNf1yl4ZjgM3vxY+PY5eSvaaUgVxUEHycb9R1BSvRGDvR/H1bilwpjhWlocFLEaN+q8dWdWGrwR3zWSgZ523HVzMOm7oes8FTIBSzDQczam427cqMOY4SoqN+xCdcO+gFS5YRc8bg63ut8Xvi1lbp4/IczKKML6YLjSDkscbQnntMHY2wFgSVA98Cf/bUcmfbfw7fPivS3CO3IjTP62ZDIBo0PxSPh0eI+bAzvUx0/HHDNcg1JdDUYq981+WoKCFZXCt81hCYw3O7wBQDCE508WswHWO197h/mG+pCvLImql+SfvrxiVT1WrKqHumZTQMqTKWOezs9IA4cmVBV1QdNu/UlZWoOlWSLhR0RkZ02Yckxi9dYnIBIzQUmqKMYM58R3jm+Ctn06TYe3mA0QiRnIVeVwWlm4rCxfx0y+KcnheqzhjN2+imWFaiwVieBxc3OmMcM1FKqro54OL1dpIC0o5rc3nwqKkZevjPn750jkWKYsCfxMQVKsqIRMpQk7TTmSgSvtKF+3E8pS7zEqTAXLK/H19Y9QUr0pqF6mYjq8Sd8Nje/mfNao43+z08rGNB3eaWVhZ00oWFEZtO9DJc4Z+jaZSGbfWrN0qQh5MmXA/pKrNOBc9oD6HQ2JonjOOlGorka+Uh3yOIvExpowMaRDXdOzQXWBkXpn3i7NEsFiNvhum/heKqfDJzxwicQMFMsrIc71PkKjuLIOefneRoCRylGwojLoAJgLI/XetR3UKMxKeflK/gJovrIE6prgAy0Sj5uD+cvL+MddD+wTJrisLKYcFjitLJ8sZgMYiSKo8Y+Wy8qCNfbhO8ckpl12FCz/Jz7IRPOd/RyWsTkPgm8tY5jhnEEHeroFLv/+5Jx2fGsZ43/TuFEHdYjGcy5LRSIM9LRjzHBtXkmqUKFi/U7hx0Tkb1DzleqQ9dIzw2G0/3JMgcvfWPiT08ryDZ/S1zj5X4vFSP9lFAnuQZttaZYIJn13yHvoUhG4xo06/jWL2YBlhWrkyZTgnHa4OVfUxyIjkcNiNsB4syNo34dKFvNtlK7ZinxlifCjwvK4Odz5+iZKaxuDgpZU4T258Z5sWiIes6EszQoMhKJsBtMuO+RFGnjc0yjSrOFfC7dPI+FcdljvDEYM1FMOC76d/P7Y9Etl4ErpyhnpbvayUrN5ZqbhmeEgLSj2LrET50Vr75BgBzinDZX1u2JudPw4lw2c0+693hGG//4i4d8aM1yNe8pvtGJZOSOdzWcbJup4Mem7vTeyS2TYsOdwUDCJ1rivtxhpttjY7ashG7KFXDkj3fV+9Du4bJFn9tVufyqqUaFQPDMces//DtMue0KWjvNPTos07Z1z2UJOjU/lyhkUuO5z3oWEYxsLj9ViC1zwnWVHusYUKTBEy+Pm4j55SgQKXJFFmmgkEjMJ3YfpUCdSGbiSMjmDkPuNKJuZde9PcEqkhW6gyPwI68DslOh9mOjPS3cUuAghhGSUmCdniLIZSPKVmHbZ40pLlgB33VxcCb6LliR69glTQta6i0a4yRkks6RicgbJHNOZMDljMQq3rE40RNne2YHxyhZHfubYfM31m2xs6gOX91lPkb8XSX9jt6/BE8dqMn6ibAYlNemzKgOJDeeyp+w+TApchBBCMgpd4yKEEJJRKHARQgjJKBS4CCGEZBQKXIQQQjIKBS5CCCEZhQIXIYSQjEKBixBCSEahwEUIISSjUOAihBCSUShwEUIIySgUuAghhGQUClyEEEIyCgUuQgghGYUCFyGEkIxCgYsQQkhGocBFCCEko1DgIoQQklH+H0G++2OxLefpAAAAAElFTkSuQmCC;" parent="1" vertex="1">
          <mxGeometry x="-730" y="80" width="642.21" height="460" as="geometry" />
        </mxCell>
        <mxCell id="zha-cPZ6Djakdp4-bvfR-351" value="" style="shape=image;verticalLabelPosition=bottom;labelBackgroundColor=default;verticalAlign=top;aspect=fixed;imageAspect=0;image=data:image/png,iVBORw0KGgoAAAANSUhEUgAAA5UAAAJVCAYAAABON9HTAAAAAXNSR0IArs4c6QAAAARnQU1BAACxjwv8YQUAAAAJcEhZcwAADsMAAA7DAcdvqGQAAOqvSURBVHhe7P19dBzVnS96f/tZK8/NDQfjksjkQrADannuMYaYOC0DtpQTCFY3NosxY0O3gQeYQGS3mEOG8YuMZA5xQhJ3Y8YkJ1iSl82YOcRqGTtmcpCwZIJz0o0cjBDq8HYG3D2OTciQqGkTbrJyV/7Yzx/Vu7Rrd1W/lGRbtr+ftXpJtWvXrqpdu6rr17WryieEECAiIiIiIiKq0qFDh/D/0ROJiIiIiIiIKsWgkoiIiIiIiDxjUElERERERESeMagkIiIiIiIizxhUEhERERERkWcMKomIiIiIiMgzBpVERERERETkGYNKIiIiIiIi8oxBJREREREREXnGoJKIiIiIiIg8Y1BJREREREREnjGoJCIiIiIiIs8YVBIREREREZFnDCqJiIiIiIjIMwaVRERERERE5BmDSiIiIiIiIvKMQSURERERERF5xqCSiIiIiIiIPGNQSURERERERJ4xqCQiIiIiIiLPGFQSERERERGRZwwqiYiIiIiIyDMGlUREREREROQZg0oiIiIiIiLyjEElERERERERecagkoiIiIiIiDxjUElERERERESeMag8w4RCIfh8PtTX1+ujAAA+nw8+nw+tra36KCojHo9b9ZfNZvXRjuT2yGaz1v+lpq+vr7dtv9bWVmuaarlNm0qlSi5DKeo6+Hw+pFIpPYttvNf5uJH1M5ntdyL1gRL1fDrI+iEiIiKaShhUEgHIZrNoa2vTk0tKJBIYGBhAMBhEXV0d7rnnHmvc4cOHbXlRmEcmkwEAtLS06KMnRTweR1NTk57s2a5du2zDiUTCNjzVTXZ9nG6y3Uxm0E1EREQ0UQwqiTyepO/cuRMAcP311wMAIpFI0TjVnj17rP8XLFgAANi6dSuEEBBCKDkrM5FpKzU4OGgb/sUvfmEbplNLtpvOzk59FBEREdFpw6DyHKF3a3TrDpjNZovyVUOfNh6P61ls3UxL5TtVyxyPxzEwMKAnl5TNZq1pli9fbqUHg0EAcCxv27ZtAAC/34/GxkagRNdKNV1+9K6o+rStra22q61+v9+1m3Q5cj0ymYytzmWQ6ff7rTRVIpEoWm49YFe7uKrb2O0qqNpe9Dz6vNRlLVUf6jLo7VGfh5tK1lWS8yuXTy9Pb++NjY1W3Ve6nEREREQnG4PKc0B9fb1jkOP3+22BSiKRcAwWnE5udfK+NV1bW5vtBDoejzt2M21ra7MFlqdimaF1e41Go/poV/Kqo9/vR11dnZWudoFVT/qr6foaCoUcr0Q1NTWd0kBCBpayK6+6Ds3Nzba8KKzvihUr9GR0dnY6BlGdnZ22baxe6ZXU9tLT02PlcWtvevsop7Ozs6g9rlixwvFHDlWl6yp/8JD1puYLhULWcDXrI+ve6Wo4ERER0enAoPIspwYCPT09VndJGYip98zJk+RoNGrlk4GFU1CgevTRR4HCSbA+bWdnpxXgqQGCnu+ll14CTuEyQzlBj8ViuPTSS/XRruSy6lcC1cBI7Sqqdn1Vr2w6kYFWLBYrWqdSgcTWrVsRi8Ws4UwmgyNHjtjyVEN265XzlMGl3+93rKsNGzYA2nLLQF3vRislk0krry6RSFjtJRaL2epWBu/BYLBoXnJcpfXh1Mb0QFNX6bpu3rzZ+l/PNzAwYAWMlayPJOve6UcXIiIiotNC0BklGAwKAMLv9+ujhDDPzAUAEY1GhRBCZDIZKw2AyGQy+iRCCCGSyaRjHjXdjTqPnp4eK11O6zbPnp4e27IFg0EhTtEyCyFELBazzVcO6+U58fv9Ako9q+Q2Uucv0+S8pGg0WpRXXfdkMmnLr3Katpp1cKIup16Pclw0Gi07H3VaaO1V1p1TG5bj1I9ex2r7UOtHTZfL5Laccj769lCXW5btVM+qUusq02KxmJUml1OWX836CG2/cap7IiIiolNpaGhI8ErlGUbtalmKvJpRV1dn69bp9/vh8/lsXe8A4P333y/K4/P5bE/O1LvhSR988IH1/yWXXGL939jYCCGEbZnV+9Ccug/iFC1zKpWyrkZt3bpVH12WvJLqdMVOvbKUSqVs91/Kq3+lqFfXmpqa4CvxCpmTSd73icJ6yHW4/fbblVzjZBdOfRu4qXSd9K7AanuT9ePz+WzdoJ2evutE358uvvhi63+1fekqWVe1+/XMmTOt/+vq6iCEsOq32vVR9zF1WiIiIqLThUHlOUA+JVQ9SR0YGIDP5QE5J0s2m7UFkrLboezaqTrZy6x2oZUBqf5QFz2IrdT8+fOt/3ft2mULCMp1fQWAdevWFdVLJpOBr8QDXk4WuQyyezO0YFOlBleyW2ip+1T1gE6nrv9kbPPJVO26EhEREZ3NGFSeYeSVsUwmUxRgqMPqlRHpyJEj0O/XkoGUevUjk8lY+dSPWzDhdnVHPqREXi1Ug6tMJuP4YBbdyVrmk6murs4KiAYHB617EuX7LCu1f/9+az3k1Uv1/lQnTtt9IuSVVXmV0ukHAGhXhJPJJNatW2cbXy2/34/9+/db693W1matt9re1Hsy1Y9sW+XqQ69Lt6vuqkrXVd3Wx44ds43zKU+ZrWZ9iIiIiKYiBpVnGPmeOhQCDNlVzufz2boJyhNitbupejKsdtvMZrO24Et9uIh85UOpropqEKVeiZTlOD21VAaYiUSi6IEjp2KZ1Xc86oEbCkHq/v37bdOo5BXUo0eP6qMApQtsJpOx1k9/4IoTtVulWmdqcHQquzyq7Q0Vdt8dGhoCCuuid12tlHyA0rp166y6ltu4rq7OSlOvoOqvWKnEwMCA7Sqouo0q+UGi3LqqP4TIAFbOTz5lttr1UX+4UQNSIiIiotNGv9GSpj71wSFOH/3BJuqDY/SPmld/cI76KfXAGOHwcB31Ix9cUiqPmk+comXWuT3UxYncBvqDXiSndXUq0+khMKW2rzo/p2n1h8ao4yrh9EAh9eE5sk6d6kqfr/7Ry9Pbqds4pwfTOK2n/Dg9LEpfDqcHArmV4VTPen79o9LHOeVzWk75UZdFKHXv9KAjIiIiolOND+o5Q23duhU9PT16MlDoPqc/eEbtRqiKxWK2vJFIBMlk0pYHhatt5a7ayIeP6KLRqPUah7q6uqL39cViMWuemUzGuppzKpZ5IuRVU6dXVEC7eosqu766bd9oNFry6ikKV9cm+94+9Z2UpepU3/7RaNS2vd0emlROJBIpek1MY2NjUVtCof2rXUXL1Uc0Gi2qa70MJ9Wsq9DuDYby6hCp0vWBcnW81JV4IiIiolPJJ/SzIyIqK5vNWoFCJpOpOGCkqaG+vh6ZTAbRaLToR5ipTi57T09PUcBJREREdKodOnSI91QSeaFeiaz09RVEE5XNZq0rmgwoiYiIaKrglcoziP7ADiIiHsKJiIjodOKVSiIiIiIiIpoQXqkkIiIiIiIiT3ilkoiIiIiIiCaEQSURERERERF5xqCSiIiIiIiIPGNQSURERERERJ4xqCQiIiIiIiLPGFQSERERERGRZwwqiYiIiIiIyDMGlUREREREROQZg0oiIiIiIiLyjEElERERERERecagkoiIiIiIiDxjUElERERERESeMagkIiIiIiIizxhUEhERERERkWcMKomIiIiIiMgzBpVERERERETkGYNKIiIiIiIi8oxBJREREREREXnGoJKIiIiIiIg8Y1BJREREREREnjGoJCIiIiIiIs8YVFLFIpEIQqGQnjypcrkc4vE4Ghoa4PP54PP5UF9fj46ODuRyOT27o3g8bk2rf+LxuJ6dXNTX16Ompqbiep8KcrkcfD4fWltb9VE2uVwO9fX1aGhoOKPWb1JdcQUwc6aeOu7GG4ELLgBefFEfc9okEgl0dHQAADo6OpBIJABtn+/v79emGtfR0WHlmyxy3pNBHv9SqZQ+qqzJXA6vfD4fQqEQUqnU6T/eNjYCPp/zZ+9ePbc3x48DkYi5n/h85j711FN6LtOLL5p5IhF9DJ1rvv1tsy088YQ+huiMxqCSKtLa2ore3l49eVKl02nMmjULmzZtQnNzM5LJJJLJJMLhMDo7OzFr1iyk02l9siLLly9HMBiEYRjo6uqyykkmk1i+fLmenRzE43F89NFHOHjwIGpra/XRU1ZtbS2i0SgSiUTJYHHHjh346KOPsH///jNq/SbVffeZJ8VOJ9h79wJDQ+bfG27Qx542GzZswL333ot0Oo3XXnsNixYt0rPg+eef15MsnZ2detKU8s4776CtrU1PJi8efBCYMcP87NgB7Nkz/pk/X8/tzY03Ai+8AGzcaJY7YwZw773OgeW3vgUsXAgUfgihc9Tx48DjjwOrVwP/8A/6WKIzmyAqIZlMikAgIAAIACIYDOpZJsXY2JgwDEMEAgGRyWT00WJsbEwEAgFhGIbjeCddXV3CMAwRi8XE2NiYPprOUn19fQKA6Onp0UeR6tgxIQAhwmF9zJQlj0HJZFIAELFYTAghRCwWEwCsY4QT2S78fr+YzK8+Oe/JINcrmUzqo8qazOXwqqurS0SjUSGEEOFwWPT19elZTq1jx4RoaRFi2jQhtmzRx07Mli3m/qOXO2OG+SEiOocMDQ0JXqmkkpqamjA8PIyenh591KTasWMH8vk8tmzZgrq6On00amtrsWXLFuTzeWzevFkfXaS/vx/bt29HPp9HW1sbrr766qKrnKFQqKg7b3d3N+rr6+Hz+VBTU4N4PG51qZTd7urr61FfX2+bDoWueT6fz+qSl8vl0NraanW3q6+vt3UHc5q/Pk1DQ4NVnuTUzS2bzSISiVjTOX1klzSnj1puOp22dT9ubW11vOqXTqfR2tqKmpoa+ArrV6rrob5uan2U6rLs9AFgrY/eVXDx4sUwDAM7d+60pUv9/f3WNvb5fIhEIkin08hms/Ap21klu01ms9mSZaDEctno3fH0bnk+H7BmDbBy5XjXupkz7VdAZs40u9vpnnqqsq5VM2YAoZB5peX4cX3s+DKovv1tc776csvPmjXu3Q7VstRyLrjAHHf8uDm8cqU6x6rcd999yOfzju3w+eefRyAQcNx3+/v7EQqFrO1ZU1NT1O7j8ThCoRC6u7utPE7zQaFnh085FqCwj+r7S3d3tzU+Ho+jqakJKBx3ZTuX+0YqlbLanH4scVPJekFZNpmvvr6+6LhTbvkBYPv27VizZo21LyxevNg23mbvXnN761fKndJffNHerkp1M1X94Adm+/7DH8wrl42NxW1db5vHjzvvd3K/kvP95S/Nv/rVpttuM8tQu42vWTNe3gUXmF1g1eUYGTGveur7jPqR5cj/4VJXbumV1uG3v22Ok/n0ZZXkPCr9lFqWG28sXgcU5qEuS6X59E9j43jeF180865ZY/4vj0MzZzofM/VjVSRibi9dJesku0vLPDNnFh9jUTiGq+2hsdH9NoRKvwd8Hts5UTX0SJNIFQwGxejoqBDKVYKTwe/3C7/frycXKXUlQurp6bGuWvT19Ym+vj4RDAaFYRjWuojCuqnr09XVJQCIcDgsksmk6OnpEYZhiGAwKABYv7rL8vUrYfo6RKNRYRiG6OnpEclkUkSjUREOh62rpvr81aux6jTqFRnhcEVidHTUusqrTxcIBEQymRTJZFKMjY1Z/+vj1HL9fr+IxWIimUxaafLqgyTrIBgMir6+Piuvupy6UvWRyWREMpm0tkE0GrWWLalcLVeXV66HHJYymYxA4cq6flVbjlO3sWwnotC+nNqh3+8XgUBAiArKcFsumz17zM+cOebVDjl87Jg5HjCvrixcKMSOHeZH5n3tNTPPxo32YSkcNtNlWaXMmOF8tUUUlmH16vFhWW5Li7msW7aMT79xo5n22mtCHDhg/i/zq+OEstyh0Hg5cl0Bc12rJNtpMpkUfr+/qL0KIay2J/dnSV7BlNszmUyK9vZ2K02KxWLWftbX1yd6enrE2NhY0f4o9z31+KD2xJDtX07X3t4uRKFdyfbf1dVltR+ZD4XjgLp8clo1n1TpemUyGWEYhvD7/dayhcNhazlEhctftT17xtt+ufQZM8z2L/eFhQvtbdOJbH9qO5PlqPuG3s5DofG0PXvMv8B4+5TTLlxofnRy+WU7llc01fIWLjT3EyHMv9Ommcu1ZYt935kzZ/zYIMT4sujzmow6PHbMHD9t2viyynxOx5Jjx8aXTV9WdR3k/i/LUNdXXRZ9eWW9hULF+dRjRKl84bBZplNdHzgwXp87dtj/l9yOedOm2Y+7la5TODx+1VzWUShkr185T7nsMp+6XKqWFjN/ue8BeGznRBUaGhoSDCqpYjiJQWWlZcsTNj1YUMkTJL3Lqx706UGdnE4lAwQAtvL0spwCTRmQutHnL8vQgxF5IijXWT95DIfDwjCMovWVdaUG0pJTfcty1XUQhfLV+cmTUKcT91LK1YdQ6lsPTvVAQJQI3uSJuVM5cpw+jSS3gVpno6OjtnopV4bbcjmSX+A6oLgL3YED9hOD114zhzdutOebNs08oShHlidPJHTqvPR5S3IZQiF7ulBOgNWTKlFYPn3d5Impx5MZNahsb28XhvbDkwywxsbGitpSNBot2u+FQ5uT89C7dKr7o1NAKdOd9lE5rdy3ndqOzKO3Zf1YqB8XKl0vvRwpEAhYwWely18Vuc319qGnu7W9UuQ0eruU7VXdP5zaub7/yLY8Z854Glz2G7n8skx58u4mFDL3Cb3dy6BABkRiAkFlJXUouwmr86uUU1247f8ysNLXd84c+3FB/tCk07sXl8o3bZo9Ta9r/fgbDo+X7VZnTm1oousk7dhhlu30I5+bSr8H1HWppp0TVYjdX+mMc+mllwIAPvjgA30UUOh6mM/nsXbt2qIHsKxduxaZTMaxW6KcrqWlxZbe2NiIQCAAv99vK+/RRx9FJpOxHgizYcMG+P1+RJQn+zU3N+Pw4cOO83Py3HPPwe/3o1HtqgPgtttuAwAcOHDAli719vYiEokUre/KQjfCgYEBW3o587WHWMybN882LLsff+c737Gll1NtfXj12GOPIRAIIBAIYNu2bbZx11xzDQBg165dRV0AAVgPftm9e7eVJv+X48qVMWkWLLAP6w/MmTcPmDMHUJYVTz1ldvVrblZzOtu+3fwbDgMvv+zcpUvav9/8e/vt9vR588wutHJ8OXv3mstXaNOWZcvMdZEPVpmA2267ragL7PPPP49wOFy0jwDA1q1bceTIET0Z119/vZ4EALj66qv1JKDQ/b2zsxNdXV2244Ac5/f78c477yCVSlmfCy64ACixb6vuvfde2/DthW3hNm2l65VIJBAMBotuO3j11VetLrCTsfye3XADMG2a2cZKtVGVbI+rV9vTZXt1e+icnO7WW+3p3/ym+VfvZvjyy8VdLfWHwV17rfn329+2p0v795tdHfV2f9994+MnqlwdjowA27YB3/hG8XFmsr3wgvP6qt2G5XFCr0toDxgrl+8Pf7B3QXWra+nyy8eXodwxT21DlawTCsf0N94o7hYryYc56V2qS/HyPVBtOyeqEINKOqMcPXoUAHDxxRfro2zmzJmjJ1lp77//vj6qpNraWgQCAVtaJBKB3+/Hhg0bsGPHDmQyGTz66KO2PE8++SSg3B9VLpg6ceKE4/1ec+fOBQB8/PHH+ijr3iUZbKvkdNXSTy51g4ODjkFsOdXWhxfpdBqZTAarV6/Gfffdh0wmY7uXdu7cuYjFYujs7MSFF15YdE9rbW0twuGw7UnHvb29toCkXBmT5pJL9JRit90GvPXW+Ini4KB58vj1r+s5i73wghlQypPXEk9NxVtvmX+1HxgAmCc0k2H69Ekpa+7cufD7/banwCYSCSxdutSWT5XL5ZBKpRCPx9HR0YFQKOT6FFa3dr9ixQoAwL59+/RRyOfzGB4eRlNTk+2zatUqwGXf1unzlT8+lZq2kvXK5/NFgaZuMpZ/Qp56ymyDX/6yGbhVyilAkm3MKbhyI4OFyy+3p8+ZY3+q7J495pNgVf/tv5mBwiOPFN/XJoMNp33dadknolQd/uIX5l89gDoZ/vAH5/WV2+Xjj8ePN3qQBu14U2k+ldO8JTlOXYZKjnmVrBNgBu6AGQT7tPtMR0bMANQpQC5nIt8DKrd2TlQp/fIlkRs4dJmcLHp3Ujfl7ql06j6mj5Nd09Tup27dLmU+9R4kSXb9QuE+RJ3sNhor3Aeldx3Tu7/qwyp12dRubrJrptNyC206PV2fl959zi3drcxyytWHKLEd9C57wmVby658Y2NjYmxsTEC7H1TWl7wvzqlrsNoFVu/6Kioow2m5iqDQ1ZMf50+VZBuVda52gVW7vgqHtiTvSUZhPw4GgyIWi1ltSdL3Az09Go1a/+vdX1HhvYdObcdtvrJ9Ox0XRBXrpZbhptLlr5i+vfnhh5+p9yGqAru/0pTR0tLi2jVVSqVSGB4eLupapjr//PMBAG/JXxkV8grlJU6/KJZw5MgRDA8P68m49957YRgGUOgOq8rlcujt7UU0GsW6devQ2NhYdKXBiVN3NXmlTXY1U8mrkfIKrqrUdBNhGAZGqvmVfwL1Ua1EIoFoNIra2lrrqqP6FEvZlbW3txeLFy92vJoru7n+8pe/LOr6igrLKEt+bS9caB+WHxS67lWSHgqNXzEBgAMHiqfTP6GQ+au0HJZXV9Rp1XnJboSvveZc1rRpxelymj17xtPkMurrIMR411c57wlQu8CW6voKANdddx1qamqQyWRw5MgR7N+/H+vWrcNHH32kZy1p69atWLduHfx+v+MTVgcHB23DE/XOO+8AAGbOnKmPAqpYL8Mw8NJLL9nSUHjisdpzYlKXX20Lavtwajc7dpjDW7YUtxm3j1N7lp9weHwZhEs715fptdfM9HDYXo5Tu9fnLbt16/nkRy9XfmSX4o0bx9Pk8snhyapDfZmr/QDmsUxN05dBzeu0vuoyyPVyWl6ZT14ZLpdPXSf1GCMcjr8LF45v03LHPHU6VLBOx4655xMu27uaz5w55nLJbb1jh308PLRzoioxqKQpQQZo99xzj/XaBlUul8ODDz4IwzCwxukR3AWy69tjjz1WdFK3c+dOGIZRdM8iCl3JDMMougcvlUohk8kgk8kUlac6Jr8wNDLoRGEdQqFQ0atNVE6BtVNgo5KBk7588nH/btN5FYlE0NvbW3I93FRbH9VIJBLI5/O46aabrLS77roL+Xy+6PUIaqCdSCTQ2tpqDctgdPv27VYg7BSQlCrjlAoGza5Pzz5rnjCV6zY3MjJ+b5H0d39n/pX3WerkSdSuXfZ0p7JKWbbMPGlT7/9B4V7L48fHPxOkdoEt1/U1n88jHA7bun3ncjnPQdTOnTuRz+fx8MMPW2nRaBTDw8NF+7Z8PYme7kRvw7sK28Jt/650vSKRCAYGBoqOu729vVZQORnL70qvZ/mqDt20aeP/y9c3uLUVeQx4/HF7+vHjZrdvty7rMv3ZZ+3pst2/+eZ42jXXmN0e9ddQDA4W74fqsgPmayXkdG6v9ZH7onI8czXROnSrr5PFaX137x6vN3mckEGjavt2c9yyZeXz6dtB3uPo9MP0E0+Y98h+4xvmcLljnt6Gyq2TpP7Ie/z4+OtCbrjBzLt9e3E5lbjtNnO55PdAqa6v1bRzomroly+J3MChy6Qo0WWxWrK7lmEYor29XSSVx+DLdL2roRO5PLJ7onylCLQnN+rdTWW3R/2VIrLbpttTH+Wy6d05g4XXmPT09Ii+vj6r665cB33+chnlNEnl1SClXh1Q6pUibl3WnLalXq5bunz6qyy/km0iKqgPUaIt6V0WhUNXQfkUXJ3chkKZRm5jteuiSrYFp+1ergx9uUrSnz4oweGpg27px46ZT/pD4dH35chXeuhPeZRPRpT0ecmnUZZ7vL7k9vRH9RUAspxp08afkun26PwS5DZQ61w+NRnak5v1tuT3+237XE9Pj5Wm5tP3g1Lp8pghl0fuM+p85HTyVTVC6VodLbxSR2jHmVih67jcv9X9RF+OStdLLps8XiaVV4rIfbPS5a+K+sTf1YXXGsg2prYb2b7l6xpke9FfDaKT7U9/pYjeXt3auVwmtRxoTyeWr+CQr4hwasNyelmezCOf8Km+jkJ/pYi+P8uypMmsQ/lqCrkcpepWhyqe/iqXzen1G06vClmovFapVD6nV4o4HUtk/cgns6LwFFT51ylvuPB6j1JtqJJ1WrhwvL3sKLwmapryxN0dhae/TptmHqedjqtu5FNg4dBuxATbOVEF+EoRqgocAhFRIhDwYqzw3rdA4b2E8qQlFosVBW2lJJV3G0IJAFR6UCcK91/5/X7bSZy8d0kN0MYK720LBoNWAKKv/9jYmHVyJpdBDaD0+cvhWOF9eFDeGanSTx5F4WRUnZcMMN04bUunct3SM5mMbX7+wjvuSilXH6JEW9IDAaEFb/LdkU5BtP5KFnly7Va/kjyJdlKqDHW5ypqMoFK4vH7AjXxfnU6e0MiTXad5rV49fiImH1nvduLjdlIpCvNSy1m92jyJgcsJURmyjap1LgM0+YOCpLclt31H3ospf1Rw2g/c0tV3P6pp8tUcst20t7cXHdfUYFgo5avHJqf9TV+OStdLOOzPgcI7bFWVLn/FZEDU0jLeFmbMGP/RQ203Bw6YbVZtd5Wc9G7cWL69urXzaYUfambMGA8UoAUJx46ZZcq8MqjQydd1uOU5cGD8ZF7mcXqthFtQOVl1qNYXCgGGnscJqgwqW1rswa9TnYjCcUIus1wevbxq8knqcUzWmVN9iwqPeZWu07Fj9u0cChUfs/co7y+W5eh53MiynfJjAu2cqAIMKok80k9i5VU3zydYDkHmVKGfrKrGxsasq45weSfmmWpKbg+nEwM6q5Xa/85oMiAqdfJPpZ2sOjxwwH7lajJNpWOY24961ToZ6/Taa+NXlKdp79t0o//oQHQK8UE9RB5ks1m0tbUhGAxa92du2bIF+XweO+RN8ueI2tpaLF68GBsLDyT45JNP9CxERHQmueEGYPNm8+EvPKafHvPmme+rjETMe3eJzgAMKomqtHnzZgDAhg0brLTGxkYEg0Fs2rSp6IE5Z7NUKoX+/n488sgjMAwDs2fP1rMQEdGZYmTEfHDWmjXmA8CuuUbPQSfb8ePmNnjiCSCRGH9KLdEUx6CSqArZbBadnZ0Ih8NFT5HdsGHDOXW1sr+/H01NTViyZAn8fj8OHjzo+JRUIiI6Q9x1F7B8ufnk0tWrzSuWdGo9+qi5DR55xHyydk+PnoNoSvIJ86EdRERERERERFU5dOgQr1QSERERERGRdwwqiYiIiIiIyDMGlUREREREROQZg0qiyXLjjcAFFwAvvqiPoUpccQUwc6aeem769rcBn898+t/Z5Gxdr6lm5kzzWHT8uD7mzHb8uPmKhQsuMNvRFVcATz2l5xr34otmvkhEH0NERJOMQSXRZNi7FxgaMv/ecIM+lipx333jj1I/lx0/Djz+OLBli/mesrPF2bpeU82aNcDHH5v70YwZ+tgz2403Ai+8AGzcCOzZY67fvfe6B5bf+hYQDpuvZSAiopOKT38loqnh+HHzCgtPAolI98QTwIMPFv8oIXs3HDs2nkZERKcUn/5KU4fs1uTzmZ+ZM81f3EvlueIKeze6J54w051+tda7Vu7da6bJsiIRs/wrrjA/qm9/25xW5tU/cjnV/1HoetXYaF9ep2X79redl8WJPm/52bvX/PgK63/jjePjGhudu+QePw6sXDm+bhdcUFznkiy70o96tVGtvwsuMNdvZEQt3TRjBhAKmVcinNbfp9UvlOWS6XJYnb9sF2oXuJER5zpaudIcPn7cLFNfL5lX0tvRjTcWX2ltbLRPow/Ldqd2ndbzwKEe16wxp/X5zOVWVbNtJX1dnPYJvS5KfdT56WU71ZOuXP3LOnriCff1lMcLvT3JeivXLbKaOn/qqdLtXC6L3vZHRuzLItdb0oehlCWPfzLPiy86b0M3pfZrSd9X9OMuXJYRhW3klK6rZB6//KX5V7/Kfdtt5jqqx7hy5VX6XeG1XomIzkWCaCoIh4WYNk2ILVuE2LPHHA6FhDh2zBx/7JgQc+YU5wGEWL16PA9gpqtee81Mb2kxhw8cMIfnzBFixw7zM2eOEAsX2vOJwnLJtD17zHnPmGGmbdxopr32mplXXRYhzHzqPBYutI9X12n1arMsmU+ut27PHvMzZ445Pzl87Jj5FzDLC4fHl3faNHNZVAcOjKfL+tyyxaxzJ7J8OY85c8aH1W0h60Quv1v9TZs2Xm8qWbdbtuhjiutXFOpDTZfDe/aYwy0txW3i2LHxZZDrHgqZw3PmmB9RaDd79pjrJMvYs8esOyHMaQFzWnUbA+b/0sKF5sdp+MCB8WWR5ep5hBhfhlDIvl2d5lftthVV7BNye+vtz6me5PattJ505ep/4cLi9QyFzLyy/cj10tuTXKZS86+mztV1lHnldpX7gjwO6ccnuY/I+lq92hyW1OFjx8bnr66TzDNjxvixRKbp81OV2q+F0pbmzBmvY3WflvRlluSyllLpPPR9QpLLLrdHpeXJ46RK/67wWq9EROeYoaEhUeZoT3SKyJM1N/KkTZ7sSDJokCdk4UJwqpInhzKPPPFUg5pjx8zp9JMTOAQy8sRDP0lX87pNq2ppKQ4mKuV0siZPrvSTHbn+at3J4MkteC0FKN5W8kRLnYdbHbidXMv8TuULD0GlPJHU5yPrQw809ABK0uchubXZGTPsQbx+MiyH5cmvUxvQp5HBk0ouF2Dfjl62baX7hFSq/XmtJzdu5cpl0H+c0Oc3Y0bxvhoKlZ93NXU+Y0bxOr72WnHgogeQTvuCHqDJYfkjFBzarsyjp8vtWgk47Hfyxxa9LenroS+z5NROdJXOw2n5hEP7qLS8Sr4rJqNeiYjOAUNDQ4LdX2lqWLAAeOMN9y5xAwNm98hly+zpt95q/n3+efNvczPwhz/YuzXt3g3MmQPMm2cO798PLFw4PoxC10vZ/eyqq8bzAcDtt4/nA8zpQqHx8U5uuAGYNs3Mo3d3Q6F71rZtwDe+MfkP9rnmGvvwnDn24SeeAN56y3zYxcl8kEe5+uvttadv327+DYeBl192rrdKPfKIWb7T/ZmDg+ZfvRvd179u/p09257uZO9es50tX66PqeyBQ8eOjbflvWUe7iTnddtt9vRly8xtO2PG+Hb0um0r3SeqNdF6KmfGDPsyA8CVV9qHb7zRXD/ZXfH4cXP4xhvt+VTV1PmLL5pl6us4b555XHvhhfG0devMv/G4+bejw55eyo03mttWv6dQ9ZWv2If1fb9asp70tnTffebfXbvs6V5UM4+XXy7upqvXe6XlVfJdIU12vRIRnYUYVNLUsG2b+Xf5cvNEQT/R/OQT59dNyJPxP/zB/Pv1r5vBnAwcRkbMEzH95NDJ+eeb08oTirfeMv/qJxio8KTiqafMMr785eL7in7xC/OvHnBNBv1kSvfLXzoH6JOt2vp74QUzCJQnf/KHAi/kvGVZlbjgAvOvfk+tE1m+U107rZvu+HGzzS5YUDqgLGf6dPv8Jnvb6vtEtSZaT+U4HRN08ocneUyRf2V6tfQ6//hj86/bOspjEwr7Qjhs/uDxxBNmABQOV1a/b71VfttWUk6l5D2Kl1yij5lYm1VVO485c8ynvqqfjRvHx1dTXjXfFZNZr0REZyk+/ZVOPz3gIiIiOhPwFIqIiE9/pSlCPgo+HDa/oJ0+Cxeav9Lr6QcOmNNu3DietmOHmXbggPnL9pw59mkAszy9rHDYHPfaa+bw6tX2YfUTCpm/cuvlrl5tX4YtW4qnFWL81/UDB4rHVfJZuNCcXk3bs8dM27OndLrTslfzgUP9ybpS512u/qAsfyhk375O9QOlfuVHrpusZ3Vdt2wx/9eX1anuhBjPr28zWaY6b32+6kcuu6yLhQvtyyCHjx0bv+KlbzN1Gqf5y4/shimHvW5bONSTcNgn5MepDp2Ws5p6cvs4lSsc6rVUupyXPNaoxwunj9s8hUOdl1pHt+0h68/pmCf3G6dhuT305dKnKZfu9IFDG4DLMsrjrlwOt/ksdDlue5lHOOxcl/qxotLy1LQdO8xlDYXs07itl5pOREQAu7/SlCK7H6LQPVB/FYbT/VfPPmv+vemm8TTZrenxx83uTHoXyFCo+J6948fH730aHR3PB4f7hkZGyt+TJU2bNv6/fMXI8ePjy/v44+PjT5Vg0OyS9+1v62MmV7n6k+Od6vPv/s78K++zRKF7oX4f66FD5l+nLqv/8A/j92eqr39objb/6q8skMHBO+/Y050sW2ZuWzmNavt2c1ypbooorM8TT5h5v/5193tI5bx277an791rtiX5wQS2baX7RLUmo54mg9zf1q61D7upps4lfR1HRoChodLHifff11NKe+wx84eIxx93fh3GZHN7xY/cL+U+LLubqst0/Lh5n3y5bs6VzuOaa8y2re+3g4PmviS7t1ZaHgpdYmfMMMt4+WVz/yEiIm/0p/cQnRYLC68H2LJl/HUG6lMx5VMEZR63x8RLchy0pzQK7ZHz6usT5BP9KnmlyDSHV2JAe72JOg/5OgL1qZzyybXy0ff6cpbi9FRF9cmn5dLlUyTlax6qAYenMDo9/VUo9RdWXnGi15984qL+BFT5FEdJPgFYvrZh48biJ32WWle5nvIpmmpbkk8DlU9OVelPl5Tk8ixcWPpVGQtdnv4q7dgx3g7c8ujrLtuTbLPq/Lxs22r2CVGm/XmtJzdu5ep1VEm6Xs+lVFrncvn0vHo7l2T+aYUn6+r7jP4kVX1YPlVWLVvPI7mlO5HbSCXbxQzltS1Ox12nfUrWt75+ukrnIQptW99v1W0hqixPKHUEh+8Kt/pzSyciOkfxlSI0dRw7Nn6CgMLJmRpkyBPF1avHT8ZmFN4d5kS+niLk8m6+AwfGT3pQCHrkiZF+0rl6tTkvKO+A1E8UhcMrLw4cGD/Bl9PpJy0bN46XLZdXz+Ok1Em9fhLnlH7s2PgrTeTyOZ1wOYHDyadbUCnHlao/GczpZLC1RXmc/44dxWWp9eW2rvIEX7apY8fsPzwsLLziQwb6TmU6tTUZfKnbT68DPcjRh4USWIcLr5ZwyqOv++rV5nLC4QTfy7atZp8o1f681pMbt3Kd6qhUugwSN27Ux7irpM7l8m3caK8//RgmLSz8gCaPUfqy6gGLPiyU49ucwo9UTnmEy7RunJZFFOalHpvnFH4E0+n7lPyBohLVzkO2bbd5VFqeKPGKKFGi/tzSiYjOUUNDQ4IP6qEzQ2Oj+TeV0se48/nMe182b9bHTD0vvmh27Xz88fHuW5Nl717zqbp79jh3Ndy71+watn+/eX/Sf/tveg46U52L29bLsWIiyu1fKplXHpdWrjSffF3JtF6sWWMeU/g1P7lYr0RENnxQD9FUccMN5knmnDnm61NOpWXLxl/por7+gM583LZTy4MPmvdqfvOb5vCGDeawfEgUERHRGYpBJdHpNjJiXsFYs8Z8sNA11+g5Tp4XXzTn3dJiDl97rZ6DzlTctlPLE0+YD4/5xjfG32k5Y4Y5/PLLxQ8hIyIiOoMwqCQ63e66y+wSt3v3qe2ue/w4sGiROe/jx83H6p+MLnh06nHbTj3/9E9mECmvUkrf/CavVhIR0RmP91QSERERERGRJ7ynkoiIiIiIiCaEQSURERERERF5xqCSiIiIiIiIPGNQSSX19/ejoaEBPp8PPp8PDQ0N6O/v17NNSDwet8ov9QmFQvqkp0wqlYLP50Nra6s+iqawXC6H+vp6NDQ0IJfLASXaW+pUvddwConH46ivr4fP50N9fT3i8biexeJUl6eK3P98Ph86Ojr00Zb+/v5J355y3pNVXiKRQHd3t55c1mQvBxER0WRiUEmu+vv7sWTJEvj9fiSTSfT19cHv92PJkiWTGlguWLAAsVjM+kSjUQBAMBi0pd9zzz36pKfMgw8+iGg0iq1bt+qjaArbsWMHDMPA/v37UVtbCwBYvnw5kskkkskkurq6AADt7e1obGzUpj67dXR0oK2tDS0tLUgmk2hpaUFbW5tr0OZUl6dDb2+vnmT5l3/5Fz1pylmxYgU+/vhjPZmIiOjMJohc+P1+EQgE9GTh9/uF3+/XkydNMpkUAEQsFtNHEU2anp4eAUD09PToo856mUxGABDRaNSWHo1GBQCRyWRs6aebPCYEAgEBQIyOjupZxNjYmAAg/H6/ACCSyaSexRM578kqz+uxbbKXg4iIaLIMDQ0JXqkkR7lcDh999BFuvfVWfRRaWlqQyWT05FMqlUrZuuVGIpGKu4Xp0+of2c02FAo5drlV80iVlOnW7VKWJcen02lbWa2trbbuhm7d4JzSs9ksIpGIbV7pdBodHR3w+XwluzHmcjm0trZa0+rdI+Xy6pzS5TrF43Gk02lbl8tEImHLCwDd3d1WnpqaGsTjceRyOfgK3R+z2az1v06uWzabdawTFK7Cr1ixAj09PYhEIkXj5Lx9hbaVTqcBlzrWyen0TyqVsqbv7+933C4obLNK1s1NLpdDR0cHampq4FO2m7qtDx8+DAC4/fbblSnHhw8cOGCllSuv0uWtZN3LufXWW2EYBnbv3q2PspY5HA7ro5BOpxGJRKx18GnbFdq2lfncugMnEgn4tO7wuVzO1p24pqYGHR0dVj3J8gGgra3NmpdMTyQSCIVC1rT6fu+kkvWCsmwyn7pP6Xnclp+IiKgkPdIkKicQCAjDMPTkSVPuSqW8whQOh0VfX5/o6+sTwWBQABB9fX16dptS00ajUZFMJq2rIMFgUASDQb0IAcCWXmmZmUxGJJNJ0dXVVTROCCFisZh1pSUWi4lkMmmlqVeU3K5Y6OljY2PC7/cLwzBET0+PSCaTIhwOC8MwRCAQcLwKrYpGo7Zpo9GoCIfDYmxsTAhleXV6+ujoqDXP0dFRa3xfX5/tf0nWTzgcFslkUvT09AjDMIq2cTgcdrxirl5h1+tEFK7SGYYhwuGwMtX4OH3egUDAmqdTebpkMimSyaR1VU0Oj42NWdMbhmFtf7l+6rpUsm5OxsbGrP2zq6tLJAttSNa/pG8jFQDR3t4uRBXlVbK8la67EzltLBYT0WjUMX84HBbRaNRaN7mN5PaW2zFZ2AcNwxCGchyT8/D7/aKnp0f09fWJ0dHRom0u93f9Km8wGLTVk1w3uf7q9pfrr6ap7U4un1rH+nJUul5COWbrxxV1Hyi3/ERERG6GhoaE81kFkQt5QuUW8E0G9QTSiVEIMHSVdMstNa1+IlZpUFlNmaLE+skTPb07ZjgcFlACAP3k0i1dBmd6eTI4k4GDG7f1ktwCEz1dBrIyGJXzl/QgwXAIMtQTb1mObItqV8jR0VHbOut1IpSTZ1mOStaZXreSU3lu9PUUyvR6QKLPt5J1c6KXI8ny5LROyyZBad+VllfJ8la67k7ktLFYTPT19RXNS3Z9VX+o0OtS79Kr55Pz0PcLdZvLsvR1kOn6Oshp1W0m10PPo+9reh2ry6GOL7deejlSe3u78Pv9YmxsrKrlJyIi0rH7K1VFdhkMBAK499579dGnRCqVQj6fd3xoz9q1a5HJZFy7JpabNp/Pu07r5mSUOX/+fNvwvHnzbMOV2rdvHwAUde984IEHAABXXnmlLV3X3NyMw4cPV738ut7eXkQiEdeHu8ydOxeZTAbpdNqqz5aWFluexsZGBAIB+P1+q5xFixYBgK0rpPxfjtOlUikMDAxg/fr1jstzzTXXAAB27dp1Urv9feUrX7ENz5kzxzbsZd1Q2OZ+v7/ooUORSASGYWDnzp22dNllUv2oKi2vmuUtt+7lLF68uKgL7IEDB2AYBhYvXmzLi8KyCiFQV1dnS1+wYIFtWFq4cKGeBAB466230NrainA4XPTArueee876X3ZpVfcbdbwbuV9Kcr91m7bS9ZLT68eB7373uzhy5Ahqa2snZfmJiOjcxqCSKpJIJLBkyRIEAoHT+vTHt956CwBwySWX6KPKnpxOZFo3J6NM/SRxsk2bNg0AMHv2bH2UzZNPPgkAaGpqsu7/8urSSy/VkywzZswAAHzyySf6KJva2loEAgHbcDgctj0NtLe3F+Fw2LV97tq1CwBcfxSZO3cuYrEYOjs7ceGFFxbdOztZnNqLysu6oXCvZH19vZ4MOPxYAcB6Cq76UVVaXjXLW27dKxGJRGzzeu6554qCJl0qlUJ3dzfi8ThCoRBuvvlmPQug7B+6VatWIZ/PY3BwsOgHhxMnTgCFfUX/qONLcZpvMBgsO2259Tpx4gSCwaAtTTcZy09EROc2BpVUVjwex4oVKxAMBk9rQEmlvf/++3rShNx///3I5/OIxWJIJpNlg1Dp6NGjelLJVyi8+eabelLF7rrrLusqZzqdRiaTwdKlS/Vslmw2i0Ag4NqG0+k02traEAgE0NfXh1gspmc5Zapdt2pcf/31QOEKsP4BgC9/+cvaFOWdzOXV3XTTTda8crkcent7cdNNN+nZgMIDaBoaGtDU1ISHHnoIL730Er785S9j/fr1etaSZJvI5/N4+OGH9dEIBAIQQjh+9u/fr2eviB68qiZrvaSTsfxERHTuYFBJJbW2tqKtrQ3RaHRKBJTy6p9TACWvGrqpZNrzzz9fH+VIXk2czDIn6tixY3qSI7ms77zzjj7KIk/Uo9Eo1q1bh8bGxoq3vf5kUr/fX/Ldgi+99BIMwyjqYqk7cuQIhoeHbWlqV8iBgQEYhlH2ilWp9ZBdKnt7e7F48WLMnTtXz3LKeFm3+fPn48iRI3oyoDzxFQBmzpwJFIJolRyW4ystDx6X1yt1XqW6vqLw48jw8DCSySQ++ugj7N+/H9/97ndxwQUX6FlL2rJlCxYvXoxoNIrOzs6iK/fDw8Mlg0AvhoeHXXsuVLpe06dPx8DAgC0NhdsZampqrG1+MpafiIjOHQwqyVU8HkdnZyei0WjRPUSnS2Njo+O9YQDw2GOPlQxOyk3r9/ttQURdXR0GBgZsJ1ryRFLmq7bMyfTCCy/Yhl966SXb8C233AIUui6r5LK+8cYbtnQnhmFY/+dyOcfXP/T399vy6MGGfAWN+voFKZFIWPc4QqnPbdu22fKlUilkMhlkMpmiE99IJILBwUE8++yzZYOY6dOnuwZJKvXEPJFIOC77qVDNuqGwzZ3uK04kEsjn81abkF1Xu7u7bflk8CHvg6y0PKna5Z0I2QW2XNfXEydOIBAIFB0X5D3H1frOd74DwzBs91HL/3fs2KHkNIN0X4lXk6hk12xJ7rduV2ArXS95tVg/Djz//PNAoTvyZCw/ERGd4/Sn9xAJ5dUK8jH0Th9JfTLjZChXnnxSYTAYLHqFx0ReKaJPq74KQ+aVT3RVnxxaTZmixPrpT011S5fTyzKShdd9yDT5BEf1dRA9yitF5Gseyr0qQD4ltafwegVZlv4KFDWPXG99PeTyBQIB4S+8nF6muT1JU3+liHwKrl6nan24jZN10ld4cqgsW32CqJpfjpfrKJdRL68Upyesuk1fLt1p3Zyo21y2jZjDK0BE4emfUNqQXFf16afVlCfKLG+5ddTTVTKPus/IbanPS66HLE+2M7n8sp0ahmHL57YcTunyibXq8gQKr5CR85Ht1jAM2xNaZd0lHV4pIl81IutYfSKsvhyVrpdQXikijwOyjrq6umx5Kll+IiIiHV8pQq7kSVOpjyRPdtQTrImopDwZ5MhlkUFAJaqZdnR01BYohcPhokBEVFmm2/rJEz2dni6nl68EQOHdek6vZhgbG7MFnMFgUIyOjloBhdNrNaSxsTErkHNad7lc8gRYli/L1sViMWt55TK7vaqgrxDAQ/lhQ742Qn/lg6jg9S1qnejLIU+2pZ6eHlu9qtvJqTw3kxFUihLr5kZuc7lN5Do4bWu1LvR1laopT5RYXrd1dEtXue0zMuhRyXYpy3NbfvnDmWxPbsvhli73dxlwjY2N2erTKPwQogdkMliTZcryu7q6rDajtnlJX45K10vmbW9vt+VVA0qZp5LlJyIi0g0NDQmfMN+bRURTVDweR1tbG+Sumkql0NTUhGQyWdT17VTSl6tSoVAIAwMDVU93MuRyOdx///3o7e09rcszVbbp6XAurzu4/kREdBY4dOgQ76kkonNXbW2t5/eAEhEREZGJQSURnbM6OjqwadOmsu/xIyIiIiJ37P5KREREREREnrD7KxEREREREU0Ig0oiIiIiIiLyjEElERERERERecagkkpKpVJoaGiAz+eDz+dDJBJBNpvVs02aXC6HeDxum2d9fT06OjqQy+X07I7i8bg1rf6Jx+N6dnJRX1+Pmpqaiut9Kjj++09Qd/c2rPzBoD7K5vjvP8G133wGN6zfjeO//0QfTVPEz17/dUXb83Spu3tb0Wfpt/bp2TDy3oeu4+jM0draCp/Ph1QqpY+iCdK/q9WPKhKJoKamBul02pZ+JnE7R3FqV2xzdCZhUEmu5PvTamtrkUwm0dfXh0wmg0AgcFICy3Q6jVmzZmHTpk1obm5GMplEMplEOBxGZ2cnZs2aVdEXyfLlyxEMBmEYBrq6uqxykskkli9frmcnB/F4HB999BEOHjyI2tpaffSUNeOz52PRvEsx9PZvSgaL2/rT+H/+/Bf88+obMeOz5+ujaYr47/86gkXzLkX3N5v1UVPC5pavWp+6i6bjc9M/g//6N8WvqPn2j4dQd9F0/Pf7b9BH0RkilUqhs7MTPT09fJ/oSdDV1QXDMBAMBm3f2clk0sqTSqUwODiIgwcPYu7cubbpzyTLly+31q2rqwsA0N7eXtSu2OboTMOnv5KrUCiEI0eO4JVXXrECi2w2C7/fj1gshnXr1umTeJbL5TBr1iz4/X709vairq6uaHwoFEImk8Hw8HDReCfd3d146KGHsH79etx7771nVHBE3j194E1sfGYIq5c14P6bv6SPJppUx3//Cf7u8RcAgD9SEE1ANptFa2srcrkctmzZctYHUolEAitWrEBPTw8ikYg+muiMwqe/Ukm5XA7hcPiUBGM7duxAPp/Hli1bHAPG2tpabNmyBfl8Hps3b9ZHF+nv78f27duRz+fR1taGq6++uugqZygUQigUsqV1d3ejvr4ePp8PNTU1iMfjyOVy8Pl86OjoAArdQuvr623TofAF4fP5kEgkgEL9ya4rvkI3XrX7rdP89WkaGhqs8iTZdUaVzWYRiUSKutPoXWv0NPlRy02n07bux/JLXpdOp9Ha2oqamhr4CuvX39+vZ7Mc//0nWPmDQaub4LXffAYPP2126Xn46VRRN8JSHwD4ycvvou7ubfjJy+/a5nP3oitw3qc/hQMjR23p0tMH3sS133zGKuuOTc/jZ6//2uqi+I/dB/VJ8I/dB1F39zaMvPdhyTJQYrlU+vrIjzpNbPcr1jyuXPnPWPmDQWv+pdTdvc2qVxS6kF658p+LuvpWUr5eFpT1U9P1Yad0L9tYTlPOT15+Fzes321Nu/IHgzj++09ww/rduGH9bgCwujvrnj7wJuru3oYnf/o6UGin/9h9EFeu/GfUFdrp0wfetPI9feBN2/RuAeXSb+3D0m/tw5M/fd1Wz2o9udWJ7CYrx//s9V87rp9q5L0Pccem54vKUj/VlolC+1n5g8Gi+nAj11uS2+HKlf9s7SNwaH8PP52yuq/LfbCSfQmF4708bvsKt2nI47087qndB3O5HDo6Oqxjl9NH5tePraFQCOl0Gh0dHfD5fLZjtn6clN8dra2t1nC13wlO9NtS9E8oFHLtYqmWr6+b0/eNrtT3iNNH1mOpbYRC3WzevBmHDx/G8PAwmpqarO9clc/hNhb9e7u1tbWi3lR6O5DfYf39/fD5fOjv769428JhOZzOH6T+/n7HgFLWb39/v2O7k9Q6Vj+pVKriMuBQB04fuQ19hbp3qjMn3d3dFZ1L0NmDQSW5evXVV/Hd737XGk6n0wiHwzAMY9K7kW7btg1+v7/kL5ONjY0IBAJlv/QSiQSWLFkCAOjr60NfXx/q6+tx3XXXFR1QVd3d3Vi1ahUCgQCSySS2bt2KTZs24Y477gAALFy4EADw6KOPIpPJFC3Hhg0b4Pf7rS+Ihx9+GIlEAj09PUgmk2hubsbIyIjrQTVXuBqrTtPQ0IAVK1YUfYmq0uk0AoEAMpmMNV00GgUAa12SySRmz55t606kjlMtW7YMt956K5LJJGKxGDo7O/Hwww/b8iQSCVx11VXIZrN45plnkEwm0dLSgjffdD/ZfHTXIQy9/RusXtaAzS1fxRfr/grZ357A8d9/glsWzMLmlq9i5RKzS9OieZcWdS2E0t2wlJH3PsQf//wX/Orff18UJI289yE2PmN2Rdzc8lWsXtaAD0/8Ce+PfYJ5sz6Huoum49Dbv7FNAwCH3v4N6i6ajnmzPleyjEq5rVfDX18EAFj5g0F096Vx7eWfx+aWr2LVkqvwq+zvcPfm/qJ1KuXJn76Of+h6CZ8zzrMFPZNVfjUmcxurfvb6r7Fm288BAI/cuQCP3LkAmd+ewH998kVkf3sCX7zsswCApQtnIfvbE0XrN/T2BwCAm681fyhav+N/4bmh97C0sLw3zLsUG58Zwr6X3wMAXH/VF6xp/7H7ILK/PYGHwlc7XqHM/PYEnvnZW7jza3OwueWr+OJln8WPX3rbCmDd6kTvQrthZxLXzr4Ym1u+ijuuvxwHRo7i0V2HrPE/e/3XuHtzPz488Sdr/1o071IAsNqpXqflykSh/XzjiQF8mP8j1iw3y71h3qU48sEJWz43P3v917jt0X/Fh/k/4olV1+NrXzLrLrb7FXT3pa1lW7XkKjw39B7+65MvAgDm1pnbrBLZbBZLliyxjmc9PT3IZDL4zW+K92Mox9nOzk58//vft45zhmHAMAz09fVZx8tcLofm5mYMDg5ax9bp06fjuuuuw+DgIAKBAGpra3HTTTcBAA4cOGCblxyW46v9TnCSSCTQ1NQEv99vfb8Fg0EAQDQatdZHdrGU3SvVcXD53pDfN3oApCr1PZJUvnvkrSezZ88uu43UbbJ+/XprOTs7O21Bm5PW1lasWrUK4XAYycL3ttw25QLL+++/H9/73veseba0tGDJkiX44Q9/CAC4+uqrsXLlSqCCbVvp+QMKbfbOO+9EOBx2vUJ55513oqamxqqvw4cPY9myZdZ4Wd+BQMA2PHv27IrLqGZfkDZt2oTXXnsNzzzzDPr6+mAYBpYsWWKr61wuh4aGBjz00EPWuURfX1/Z7UFnAUFUAQDWp6enRx89YQBEMBjUk4tEo1EBQGQyGX2UxTAM4ff7xdjYmC3d7/cLv99vDQeDQds85XSqZDJprbdanl5WT09PUd0YhlFynfT5yzKSyaQtX3t7u22dY7GYUHfdcDgsDMMoWl9ZV6Ojo7Z04VLfslx9+4bDYdv8MpmMMAxDRKNRW75yrmh5SvzNIz/Rk232pv5NXHZXt9iw014Hf/PIT8Rld3Xb0mTeval/s6Vv6v2luOyubsdy5Dh9GulH/zoiLrurW7w4ctRKe3HkqLjsrm7xo38dEaKCMtyWy4nTesn56cv+2rv/IS67q1u0PDFgS9fJaeW6fK2tVxz73R+s8dWU75TPaRvpw6XSnaYXLnWxYWeyKE13+/f/p7jsrm7x2rv/YaUd+90fxBUtT4nL7uoWOwffEEJZv029v1SmNtulXGdZN3ody+X4Wluvlea2HpJcH3W5hMt+4FaWnK9se5JcZ3X4ipanbNtZCCFanhgQl2ntudIyX3v3P2x1U6m/eeQn4m8e+Yl4ceSouKLlKXFFy1O2+YtCHVzzwP+wpck6uOyubms9KtmXurq6HI+bkjyGy/Fu+eXxt6ury0qTefVjYjAYFABEe3u7leb3+0U4HLblC4fDtu+Jar8TnLiV4ff7hWEYerK1/rFYzJZe7nuj1HesVOp7RK1ftzqX5Hi17oXL96q6LqOjo47rlslkBICS31FyWj2PXP5AIGClVbptKz1/CAaDjnUvlGn05XKrQ9kWVZWWoQ9LTvuCKNS9vo5O26C9vV0YhuF47kFnr6GhIcErlVQR+UtTMBjEihUriq7SnSqXXmr++v7BB+bVBV0qlUI+n8fatWuLuu2uXbsWmUzG1g1KktO1tLTY0uXVUb/fbytPvVqZy+WKrlICQHNzMw4fPuw4PyfPPfec49Xa2267DXD4pVTq7e1FJBIpWl/5C+vAwIAtvZz58+fbhufNs181kd2Pv/Od79jSy/niZZ9F5rcnynZlm6jnXn4PdRdNR91F0/Gi1gU2MOv/AgAMDB917Oonr1b1HR7/RVX+L8eVK2Oifv6r40DhKpZq3qzP4drZF7t261UdeucDPL73VdRdNL2oW+ZklD+VHHrnA3zxss9i3qzPWWnygU0AcOWl5lUveSX6wMh4F8ynD7yJP/75L1hw+cWAUjfBgDmt1LLYvJLoL1xNBYB/OfAWzvv0p6xxTj43/TO25YJWRqWunW0unySv6kqH3vkACy7/fNHV0tu+8n8DynqpypXZ3W/26thw+7W29Ep8mP8j/qHrJQCwXaFEoUvrH//8F9xQ2D7S3y78a9QVHnakr0cp11xzDQBg165dFV3x27dvn+NxNhKJwDAM7Ns33nVX/q9fTXrggQcAAFdeeaWVFg6H0dvbay1DLpdDb28vwuGwlafa7wSd/J6655579FFYu3Yt8vl8xWWX+97Ys2ePLX0iym2jffv2wTAMa96S3CY7d+60pUvyu03vOVVXV2c94M+NnPb222+3pd97770AgIaGBiut3Lat5vwhlUphYGAA69evL6p71Ve+8hXb8Jw5c2zDlShXRjX7gtTcbH9omv7ApGw2a1391cfR2Y9BJVWksbERixcvxv79++H3+8t2STlZjh41T3gvvth+QqTTD55q2vvvv6+PKqm2ttbqYiJFIhH4/X5s2LABO3bsQCaTwaOPPmrL8+STTwIAmpqabPcluDlx4oTjvZrywPzxxx/ro6zuvDLYVnk9oDvd06oaHBx0PBkpZ9O9/wUAsGbbzyu6T8qLn73+a3x44k+4ZcEsLJr3BXx44k+2+7i+9qUvWF39/suanqJXPMz47Pm4dvbFti6wh97+Da6dfbF1oluujInK/tbsWqgHI3A48Xcjy1g07wtFJ+iTUf6Z4LxPfwrnffpTtvVcNO8Lti6wQ29/gPM+/SncvegKZcpisg7rLroAKHSj/tW//x6L5l1aVL+qzxnn6UmeOG0rSbbvv5r+GX2ULZjTlSoTAH6V/Z1joFqJD0/8CX/881/wxcs+W3IZdP/p05+qug3OnTvX6ip54YUXlr0n8fDhw47HWTj8oOZm2rRpQKErqKT/+Cf/ynR4+E7QvfXWWwCASy65RB/l+J3n5mR8b5RSyTZyq/v58+fjyJEjejIAYGRkBHD5ztJ/DK2U/F5T66GSbetGP3/YtWsXoASvbpy2cbXKleFlX3BqM6rDhw8DDoE+nRsYVFLVWlpaqvpFtBJ+v9/1i0P16quvwjAMxy+RU62lpQWZTAZtbW1FVylRuF8jn88jFosV3ZdwJstkMmW/WJys3/G/8Mc//wV3XH85Niv3D06m3b/4N6BwVfH26y63paFwAv7jl95G3UXT8cidC4ruXQOABZd/3gpGZZC64PLPW+MrKeN0kwFVd1/6pATvldDvXZwKZJs48Lr549TQ27+xbdtKHf2d+QNPNff+nWk+PPEnx0C1Up+b/hkceucDxwc4TaZ0Oo22tjYEAgH09fVZ9wyeanPnzoXf78dzzz0HKD1P1ODkbP1OKGeqbCOv5s6di0AgUHLbViqbzVr34p6Njh07BrgE+nT2Y1BJjtLpNGpqatDd3a2Psq6YlbtaWA0ZoJUKVFOpFIaHh4uCN9X555u/qstfdFXyCmW5X+90R44cwfDwsJ6Me++9F4ZhAIXusCrZPSYajWLdunVobGys6EvEKbCWvypfcIF5lUQlv9TkFVxVqekmwjAM6xfiSh3//Sc49M4HWDTvUnzn7kb87cK/9nQFpJyht39jXT2SVx2HlKuOsitr/N7/grsXXeF4FUV2cx1+7z+Kur6iwjImQl6pcQrK5FXGcpYumIUnVl2P8z79KTzyLy/buulORvkA8H+VuQonA6/T5XeFq2Xqeso2cWDk11Y3TNlFtBRZRva39nU6/zP/X9vw6SDb3+9O/EkfZV3F/E//56f0UWWd9+lPVdUeVF+87LPYveFvUHfRdPz4pbcr/mHjw/wfq57n7t3mE317e3uxePHisif6pa58HT58GNOnl79SKr9L3nnnHVt6OBzG4OBgUfdITOA7QVWqt438zpPfgaVU8r0xmcpto+nTp1tXuHRHjhxxvZomr0Y6PQCm2u8oSZal18N9991ndYHt7e3F2rVrbePdOJ0/VLvdT5bJ2Bd08nxDrz86NzCoJEfyoP/YY4/Z0uUB1e/3T+ovUTJAu+eeexy/IHK5HB588EEYhoE1a9booy3y1+LHHnus6N6NnTt3wjCMovsHUOjeaxgGtm2zv74glUohk8kgk8kUlaeSv87pZNAJ5UlrpQ62ToG1/EJetGiRLV0Kh8PWvZ0q+YOA23ReRSIR9Pb2llwPN+d9evzk9vjvP8HSb+2zdU+diCd/+rrt/jgAaP7ypfjjn/9iPW1T+qxyBebJn76OlT8YtIbVwOOQEqTqSpUxEV/94gwAwL4h82mj0sh7H+LQOx8U3Qvn5mtf+gJWLbkKf/zzX6zXXqDK8uXVJtXrR34HAPjPM2ps6W75TrZrZ19c9KTf47//xPox4Y2jv1dym1eis789gYHho/jc9M/YfhSQdTMwbD/ZlnWVKQQ8F3zm/wAA/Db3R1u+00X+eKLf4yuv0i/6UvU9CxZc/nkceucDz/vnjM+ej4fCV1s/bMjt87cL/xrnffpTRfc7/+Tld/HhiT/hwxN/KlqPSqg/niUSCddbNG655RbH42wikUA+n8fSpUtteeU4lbzH74033rCl33bbbcjn87j//vsBly6O1X4nqOT3lNM9ho899lhVV8/KfW/IJ8pOJrdttHTpUuTz+aIfseX3r9wOOrmM+v2f2Wy2KKjXyWlld1RJlvXqq6/a0uX3qHwSuvq9Ws35w/Tp010DuVOtmn2hUrJevv/97+uj6BzAoJJcbd26FZlMBpFIBKlUCv39/QiFQvjoo4+wd+9eK1+q8E6kUq+9KKe2thYHDx7ERx99hEAggI6ODqQK71vq6OjArFmzkMlkcPDgwbLB7M6dO5HJZBAKhax3ToVCIQwMDOCZZ57Rs1v09U0kErj55putL6ZXXnnFll++W9MwDGzatMn25VxbW4tgMIjOzk4kEglrGdx+jVXdfPPNSCQSSKVSaG1txfe+9z20t7e7rvdDDz0EFN5xpk7X2dlZcjqv1qxZA8MwcNVVV6Gjo6OiE6IZnz0fX7zsszgwchRP/vR1PH3gTfzd4y9YJ+mTYejt3xTdHyffWSkDjMYrzK6O63f8L/zk5Xfx8NMpPL7XfvIAJfAwu77ag7hKy/Dqa1/6AhbNuxQ/fultrPzBIH7y8rt48qev4/4fHcB5n/4UVi8bf4BEOfff/CUsXWC+SkO++6+a8u/82hxkf3sCd2x6Hj95+V3Edr+C54bec7xXTs338NMpPKcFrSfL14NX4rxPfwrrdvwv632Sf/f4C9arRNJZe1B587X1OK/wHtNrta6vsm4OjBzFw0+nrHX58Utv49rZFyNbeAXO1770BdRdNB1dfaN48qev4ycvv+spEJosXw+aD4z5u8dfsJZn5Q8GcWDkKJYumFX2/kknKxfPxXmf/hS+8cQA/rH7oKfg8mtf+gLWLG/AH//8F6zb8b+s9FVLrsKHJ/5ktZcnf/o6HvmXl60fNF4arXxeN954I1DoWppKpRCPx7FixQo9m2X58uUIBAK4+eab0d3dbU3T2tqKQCBg6wkj87a2tlrH1kgkgiNHjiAQCGBw0P5DkvxRs7e3F4FAwHbsnch3gmrr1q0YGBhAJBKxfb9lMhnrVRiVkN8bV199teP3RqXBaSXKbaNIJIJgMIhVq1YhHo9beW6++WYEAoGiB/hIc+fORTQaRVtbG1pbW63v7ebmZhiGge9973v6JBY5bWdnp22ebW1tCIfDGB4etn2n19XVWdtP37ao4vzhrrvusuWr5PvzZKlmX6hUXV0d2tvb0dvba733VP/hgs5eDCrJVSQSQV9fHzKZDJqamrBkyRL4/X4cPHhwUr9wpLlz5+K9997D+vXrMTg4iKamJjQ1NWFwcBDr16/He++9V9F8GxsbkSy8Q2vJkiVYsmQJpk+fjmQyicWLF+vZLXJ95YuXW1tbsX79euvhCi+//LKVN5fLYdOmTQgGg9i6dSvy+Tx27NihlAb8+Mc/RnNzM1asWFFx3QWDQaxfvx6tra3WusdiMdv7QnVz587FwYMH4ff7sWLFCjQ1NeHVV19FT09Pyem8qqurw/DwMMLhML73ve/hqquuQn19fdGv+br/fv8N+OJln8Xje1/FxmeG8Lnpnyl6MqRX8iqbfOKnatG8S3HonQ8w8t6H+NuFf43VyxqQ/e0JrNn2c7w4chR3XH85ur9pf6Ld/Td/ybovUX+IS6VlTET3N5txx/WX41fZ32HNtp+jq28UX6z7Kzy9ZnHVAcI/rbwO186+GM8NvWddsa20/Ptv/hIeuXOBta7P/OxtLLj88/jv99+gzMF07eyL8cc//wVrtv0czw29h1VLrtKznBRf+9IX8MSq6/GfPv0pbHxmCBufGYL/ounYdO9/Qd1F0/Grf7cHlTM+e751H+WS+cU/uMi6eW7oPWv7PnLnAjR/2WxbMuB5KHy11Z7XbPu59dCm0xFcyjr43PTPWMuT+e0JrF7WgH9aeZ2evSLzZn0OT69ZbLWdbzwxgGu/+UzRVf9y7l50BVYumYvsb09YV/P1dtXVN4qlC2ZZD/PSfwgopbGxET09PdZxe9u2bYjFYti6daueFSgEd/v370ckEsFDDz1kTbN+/Xrs37/fNa88tp44cQJ79+5Fc3NzUeCBwlNYUeguqfPynaBTv5er+X7Tye+NQCBw0r83KtlGP/7xj9He3o5NmzaV3Ca6rVu3IhaLWecMra2t1rbRAz+dnFadZ19fH+666y7A4Ydk+dRdp21b6fnD4sWLEYvFrHxXXXUVampqyn5/ngzV7AvV+O53v4uuri7k83msWLECF154ISKRSNG+Qmch/T0jRFSe/i6uQCDg+t6pSlXyjrLTQX8vpmpsbEz09fWJQCAg4PJOzDPV3xTet0flOb1j8Vzj9q5J3WS0q0re31mtUmUe+90fxM7BN8TX2nqL3ntJdvp7MYlKGRsbK3oXtJPJaFeTUYYT/T2VqtHRUescQn/XJ51d+J5KIg+y2Sza2toQDAat+zO3bNnieLXybFdbW4vFixdj48aNAIBPPjn1V2mIpoK/XfjXetJZY8Znz8fdi67A/+9r5tNzP/7T/6tnISIPamtrPb/+5Ewwd+5crFu3DoFAACdOTN7tLjQ1MagkqtLmzZsBABs2bLDSGhsbEQwGi+6tPNulCvfaPvLIIzAM45x5RD6R6icvv2u9r/RL9X+ljz7j/eTld/H0gTfxP372Ns779KdOyuuAiM5FHR0d1q00Z5tsNmvdpzk8PIzrr79ez0JnGQaVRFXIZrPo7OxEOBwueorshg0bzqmrlf39/WjS7rWdKo9KJzqV9ibfxf/z57/gkTsXnHVXLJ8+8CbWbPu57T5op6chE1F10uk0Ojs7EYlE8OMf/1gffcYLh8O2e2jXrVunZ6GzjE+Y/aGJiIiIiIiIqnLo0CFeqSQiIiIiIiLvGFQSERERERGRZwwqiYiIiIiIyDMGlUSlvPgi4PMBkYg+xtlTT5n5n3hCH3NKLf3WPly58p/xs9fNF7WfzXK5HFpbW1FTUwOfz4eGhgb09/fr2aa81tZW+Hw+pFIpfdQ5q7u7Gz6f77S8GJyIiIgqxwf1EJXS2AhccglQzUntzJnm5zQFB08feBOb97yKJ1Zdj6996Qv66LNOQ0MDMpkMtm7diksuuQQ/+tGP0Nvbi76+PixevFjPPiWlUik0NTWhp6cHkUp/wDjL5XI5zJo1C1u3bmWdEBERTWGHDh1iUEk06VauBLZtA157DTiLX2o8FSQSCaxYsaIoGKuvrwcAHDlyRMlNRERERJONT3+lKSEej8Pn8xV9QqGQlSeVSqGhocEaF4lEbN0EZdfBXC5npaFwtcPn86G1tdWWblmzxuyuqn/kOyjleADYu7c4n/yobr3V/Ltrlz1dGhkBbrxxfNorrijbXfYnL7+Luru3OX7U8T95+V3bdA8/nbLSS5Xh9FHLiu1+Bdd+8xnU3b0NV678Z6z8wSBG3vvQNi8n6XQaoVDI2m5q11Q1vdxHtgXZVqRf/OIXAFB0JaulpQWZTAbpdBpwmE6SyyC55dPTU6kUfD4f+vv7EYlEbMsp5wmgaD3kJ5VKVVyGlMvl0NHRgfr6evh8PtTU1CAej+vZbOLxuNUtuKamBq2trUX7iJqnvr4e8XjcypPNZuHz+dDR0WGbBoWXdvt8PmSzWSuv03rIfOp89f1Z/8jtHQqFbMcBFLrE6nUg93N9Ob3UGREREVWPQSWddsuXL0cymURXVxcAIBqNIplMIhaLAYWrUU1NTfD7/ejr60NfXx9OnDiBpqYmK0BZuXIlAODAgQNKyePDN910ky3dcvvtwJ49wMaN5nA4bA5/61t6TmD+fHPcnj3m8Jw59mHpzTfNv7t329NRuEfzuuuA48eBLVvMaa+4AnjwQfMKp4uGv74Im1u+is0tXwUA1F003TZciVJlbG75KhbNuxQAsHLJXGxu+Soa/voic/gHg+juS+Payz+PzS1fxaolV+FX2d/h7s39ZQPLZcuWIZfLWduttrYWbxbqJxaLIZlMIhqNAgC6urqQTCatDwAEAgFbW9Bls1kEg0E9GQsWLAAA/OY3v9FHTao777wTNTU1SCaT6OnpweHDh7Fs2TJrvFyXQCBgG549e3bFZaAQnM+aNQu9vb149NFHkUwmsXXrVoyMjNjyqRKJBNra2rB+/Xokk0msX78e2WwW77//vpWntbXVlqelpQWbNm3CHXfcAQCoq6tDIBBAb2+vUrKpt7cXgUAAdXV1yOVyaG5uxuDgIHp6epBMJjF9+nRcd911GBwcRCAQQG1tLeCyP8ttqO/7uu7ubqxatcpqF1u3brUt78KFC628XuqMiIiIPBJEU0QymRQARCwWs6UbhiGCwaAtTQgh/H6/8Pv9tuFwOGzLEw6HbXlc7dkjBCDE6tX29NWrzXQdIMTChXqqKRQyxwNmufq4adOEOHbMnh4Om/lfe82e7uCyu7rF3zzyE1va3tS/icvu6hZ7U/9mS9+wM+mY7lSGU94XR46Ky+7qFht2Jm15X3v3P8Rld3WLlicGbOmq0dFRx+2pi8ViAoBIJu3zAFC03WXeUnmEQ1vSp5OCwaAt3S2fni7Lj0ajtnxdXV2O66LPR1RZRiAQEIFAQIyNjdnylhIOh4vmqcpkMo7bp6+vTwAQPT09Qgghenp6BAAxOjpq5ZHbVuaRyyyHJbne7e3tVlqp/dkwDFtaMBi05TUMo2h/lvUIwFY/XuqMiIiIqjc0NCR4pZKmtFQqhXw+j3vuuUcfhbVr1yKTyVjdYMPhMHp7e61udrlcDr29vQiHw9qUJ9HICLB/v3nFEwCefdY+fv9+s+vrjBn29PvuM/+6dZk9TX7+q+MAgFsWzLKlz5v1OVw7+2IcGDlqS1fNnTsXhmHg2WeftbpIngwDAwNF3Sebmpr0bCfFV77yFdvwnDlzbMOVKFdGIpHA8PAwtmzZYl3tq8R1110HFK7uOZFX8ZcvX25LX7x4MQzDwHPPPQcAWLRoEQBgt3LlXf4vx+3btw9w6Ib8wAMPAACuvPJKoIL9OZ/Puz79Vk7b0tJiS29sbEQgEIDf77ddDfVSZ0REROQNg0qa0t566y0AwCWXXKKPKjr5vu222wDlZFn+lemnxPPPm3/XrQNCIeCFF8bHvfii+ddhXXDDDXrKlJD97QmgEETq6i6aricV+elPf4rh4WH4/X74HO5VnAyyK6T6kV2pTzandlmtcmX84he/gN/vR6O8z7dCK1euRDAYxKpVq+Dz+YruJfz444+BQhdX3fz583HihLnta2trrR9sJPljTbmAbdq0aQBgdfetZn+uRm1trdXFGBOoMyIiIvKGQSWdNebOnYtAIGBdYXnuuefg9/sxd+5cPes4+bAcebXm8cftD+B5/HF7PvkBgJdfLk5/5BFz3Je/bF6V/MMfxscVruoUzUMtU87vLJDL5XDPPffAMAzrPrvJFgwGUVtbi8bGRttHBihXXHGFPoknR4+6X5E92bLZrPU022p0d3djYGAA4XAYyWSy6IpkNZYuXWo9+CidTiOTyWDp0qV6tinDa50RERGRNwwqaUqTwYH6cBFJXvVQ3XfffVYX2N7eXqxdu1bPYifvfpQP21m9ejxNCHNYzSc/ALBwoT1NPiRoy5bxtGnTzCuW6nThcHF5clo5v0l26V9doCdVRF6NdHogj7yK6eaVV16x3h8ZiUROylWjuro6HD58WE+22sbnP/95fVQRv9+vJxU5md13y5k+fbrjOpazfft2+P1+JBIJNDY2Ol6RhMu6HT58GNOnj1+Jlt1cf/nLXxZ1fS1F7rfvvPMOUOH+fP755+ujyjpy5AiGh4etYa91RkRERN4wqKQprbGxEYZhYOfOnfooPPbYYzAMwxasyBPdhx9+2DZ8Smzfbv5Vn9wZiZhXLOUTJ2WX2OPmvYoWOa32+oRKyaAx9ab9aadv/Pvvcd6nP+XYfbUSX/2iee/nvqH3bOkj732IQ+98gGtnX2xLdyK7QEJ5xYj+WguvvvKVryCfzyORSNjS9+3bZ7tKPXPmTACwnhaMwpXUw4cP27pNSk75TpelS5cin8+73htZimEYtuHW1taiutqjPb24v78f+XzediVSdoHdvn07ent7EY1GbV1fb7nlFqBwL6NK7rdvvPEGUMH+XKpngZx22zbzNTpSKpVCJpNBJpOx2tVE6oyIiIiqx6CSprytW7diYGAAoVAI/f396O/vRygUQiaTwTPPPGPLW1dXh2AwiM7OTut1B6fMCy+YQaH6EB75zkp5r6W8Erlwofluyr17zcCztxdoafF8b+W8WZ/DonmX4rmh9/Dw0yn85OV38Y/dB/Grf/89lmoP2anG1770BSyadyl+/NLbWPmDQfzk5Xfx5E9fx/0/OoDzPv0prF7WoE9iufrqq2EYBh555BH09/cjkUjguuuum7SAEoUHwwQCAStYSqVSiEQiGBgYwA9/+EMr36JFixAIBHDnnXda+e644w7k83n8/d//va1MFF7zkUgk0N/fb+U7XeQ6rlq1CpFIxBbwlnLrrbdieHgY8XjcqpfOzk49G9ra2qw88Xgcd955JwKBQNFDd5YuXYrh4WFkMpmiV/QsX77ccTscOXIEgUAAg4ODVl65P8t1UfdndZs52bp1KzKZjPWe2kQigZtvvtl6GNcrr7wCTKDOiIiIyBsGlTTlRSIR9PX1IZfLYcmSJViyZAmmT5+OZDKJxYsX69mtJ0veJ5+oeio88YR5/6QMIqUbbjDfZymvRN5wgxlIzpljvpty+XLzvZZbtgATvKrS/c1m3HH95Xhu6D2s2fZzHHr7N7jj+svxnbsn1u1Ulvur7O+wZtvP0dU3ii/W/RWeXrO45BXQ2tpaHDx4EACwZMkStLa2IhKJYP/+/WUf8FKN/fv3IxKJoLW1FU1NTchkMujr67O1jdraWivfihUr0NTUZL0/06lb7vr169Ha2oolS5YAANrb2/Usp9T+/fvR3t6OwcFBLFmyBDU1Nejo6NCz2axbtw7t7e3YtGmTrV70YLGvrw/btm1DU1MTNm3aZG0jXSQSgWEYMAyjaL9zqt8TJ05g7969aG5uxvDwsPVjgtyfM5lMRfuzSk47PDyMpqYmtLa2Yv369XjyyScBAC+//LKV10udERERkTc+Yb7rjYjonBePx9HW1gavh8VUKoWmpiYkk0nHYLUS5cpIpVL40Y9+hN7eXnR1dWHlypV6lop4WddQoXu2U9A5lU1WnREREVGxQ4cO8UolEdGZpLGx0boyJ18LQqWxzoiIiE4uBpVERGeIdDqNVCqF+++/HwCwYMECPQtpWGdEREQnH4NKIqIzQC6Xw1VXXWW7P9KpeyyNY50RERGdGrynkoiIiIiIiDzhPZVEREREREQ0IQwqiYiIiIiIyDMGlUREREREROQZg0qqWCqVgs/nQzwe10dNSDweh8/nK/uR78g7HeS6t7a26qNoCsvlcqivr0dDQwNyuRxQor2lUil98jPT8eOAzwdEIvoY0/HjwMyZwBVXmP+fgY7//hOs/MEgrlz5z6i7extuWL8bTx94U89m+dnrv0bd3duw8geD+iiawurr61FTU2Ptu0RENHXxQT1UkVwuh1mzZiGfzyMWi2HdunV6Fs9SqRSGhoas4aNHj6KzsxPBYBDXX3+9lT5z5kxE3E6UT7KGhgY0NDRg69at+iiawuLxOJ599lns378ftbW1AIBsNosPPvgAAPDWW29h1apVaG9vx3e/+11t6jNYJAK88ALw5pvAjBn2cWvWAPv3m+P1cWeIG9bvxof5P2LVkqtwUe152Jt8F4fe+QCP3LkAdy+6Qs+Opd/ah88Z56H7m836KJqi4vE4Nm3ahIMHD2Lu3Ln6aCIimkIOHTrEoJIqEwqFcPjw4ZMSVOpSqRSamppO+nzo3JZIJLBixQr09PScth8rTpqnngLuvRfYsgX4h3/Qx57Rnvzp63h876tYvawB99/8JSv92m8+AwA49IM7ldxERER0svHpr1SR7u5uHD58eEpdpUulUmhoaLC6LkYikYq7L+rT6h/ZzTYUCjl2uXXqiltJmW7dLmVZcnw6nbaV1draauv+Jbvi6uvrlJ7NZhGJRGzzSqfT6OjogM/nK9mtLJfLobW11Zq2vr7e1vVZLq/OKV2uUzweRzqdRn19vVVmIpGw5UWhzck8NTU1iMfjyOVy8Pl86OjoQDabtf7XyXXLZrOOdQIA/f39rgFlf3+/NW9foW2l02nApY51cjr9k0qlrOn7+/sdtwsK26ySdSvp618Hpk0D9uzRxwB795rdY/fuHU87fhxYuRK44AJznNNn716gsbE43eczr346lTNzphngPvWUOfzUU+PzdDDy3oe4Y9PzqLt7m9Wt9cmfvm7L86t//z0A2AJKALhh3qX48MSf8LPXf22llSvvyZ++jrq7tzl2nb1h/W4rUH346RTq7t6Gn73+a9ywfrdV3sofDOL47z/RJ7XI7e30kerr64uOJyrZHuR+kkgkrDaka2hoQH19vZ4MlFkWp4/axtPpNEKhkDXO7XirHwf1fOWOgU5lyOOf7C0i5XI5dHR0oKampqg8+ZHz1pe/oaHBVn+yTp3WSWptbbXVrexWr+vv74dP2V5EROcKBpVUUjqdxqpVq/DMM8/gkksu0UefFolEAk1NTfD7/ejr60NfXx9OnDiBpqYmxxMtldO0wWAQABCNRpFMJhGLxfTJSqq0zOXLlyOZTKKrq6tonGrZsmW49dZbrXGdnZ14+OGHbXkqkcvl0NzcjMHBQfT09CCZTGL69Om47rrrMDg4iEAgYHUJdfLwww8jkUhY0zY3N2NkZKRkIOoknU7juuuuAwAEg0EMDAxYL6JvaWnBihUrbNutu7sbq1atQiAQQDKZxNatW7Fp0ybccccdAICFCxeirq4O4XAYvb291nRSb28vAoEA6urq9FFA4ST9zjvvRDgcLgoos9kslixZYs27p6cHmUwGv/nNb2z5Skkmk0gmkwgEArbh2bNnW3nuvPNO1NTUWPM4fPgwli1bBgATWjfLyAjwhz8AL79s/l/K8ePAjTcCiQSwerUZiK5ebQal06YBO3aYafPnA9/6lvl/OGxOu3GjOXz77eZwSwuwbRvwjW+Y6bfdZl4xlcHkokXj89X87PVf4+7N/fjwxJ+welkDNrd8Ff6LpuPxva/iH7sPWvk+zP8RX7zss7ZpAeBL9X8FAHh/zAzyKinv/pu/hPM+/SkMvW12h5ZG3vsQ2d+ewLWXf96WvmFnEtfOvhibW76KO66/HAdGjuLRXYdseVSzZ8+2tj8Aq13J4f7+fmQyGdxzzz3alOPq6uoQCASwYcMGAEAkEoFhGHj++edt+bLZLIaHhxGW20ZTalmSySSi0SgAoKury9Ze5f6by+WKjrdqEOZ0HNSPy+WOgel0Gk1NTQBglfHqq6/ijjvuwPDwMJqbze7LuVwOoVAInZ2d+P73v2+VYRgGDMNAX1+fbR2WLVtmW/7a2lq8+eb4DwmPP/44/H4/GhsbrTTdTTfdhEwmYwWLa9euxfDwcNEPPHK7LCrR1omIzkqCyMXY2Jjw+/2ivb1dCCFEMpkUAEQsFtOzTqpy8zEMQwSDQT1Z+P1+4ff79WSbUtMahmFLCwaDjnkB2NKrKVOUWL9YLCYAiJ6eHlt6OBwW6q4qp08mk7Z8enpXV5djecFgUACwtqsbt/WS5PLq9PRwOCwMwxBjY2NCKPOXotGobbsZhlG0HeW6AbDK6enpEQDE6OiolW90dNS2znqdiML81eVRyTrT61ZyKs+Nvp5CmT4ajdrS9flWsm4lbdwoBGB+Vq+2j9uzx0zfs8eeVw5LW7aY6Rs32tOFMMvUpzlwwEwLh9Wc43nnzLGna27//v8UV7Q8JY797g+29JYnBsRld3WL1979DyGEEJfd1S3+5pGf2PIIIcTe1L+Jy+7qFht2mnVYaXktTwyIK1qesuXZ1PtLW54NO5Pisru6xY/+dcSW7/bv/09x2V3dtjQ30I4botD21TYtHPYfobQP2R6i0WjRsUXmyWQytnQnTssi56u3bTkvfX8JBAJF+61epnA5LrsdA+WxTl2HsbExYRiGACD6+vqEcNhfJLnfdHV1WWlyv9HnJWUyGQGH46HTNIZhiHChfcvp1HnJPPr+TUR0thsaGhK8Ukmu7r//fhiGgX/8x3/UR502qVQK+Xze8Zf9tWvXIpPJuHZhKjdtPp93ndbNyShz/vz5tuF58+bZhiu1b98+oHBlQ/XAAw8AAK688kpbuq65uRmHDx+uevl1vb29iEQirldF586di0wmg3Q6bdVnS0uLLU9jYyMCgQD8fr9VjrwSsHv3biuf/N/tKkEqlcLAwADWr1/vuDzXXHMNAGDXrl1VX5Gtxle+8hXb8Jw5c2zDXtbNZvt2YM4c86OU4Whw0HxgT+FKqeUf/sG8UjlY4RNT9+83/956qz39m980/15R/AAd1aF3PsCCyz+PGZ8935Z+21f+bwDAvqH3rLRf/fvvrS6o8rNm28+VqSovb8HlF+OPf/6LrQvsgZFfo+6i6Zg363NWGgBcO/ti23DdRdNtw9V69dVXy/YYgNI+fvnLXwKFq2b5fN52hX/79u2VXcWuUiKRcNx/77vvvqL91u04WOq4rOrt7UUwGLStQ21trXUV9T//5/8MFI5tTlcW5VVceexD4fhiGAaeffbZoquKAPC///f/Bgo9IMqZP38+Bgv7g7yCvH37dmt8f38/8vk8brrpJmUqIqJzA4NKcpRIJDA4OIjt27cXnUycTm+99RYAOHbF1U/MdROZ1s3JKHOyTwp106ZNAwrd4Up58sknAQBNTU1l7zcq59JLL9WTLDMKTyD95BP3e9NQOLmUXUrlsN5NtLe3F+Fw2LXN7tq1CwBw77336qOAwgmo7HJ84YUXlrzXbSKc2ovKy7pZXnzR7NJ6331m99Pjx800N2+8Yd776KTMDw8VkU+YvfxyfYxF3gf5V9M/o4/C1770BT0JdRdNx+aWr9o+K5eMPyG0mvLuXnSFrQus7Pq6aF7xfPUgc6KGh4fLb09lX/34448BAIsXL7Z1gZVdX++77z7bdJMhn8877r/y+PbJJ5+clOOg6oILLoBhGNax8fDhw673juo/ygHAT3/6UwwPD8Pv98On3e8tu8HK42IpX/7yl5HP563h++67z9YF9vnnn4dhGFi8eLEyFRHRuYFBJTnauXMn8vk8rrrqKuvhBvJel7a2tgkHGTT53n//fT1pQu6//37rab/6PYGlHD16VE+yToadqPc2Veuuu+6yrpak02lkMhksXbpUz2bJZrMlrwyl02m0tbUhEAigr6+v6H7XU6nadQNgPgxHXsl88EHgkUfM/xctGn+ozvLlZtry5eawvPdSf/iOz2emO417/HF7GW5p8gOYyyL/n4AvXvZZ/KdPfwp/u/CvbZ9ZnzcAAPUXV3/1cNG8SzH0tnnf7IHXzfa76EvFgdTp4tReo9GodX/fgQMHgEqvYp9jcrkc7rnnHhiGYd0f7tUFF1xgG15e2Jdk/curukRE5yIGleRIBhLqR3+4QqVBxmSSv3o7BVDy13I3lUx7/vn2rnJu5C/mk1nmRB07dkxPciSX9Z133tFHWXK5HHp7exGNRrFu3To0NjY6ntg60buY+f1+x4fOSC+99BIMwyjqyqY7cuQIhoeHbWnyis3u3bsxMDAAwzDKntSVWg/ZxbS3txeLFy8+re/H87JuEMLsshoOyzsqgVDITJPD8omwe/aYwwsXmlcT5Xj1M22aOb2evnq1vQy3NCGA114z0+UyOZBXD3934k/6KNvTXAHgc8Z5yPz2hC0NAN77jXkF6ZILz6+qPABYMr/O6gJ76O0PcO3siyf9qqQTv9+vJ1k/wKj7kXwysBrU3HbbbVYX2H379iEcDp+0Xg5OPxSpx7dKjoMTcfToUeTzeatO5s+fjyNHjujZgMJVzOnTx39YeOWVV5DJZLB161ZEIpGi48xMh6v0suu7vt4jIyMwDPPHCyg9CrZv3251AV65cqVtGiKicwWDSnI0d+5cNDY22j7yxOHSSy+tKsiYTI2NjTAMAzt37tRH4bHHHisZnJSb1u/324KIuro6DAwMFL3OA4X6gYcyJ9MLL7xgG37ppZdsw7fccgtQ+PVcJZf1jTfesKU7UU+g5BMX5QmupN7XlcvlcPjwYdv4lpYWZDIZtLa22tJRWDZ5jyOU+ty2bZstXyqVQiaTQSaTKbrXMRKJYHBwEM8++2zZoGv69OmuJ6Mq9eQ9kUg4LvupUM26AQCeeMK88lh4SiZQuMfxD38wxzlpbja7yKqvGIFSVuFJxmXJrsLPPmtPL3Q5Rpkr0tfOvhhDb/+m6BUdu3/xbwCAr37R7Eb7xcs+iz/++S9Frxo59PYH+Nz0z1gBZaXloRDUfm76ZzD09gf41b//Hgu0p76eLM3NzUXHGHnPnrofDQwMAMo9vygcg/x+P55//nkMDAyUv4o9AYlEomi/2759u3V8K3ccLHVcVoXDYQwMDNgC6lwuZx3D5P2Pt9xyi+N9molEAvl83rEu1O6t8hUjuVzO6i6rHk9feeUVQNkWKCzH4OCg9QRaaenSpRgeHsauXbtO6vGeiGjK05/eQ+TG7Yl9bulelStPPuEvGAyKvr4+0dfXZz1pUz4d0I2cNhwOl512dHRUGIYhAoGAlVc+0VV9EmI1ZYoS6+f01EendDm9LCOZTFpPkYTyRMSxsTERCASEYRiip6dHJJNJEQ6Hhd/vF4FAQAQCAWUuxeRTUnt6ekRfX59VlnwCpVwuNY9cb3095PLJJ0ai8ARU+Vel1mcymRQ9PT3WUxed6lStD7dxsk76+vpsZatPV1Xzy/FyHeUy6uWVUurpr/r05dKd1s1RKCTEtGl6qpkWCpn/609/PXbMfDLrtGnmk1737DGf2DptmvsTW52e/iqE+eRXFJ44K8sBzHkD5rxcvDhyVFzR8pS45oH/IX70ryNib+rfrCe1Ptj1ki3v19p6xRUtT1n55FNYdw6+4ak8oTzh9bK7uoueGCvH6dzSncDhiavyyaSBQEAkC/uxYRiiq6vL2q9k+9enFco+CO0JsuU4LYvb019l+epx0On4Vs1xWbZr/RjodMwNBALWvi+f0Koe27q6uqx9VU6rkk+PlWXK+gwEAladyfK7urpEX1+fMAxDxGIx4ff7rWOBzKPXj/p0Wv0JskRE54qhoSFRfAZL5MLtRMAt3atKypMnG/KER37xV6KaaUdHR22BUjgcLgpERJVluq2fHjy6pcvp29vbrQDN7/c7PmZ/bGzMFnAGg0ExOjoq2tvbBcqciI6NjVknUk7rLpdLnszJ8mXZOnmSJsvz+/2ur8foKwTwKAStsVhMjI2NWeutK/f6FrVO9OWQJ+9ST0+PrV7V7eRUnpvJCCpFiXUr8tprZuDW0qKPMdMAM48eVIpCYBkOm4EkIMSMGWZA6BYEugWVcpxazo4d5gcw/5bw4shRK0C87K5u8bW23qLXeAghxLHf/cF6FYjMpwaUUqXlCSHEa+/+h7jsrm5x+/f/pz7KNXh0S3ci9w+d2tYDgYDtRxu5X0WjUcd9Vb7WIqy/xqUMp2WR+7PeBuU+px5HZICmq/Q46HYMFA7HXLnuAe2HMHlsk3Uk91WnehodHbWWyyi88kPNpx4nDcOwjjHqsvj9fsd1FsqPZk7fDURE54KhoSHhE+aXBhFNUfF4HG1tbZC7aiqVQlNTE5LJZEVdyk4WfbkqFQqFMDAwUPV0J0Mul8P999+P3t7e07o8U2WbUnUefjqFH7/0NrJP21+Bczbx+XyIxWJYt26dPoqIiAgAcOjQId5TSUTnrtraWs/vASUiIiIiE4NKIjpndXR0YNOmTQhW+jAaIiIiIirC7q9ERERERETkCbu/EhERERER0YQwqCQiIiIiIiLPGFQSERERERGRZwwqiYiIiIiIyDMGlUREREREROQZg0oiIiIiIiLyjEElERERERERecagkoiIiIiIiDxjUElERERERESeMagkIiIiIiIizxhUEhERERERkWcMKomIiIiIiMgzBpVERERERETkGYNKIiIiIiIi8oxBJREREREREXnGoJKIiIiIiIg8Y1BJREREREREnjGoJCIiIiIiIs8YVBIREREREZFnDCqJiIiIiIjIMwaVRERERERE5BmDSiIiIiIiIvKMQSURERERERF5xqCSiIiIiIiIPGNQSURERERERJ4xqCQiIiIiIiLPGFQSERERERGRZwwqiYiIiIiIyDMGlUREREREROQZg0oiIiIiIiLyjEElERERERERecagkoiIiIiIiDxjUElERERERESeMagkIiIiIiIizxhUEhERERERkWcMKomIiIiIiMgzBpVERERERETkGYNKIiIiIiIi8oxBJREREREREXnGoJKIiIiIiIg8Y1BJREREREREnjGoJCIiIiIiIs8YVBIREREREZFnDCqJiIiIiIjIMwaVRERERERE5BmDSiIiIiIiIvKMQSURERERERF5xqCSiIiIiIiIPGNQSURERERERJ4xqCQiIiIiIiLPGFQSERERERGRZwwqiYiIiIiIyDMGlUREREREROQZg0oiIiIiIiLyjEElERERERERecagkoiIiIiIiDxjUElERERERESeMagkIiIiIiIizxhUEhERERERkWcMKomIiIiIiMgzBpVERERERETkGYNKIiIiIiIi8oxBJREREREREXnGoJKIiIiIiIg8Y1BJREREREREnjGoJCIiIiIiIs8YVBIREREREZFnDCqJiIiIiIjIMwaVRERERERE5BmDSiIiIiIiIvKMQSURERERERF5xqCSiIiIiIiIPGNQSURERERERJ4xqCQiIiIiIiLPGFQSERERERGRZwwqiYiIiIiIyDMGlUREREREROQZg0oiIiIiIiLyjEElERERERERecagkoiIiIiIiDxjUElERERERESeMagkIiIiIiIizxhUEhERERERkWcMKomIiIiIiMgzBpVERERERETkGYNKIiIiIiIi8oxBJREREREREXnGoJKIiIiIiIg8Y1BJREREREREnjGoJCIiIiIiIs8YVBIREREREZFnDCqJiIiIiIjIMwaVRERERERE5BmDSiIiIiIiIvKMQSURERERERF5xqCSiIiIiIiIPGNQSURERERERJ4xqCQiIiIiIiLPGFQSERERERGRZwwqiYiIiIiIyDMGlUREREREROQZg0oiIiIiIiLyjEElERERERERecagkoiIiIiIiDxjUElERERERESeMagkIiIiIiIizxhUEhERERERkWcMKomIiIiIiMgzBpVERERERETkGYNKIiIiIiIi8oxBJREREREREXnGoJKIiIiIiIg8Y1BJREREREREnjGoJCIiIiIiIs8YVBIREREREZFnDCqJiIiIiIjIM9/Q0JDQE4mIiIiIiIgq4fvw+HEGlUSCuwEREdEp4/PpKUR0BmP3VyIGlERERKcWv3uJzioMKuncxi81IiKi04PfwURnDQaVdG4QwvlDREREpw+/j4nOCgwqiYiIiIiIyDMGlXT24y+gREREUxu/q4nOaAwq6ezGLykiIqIzA7+zic5YDCrp7KDfK8l7NIiIiM48/P4mOiMxqCQiIiIiIiLPGFTSmY+/aBIREZ1d+N1OdEZhUElnNn7pEBERnZ34HU90xvB9ePz41NxjeSAhIiIiIgDw+fQUIppCeKWSiIiIiIiIPJuaQSWvUhIRERGRxHNDoilt6gWVPGgQERERkY7niERT1ukLKvX3CfK9RERERERUCs8XiaYk39DQEPdMIiIiIiIi8sQnBH/uISIiIiIiouodOnToNHZ/JSIiIiIiojMeg0oiIiIiIiLyjEElERERERERecagkoiIiIiIiDxjUElERERERESeMagkIiIiIiIizxhUEhERERERkWcMKomIiIiIiMgzBpVERERERETkGYNKIiIiIiIi8oxBJREREREREXnGoJKIiIiIiIg8Y1BJREREREREnjGoJCIiIiIiIs8YVBIREREREZFnDCqJiIiIiIjIMwaVRERERERE5BmDSiIiIiIiIvKMQSURERERERF5xqCSiIiIiIiIPGNQSURERERERJ4xqCQiIiIiIiLPGFQSERERERGRZwwqiYiIiIiIyDMGlUREREREROQZg0oiIiIiIiLyjEElERERERERecagkoiIiIiIiDxjUElERERERESeMagkIiIiIiIizxhUEhERERERkWcMKomIiIiIiMgzBpVERERERETkGYNKIiIiIiIi8oxBJREREREREXnGoJKIiIiIiIg8Y1BJREREREREnjGoJCIiIiIiIs8YVBIREREREZFnDCqJiIiIiIjIMwaVRERERERE5BmDSiIiIiIiIvKMQSURERERERF5xqCSiIiIiIiIPGNQSURERERERJ4xqCQiIiIiIiLPGFQSERERERGRZwwqiYiIiIiIyDMGlUREREREROQZg0oiIiIiIiLyjEElERERERERecagkoiIiIiIiDxjUElERERERESeMagkIiIiIiIizxhUEhERERERkWcMKomIiIiIiMgzBpVERERERETkGYNKIiIiIiIi8oxBJREREREREXnGoJKIiIiIiIg8Y1BJREREREREnjGoJCIiIiIiIs8YVBIREREREZFnDCqJiIiIiIjIMwaVRERERERE5BmDSiIiIiIiIvKMQSURERERERF5xqCSiIiIiIiIPGNQSURERERERJ4xqCQiIiIiIiLPGFQSERERERGRZwwqiYiIiIiIyDMGlUREREREROQZg0oiIiIiIiLyjEElERERERERecagkoiIiIiIiDxjUElERERERESeMagkIiIiIiIizxhUEhERERERkWcMKomIiIiIiMgzBpVERERERETkGYNKIiIiIiIi8oxBJREREREREXnGoJKIiIiIiIg8Y1BJREREREREnjGoJCIiIiIiIs8YVBIREREREZFnDCqJiIiIiIjIMwaVRERERERE5BmDSiIiIiIiIvKMQSURERERERF5xqCSiIiIiIiIPGNQSURERERERJ4xqCQiIiIiIiLPGFQSERERERGRZwwqiYiIiIiIyDMGlUREREREROQZg0oiIiIiIiLyjEElERERERERecagkoiIiIiIiDxjUElERERERESeMagkIiIiIiIizxhUEhERERERkWcMKomIiIiIiMgzBpVERERERETkGYNKIiIiIiIi8oxBJREREREREXnGoJKIiIiIiIg8Y1BJREREREREnjGoJCIiIiIiIs8YVFJJDQ0N8Pl8RZ9QKKRnnRS5XA7xeNw23/r6enR0dCCXy+nZHcXj8aLllZ94PK5nJxf19fWoqampuN6nglwuB5/Ph9bWVn2UTS6XQ319PRoaGs6o9TuTpNPpirYFTW39/f3W8bimpgatra2nfZ/p7u6Gz+dDIpHQRxER0WniE0IIPZFI8vl8CAaDuP76623pM2fORCQSsaVNVDqdxnXXXQcAiEajuPHGGwEAL7zwAjo7OwEABw8exNy5c23T6bLZLFpbW3H48GF8//vfx5w5c6xxF198Merq6mz5qVg8HsemTZsqqu+pprW1FYlEAu+99x5qa2v10YCyfqXy0MSEQiHU1dVh69at+ig6Q/T392PJkiUIh8P4+7//e7z//vtobW2F3+/Hq6++qmc/JXK5HGbNmoWtW7dO+ncQERF5c+jQIQaV5C6dTuOqq65CT0/PSf/ylicKfr8fvb29RYFfLpdDKBRCJpPB8PBw0Xgn3d3deOihh7B+/Xrce++9DB7OEfJE+FS0W6KzWX19PQDgyJEjVloikcCKFSu4fxERkeXQoUPs/kru3nnnHQDA7Nmz9VGTbseOHcjn89iyZYtjwFhbW4stW7Ygn89j8+bN+ugi/f392L59O/L5PNra2nD11VcjnU7b8oRCoaJuvN3d3aivr7e6esXjcatLZUdHB1A40ZInW6pEImHrkpXL5dDa2mrrxqt2v3Wavz5NQ0NDURcv2b1Xlc1mEYlEbF199U8qlSpKkx+13HQ6bet+7NbdLZ1Oo7W1FTU1NfAV1q+/v1/PZtHXTa2PUl2WnT4ArPVJpVK2+SxevBiGYWDnzp22dKm/v9/axj6fD5FIBOl0GtlsFj5lO6s6Ojrg8/mQzWZLloESy6XS10d+5DS+Qlftjo4O1/qV3Xd1/f398JXoGhgKhYrm6/ZR26e+/ZzaJhzaop6vXDt0KiMUCiGdTlvbQW2P6j7r9JFtTO5viUSiaB8vxUvbRKG+9O0njyeSW1uR89TTdfF43Cpf7Zpaqo6dPnq7Q2EbZDIZtLS02OYpA8nnnnvOSlOnk+QyqOn6sFu63tYqOXYSEdHpxaCSXB07dgwoBJfyJKyhoaFk4ODVtm3b4Pf70djYqI+yNDY2IhAIOJ7IqhKJBJYsWQIA6OvrQ19fH+rr63HdddcVBZaq7u5urFq1CoFAAMlkElu3bsWmTZtwxx13AAAWLlwIAHj00UeRyWSKlmPDhg3w+/3WSdfDDz+MRCKBnp4eJJNJNDc3Y2RkxDFAg3I1Vp2moaEBK1ascDwRk9LpNAKBADKZjDVdNBoFAGtdkskkZs+ebf2vj1MtW7YMt956K5LJJGKxGDo7O/Hwww/b8iQSCVx11VXIZrN45plnkEwm0dLSgjfffNOWT1WqPpYvX45kMomuri6g0P1ZLlsymUQgEAAAx+XVZbNZ5PN5DAwMWEGgOm7JkiXWuvf09CCTyeA3v/kN6urqEAgE0Nvba5sGAHp7exEIBFBXV1eyjEq5rZf6A86mTZvw2muv4ZlnnkFfXx8Mw8CSJUusdVq7di2Gh4eL1vH5558HACxatMiWLsViMSSVNtLV1WWrayhtIxaLAVW0Tae2KPPJYL1cO8zlcmhubsbg4KBVxvTp03HddddhcHAQgUDA6nXQ2tqKVatWIRwOI1nYFn6/H1DWa/ny5dbyHT58GBs2bMCjjz6KZKENtrW1Fe3LKi9tU9ZXZ2cnvv/97yNZ2D82bdo0acFQIpFAW1sb1q9fj2QyifXr1yObzeL9998vWcdJh23v9MPhBx98AABYsGCBPgrBYBCZTEZPnjSljhVERDRFCSIXwWBQGIYhgsGgSCaToq+vTwSDQQFA9PT06NknBIAIBoN6cpFoNCoAiEwmo4+yGIYh/H6/GBsbs6X7/X7h9/ut4WAwaJunnE6VTCYFAAHAVp5eVk9PT1G9yLpzo89flpFMJm352tvbbesci8WEuuuGw2FhGEbR+sq6Gh0dtaULl/qW5erbNhwO2+aXyWSEYRgiGo3a8pVTrj6EUt+xWMyWLtudSubV66urq8vaZno5cpw+jSS3gVpno6OjtnopV4bbcjlxWi9R2D56W5TLIdcpk8kIAKKrq8uWr9JtI7e3vpxwaBuVts1ybVHfb53mJetXb4eyrtrb24VwqA9J1ks4HLaly+n1ZaikXYoq26ZbG9GPE25txW3bqPT90o1THbuVr66fWx7hsM5O9eJUX/qwW3q5baIfO4mI6PQaGhoSvFJJrnK5HObPn4/9+/ejsbERixcvxv79++H3+0/bEx0vvfRSQPkVXZdKpZDP57F27dqieyjXrl2LTCbj2KVMTqd39ZJXR/1+v6089WplLpcrukoJAM3NzTh8+LDj/Jw899xzjldrb7vtNgDAgQMHbOlSb28vIpFI0fquXLkSADAwMGBLL2f+/Pm24Xnz5tmGZffj73znO7b0cqqtD68ee+wxBAIBBAIBbNu2zTbummuuAQDs2rXL8aqHvLq3e/duK03+L8eVK2OyNDc324b1BybJK6vbt2+30vr7+5HP53HTTTfZ8k5UpW2zXFvcs2ePLd3Jvn37AKWbpfTAAw8AAK688kpAadfqlUgU6iUcDjtecfb7/UXd6/X2Phn27dvnWF+RSKRk1+xqyIeadXd366MmVVNTU1F32WqPKdU6VccKIiKaPAwqydWrr76K/fv368loaWlBPp8/LV/4R48eBQpPcS1FfeKrnvb+++/ro0qqra21urhJkUgEfr8fGzZswI4dO5DJZPDoo4/a8jz55JOAclJWrr5OnDjheK+mDCY+/vhjfZTVnVcG2yo9CKmUftKtGxwcdAwcyqm2PrxIp9PIZDJYvXo17rvvPmQyGVuX57lz51pdei+88MKiroi1tbVFAUlvby/C4bC1vuXKmCxO21R333332brAPv/88zAMA4sXL9azTkglbfNktEXVtGnTAOUe75GREcClveo/hEhO63AyHD582HVekxXErly5EsFgEKtWrSq6J3Ey6d2j1S6/J8upOFYQEdHkYlBJJZ3MKzEqv99ve8Kgm1dffRWGYTieSJ5qLS0tyGQyaGtrK7pKCQD3338/8vm8dQ+b031LZ6JMJuMYOJRzKupDXrVZtGiRdQVLvZKTTqfR1taGQCCAvr4+655B1dKlS61gVAapS5cutcZXUsapItdRXilMJBJF7ZDOTt3d3RgYGLDuJ9Wv2E6UvJdyzpw5aGxstH2cfmjzSr8nGKfoWEFERJOLQSU5ShdeXP5P//RP+ijritn555+vj/JMBmilfpFOpVIYHh4uedIsl+mtt97SR1lXKC+55BJ9VElHjhzB8PCwnox7770XhmEAhe6wqlwuh97eXkSjUaxbt846ESvHKbCWV4AuuOACfZR1BUhewVWVmm4iDMOwrhJVymt9VCuRSCAajaK2tta66qg+hEV2Ze3t7cXixYsdr6DJbq6//OUvi7q+osIyThW5jtu3b7e6cMuuppOtXNuspC1OhNx/5VOp5dVIp6BkZGTE2jdPh/nz5zvWFwpXMStVqkfG9u3b4ff7kUgk0NjYOOk/tMl5Ox1LDx8+bD0QqZyZM2fqSTb6rQyn6lhBRESTi0ElOZo7d671zkj1aqX8wg8EApN6Mi0DtHvuucfxJDGXy+HBBx+EYRhYs2aNPtoil/uxxx4rusq6c+dOGIZRdJ8TCvdOGoZRdA9eKpVCJpNBJpMpKk8ln5SrU09s5RMhS51gOwXWToGNSgZO+vKpV+0mUyQSQW9vb8n1cFNtfVQjkUgU3U941113IZ/PFz3dUw20E4mE7R5hNVCTJ7dOJ7WlyjiVli5diuHhYezatQt+v39S90tVJW2zXFsMBoO2dCe33HILUKhTlbwP8Y033gCUsvT7NLPZrHVv5+lyyy23ONaXbKNyHWXg9sILL9jyvfTSSxX1yNAD59bW1qJ686qurs46lqrkjxfq1Xu/349nn33Wlm9oaAhweCWVWz7dyTxWEBHR5GNQSa5++MMfIpPJ4I477kB/fz/6+/sRCoXw0Ucf2R4OknJ4H1m1amtrcfDgQXz00UcIBALo6OhAKpVCKpVCR0cHZs2ahUwmg4MHD5Y90dq5cycymQxCoZBtuQcGBvDMM8/o2S1bt25FJpNBJBJBKpVCIpHAzTffjHA4DAB45ZVXbPnluzUNw8CmTZtsJ9K1tbUIBoPo7OxEIpGwlqGSqxQ333wzEokEUqkUWltb8b3vfQ/t7e2u6/3QQw8BhXe3qdN1dnaWnM6rNWvWwDAMXHXVVejo6KjoRG8i9VGp5557ruh+QvnOSvlOvRtvvBEodK9LpVKIx+NYsWKFlV+SgVomkyl66E2lZZwqixYtgmEY6OzstNrqyVKubcq2ePXVVzu2xUoC3uXLlyMQCFgBUiqVQiQSwZEjRxAIBDA4OAgUfkCKRqNoa2uzjheJRALNzc1lf3w62eQ63HzzzYjH41Y7aW1tRSAQsK4m19XVIRqN4nvf+56Vr6OjAwMDA1i/fr1erM2tt96K4eFha7pIJILOzk4924TI7wD9mBgIBGxB+6OPPmr1IkmlUuju7samTZsQDAaLtrmaLx6PY9OmTbbxp+JYQUREJ4H+SFgiVV9fnwgEAgKFVzSEw+GiV1Q4PTreq7GxMRGLxWzzDAQCIhaLFb2moJRkMlm03Pqj8Z0eS9/X1yf8fr8AIAzDsOYL5VUGorCc8rH38jUB+vqPjY1Zj/13qjt9/nI4FosJwzAECq+V0MuVj/pXjY6O2uYVCASKXsmgQonXDOic0jOZjG1+fr+/5PxEBfUhSrQl/RUGQnsdg3yNhLqNJP21Fz09PdY2dqpfyTAMYRiGnixEmTLcXhPhxGm9hMMrFsqll3p9jBu5XfXlhEPbqLRtiirbotO8RKGtyHWSeUZHR61tqR4LYrGYbZ+NRqNFrw0RDvtbuXRdNW1TKOug15fTcaySenXS3t5uTRcIBERfX5+exbGOS217fd7qd4CsX6d10I+dTvlQ2O9lnRmG4Xj8LHesqHSbERHRqTE0NCR8wjzQE1EV4vE42trakEwm0djYiIaGBmQyGbz33nuOXSUrIZ8i6vTE3dNJrqvToSKXy+GVV17BI488guHhYYyOjhZdmThTTcXt4fP5EIvFsG7dOn3USTUV62KynM3rNtWcrvZLREQn16FDh9j9laha2WwWbW1tCAaD1v2ZW7ZsQT6fx44dO/TsZ7Xa2losXrwYGzduBAB88sknehYiIiIiOssxqCSq0ubNmwEAGzZssNIaGxsRDAaL7q0826VSKfT39+ORRx6BYRhFD+UgIiIiorMfg0qiKmSzWeuBKPpTZDds2HBOXa3s7+9HU1MTlixZAr/fj4MHD3ru+ktEREREZy7eU0lERERERESe8J5KIiIiIiIimhAGlUREREREROQZg0oiIiIiIiLyjEEllZTL5dDa2oqamhr4fD40NDQglUrp2SYkHo/D5/OV/cj3yZ0OqVQKPp8Pra2t+igiV7lcDvX19WhoaLCeCuzW3id7vyJnTtuETq5IJIKamhqk02l9FNE5J5vNnvZzGqKTgQ/qIVe5XA5XX301PvroI2zduhXTpk07KS+5T6VSGBoasoaPHj2Kzs5OBINBXH/99Vb6zJkzEYlErOFTqaGhAQ0NDdi6das+ishVPB7Hs88+i/3791tPxs1ms/jggw8AAG+99RZWrVqF9vZ2fPe739WmppPBaZvQyZNKpXDzzTfj4MGDk/adQXQmC4VCyOVyPAbRWeXQoUMMKslda2srOjs7bQFkLpfDhRdeiGg0etICrFQqhaamJsRiMaxbt04fTXRWSCQSWLFiBXp6ek7bjyVEREREE8Wnv1JJiUQC0WjU9utybW0tgsEgBgcHbXlPtVQqhYaGBqvrYCQSqbj7oD6t/pFdUkKhkGP3FKduK5WU6dbtUZYlx6fTaVtZra2ttm56siuuvr5O6dlsFpFIxDavdDqNjo4O+Hw+1+5/5ZYVDuvstA2qqUOd7Hoty6+vr0c8HrfGy2XUOaXLOo3H40in06ivr7fKTCQStrwA0N3dbeWpqalBPB5HLpeDz+dDR0eH1X2po6NDn9Sq22w267hNUHjHp1tAGY/Hre7mNTU1tu3vtG4qOT+nj+S1TUj6dtc/lbR1p3LKtZ9EIgGfz+e4verr61FfX28N9/f3W9tPli27XjptE691Um495fInEomi9uSkv7/fcTncpNNphEIhK39DQwP6+/uBwrz15XL7yOVV25ds405d/uV+mc1mgTLLgcL+rq+zPk2p7V9J/entSf+cqm2ir2s6nUZNTY2tu3Uul0NHR4e1n9fX16O/vx/9/f3w+XxW3ZXb3+HSnp3S9WGchHbv9lGnczu2Seq+K/PIdgZtPSo9DkvlykYV2wZVfq9U2+6IzkiCyMHo6KgAILq6uvRRJ10ymRQARCwW00cJIYTo6ekRAEQ4HBZ9fX2ir69PBINBAUD09fXp2W1KTRuNRkUymRSjo6NCCCGCwaAIBoN6EQKALb3SMjOZjEgmk6Krq6tonBBCxGIxAUD4/X4Ri8VEMpm00qLRqDU/WT/JZNJKc0ofGxsTfr9fGIYhenp6RDKZFOFwWBiGIQKBgAgEArbpVeWWtdQ6q9ug0jp0Eo1GbcsejUZFOBwWY2NjQij1pdPTR0dHrXUeHR21xvf19dn+l+Q6h8NhkUwmRU9PjzAMo2j9wuGw8Pv91nSS3++36lbfJqJQt4ZhiHA4rExlkvWqbv9gMFjURtyMjY2JZDJpzTcQCFjDcrzXNiHKbPdq2nqpckq1H7/fX1Tnsqyenh4hCvWrb79AIGCVq2+TidRJufUMBoPCMAzh9/ttZavLK0WjUVsZyUKbV+tDJ9uaWofyuDk6OmqVgcKxXJYr60C2D7f2JafNZDJWmqxf9ZhUajlEYX9Xh9V9Ut/+cruIKuqvVHs61dtEXVd57AgEAtZxSxSOHTJfUjnOy2Uud4xTyW2p1ptTuj58Mtq9/AQCAWtecn5yG7kd29Q86r4rl1HWib4egUCg6JggtOOwqLBsUcW2qfZ7pZp2R3QmGhoaEqWPVnTOUg/csVhM+P1+gULAU+oLdTLIeasnISqjcIKvczrh1JWa1jAMW5p+QivJLxipmjJFifWTX0T6F4z84pH0L1W3dPmFr5cnvxzb29tt6U7clrXUOqvboNI6dOI2D8nthEtPlydK8mRArr8UjUZtyyy/+FWyHqCcVMiTFPWkaLTwY4ysc32bCOXkQj2RkfRtrdPXrRSnOp5om3DbJtW29VLllGo/ss7V5denkeuo7x+Svk0mWieixHrKMtSgTDisf19fn+MylCLbmj5PnWwzen04tQ+9fTkFkHqgWcly6OOjhR+M9H1ADxAqrT99WHJql5WW6WWbCGVdZVvVA0pZX2qdCqXu1UBI3x5O9Pbslq4Pn4p2ryp3bBOF7aVvR/kjnKwvfT0qOQ6LCsuuZttU+71SabsjOlMNDQ0Jdn+lkh588EG89NJL+OEPf4hkMolAIIAlS5YUde04VVKpFPL5PO655x59FNauXYtMJlPUDUgqN20+n3ed1s3JKHP+/Pm24Xnz5tmGK7Vv3z6g8ORF1QMPPAAAuPLKK23plSq3zqW2QTWam5tx+PDhCZfV29uLSCTi+kCEuXPnIpPJIJ1OW+vW0tJiy9PY2IhAIAC/32+Vs2jRIgDA7t27rXzyfzlOl0qlMDAwgPXr1zsuz3XXXQcUut+eDBNpE+W2e6VtvVw5pdpPJBKB3+/Hhg0bgEI9ZTIZPProo1aea665BgCwa9euoq51TiZSJ5Xw+/2oq6uzpen7+AMPPIBgMFi0DKXMnTsXhmHg2WefLerCN1nq6uoQjUbR2dmJbDaLdDqNzs5ORKNRa528LEcikXDcJ++77z5rX5TK1V+59uTULsuVCY/bRHr22WexYsUKBAKBooexDAwMAABuv/12ZQrg3nvvBQoPhTsVTna715U7tqXTaWQymaLtWFdXh+bmZtdzjkqOw5WWXc22qeZ7Raqk3RGdyRhUUkn5fB779+/H4sWL0djYiEQigWAw6Hifzanw1ltvAQAuueQSfRTmzJmjJ9lMZFo3J6NM/Utnsk2bNg0AMHv2bH1URU7GOjt58sknAQBNTU3WPTReXXrppXqSZcaMGQCATz75RB9lU1tbi0AgYBsOh8Po7e210np7exEOh11PNHbt2gUoJym6lStXIhgMYtWqVfA53Id2slTSJiZru0+0nEcf/f+3d+/hUVR5/vjf/cf8frO6QorW9acjjnQFv4O3YKbjBZJZLyQdEh+MA9KN8KAzsIEOu866XBIJPJEZR9MBFp3vktsCCzNId3Nfhm5IUHB/3SQCbUgryIxQPQhevoxpGnX16/fnH/X7o/pUqk5VX9IECPJ5PU8/SZ06darOqeqqOn1OnXoZkiShra0NL774IkRR1N0YFxQUwOPxoKWlBTfeeKP6LN1AZVMm2dA+62kmFouZ3vBmY9euXYhEIhBFUffs2mBasGABAGDFihWora3VhTED3Y5EImH6nWT7X/tdzFR+uRxPmdK8mH0CAJFIBEhWklOdC3gs3pUeIXewjntepnMb2+dm+7GwsBCJRIIPBrI8D+eaNpNq35gdw4zZdSXTcUfI1Y4qlSQtvsUGAB577DHTX3/JlfXxxx/zQVe1efPmIZFIwOPxIBQKZX2Tc/r0aT4IX3zxBR+kOnbsGB+UtZkzZ6q/RrNfw6uqqvhoqlgsBrvdnvJGs62tDR0dHXA6nQiFQpgyZQof5ZpXWloKQRAwd+5cJBIJXSslkq0StbW1sNvtCAQC8Hg8uvlDDXu9jNkNbzrxeBzPPfccBEGA1+tFKBTiowwKm80Gh8OBlpYWdHR06FopcRm343LKdZ8wgiCox+iVuk4OtevBpTy3VVVVDeg8PFgu1XWFkKsVVSqJKXYDn+6kecMNN/BBlxz75dnsgsl+sU4lm2WzzRO7qRrMNC/WmTNn+CBTbFtPnDjBz8pKNnnORroW2Xg8Dr/fD7fbjUWLFqG4uDhlRYzHd8ETRVH3KzZv//79EAQBxcXF/CydU6dOqS0QTEVFBQRBwObNm9HR0QFBEAzdyXjp8rFmzRqIogifz4fi4uK0ZTSYsjkmstnv2Rzr2aSTjtVqRV1dHZDct3x5s65vfr8fFRUVhtaFbGVTJoOBlVk2edc6dOgQJElCc3MzXC5XxuP3YrDuxjBppcx1O8x+/BnIccRkczwNJD1cxD5h6urqcODAAQiCgEmTJmXVDVs7ku5gyPZ6wLtUx3225zaz/djT0wNBEPhgFevm+s477xi6vmrlkjZS7JvBuq4Q8n1ClUpiStulhL8gbtmyBaIo5nyzdjGKi4shCALWr1/Pz8Ly5cvTnsQzLcvnyWazoaOjQ5d/9qszizfQNAfTnj17dNP79+/XTT/11FNA8vklLbat77//vi48W5nyrN0H2ZRhOtqLfTweNx3OXzvEezwex+HDh3Xzq6urIUmSaZdtn8+nPuMITd7a29t18cLhMCRJgiRJhu+Dy+VCZ2cntmzZYqjg8PLy8nDq1Ck+WIe/wampqTHsw1xdzDGRab9ne6xnSifdd5h3/vx5w/5ghg8frv7v8/lM9z8uskwGQ0FBAURRxPLly1PmJR3WXRGa13Tkkk62WCseb6Db4fP5DPNZxSOb44jJdDwNND0Mwj5BMo3m5mYkEgldF2yHwwFousIzW7duBQAcOXJEF56tTNcD3pU47rM5t/H7MRaLobOzM+25ld2vrFmzRv0x0uzHu0xpD2TfDOS6Qsg1gx+9hxCGH/Y9pBkCWzsCbKoR4HKVKT022pvD4TAMH59pZFq2rNnQ8/yyfP4DgYA6mqB2NL+BpCmnyV+qkf74cLY8SyOkeW0AuCHj7Xa7LHBDxovJodbTDRnPpNrWbPdBtmVoxpEcJdXr9cqBQEDNCxvlj5WLNg7bBr4cWfmw0SWRHOGP/dXS7s+Q5pUiZse+zO2PVPPYPgkkR5RkaWtHLJQ1eWL7lR9ynj8W0oHJ6J4Xe0wM1rGe7fHjMBk9uK+vTxYEQRYEwTRttk5WxqzMUo0eebFlIqfJp9n2m4Wz40IQBLm1tdUwQqQZVg7su8WOUzs32ijLP8svY3Z8pDq+2HfRbJlstoMvGyS/L9rzQrb73yx8IMclv2yq8Fz2iWyS18WLF8vgRlNl5x72PWflzr7vrNxS7Q8t7fmHpWd2Pbjcxz2/3ZnObdp8aM+97HrByp/PB8OOAZjs82zTlgewb7Rxs7mu8MdXpnBCrjb0ShGSUW9vr3oyZSfPVCds/sKSq2zSCyQrGfyFIhsDWba3t1e9QLK4fEVAHmCaqfKX6gaCD2fLL168WL2QiaJo+iqFvr4+3Q2GI/leMHajk6lil2pb5QHkOdsy5PX19emOPX457U2K9oaX5Y3n0bwah5UZu6HhBZKVXyRvKj0ej9zX1ycjxVD77OaEx8pPWy78drCbOmbx4sVqfvjvG38spMPKg3exx0S2+10ehOPH7IaLlUEoFEr5AwW7YYTmva+M2T652DJJlU+z7U8VHtK83w/JfZ/pe9Lb26suIyRfjcBvq7a8tFg+tcyOL23eWBnxaWXaDr5skPweacucP9blFOWUKjyb40lOsWyq8Fz2CZ9XWfM6De33XHveEpOv6mIVWVYOZvuDx/ZPpuvB5T7uzbY73bmNpdXa2qouD5Pzvlk+GCH5YxMv27SZbPaNNm421xWz4ytdOCFXG6pUEnIV4G8s0l1UryV8uWQr1Q3PlaCtOJPM+pKtYuwmjN3o8Te1Q126G0lJktTWPrMb5MvNoXmvKnuvX6ptz9bF7rN05ZerdGkOtX2i9X25HgxGPlLtw8FIO5NcryuptpmQqw29p5IQQq4gq9Wa83tIr0VLly5FIpFQB46pqKiAw+FAY2Njzs++DTU2mw0ulwtutzvjqw4uNe2zYVarFTabDXV1dejo6Lhio5peCUNpnxBCyFBFlUpCCLlC6uvr0djYqA4QQVKLxWJoaWmBw+HQDeSzZMkSJBIJrF27Vhf/ahSPxxEOh+Hz+dS8XklLliyBIAi696rOmjULgiAYXuXyfTXU9gkhhAxVFlnpikIIIYQQQgghhAxId3c3tVQSQgghhBBCCMkdVSoJIYQQQgghhOSMKpWEEEIIIYQQQnJGlUpiKhwOw2KxpP1citH/4vE4mpqaUFRUpK4nPz8f9fX1WY/u2NTUZNhW9mlqauKjkxTy8/MxYsSIrMv9e2ndOuCeewCLBRg+HHC5gLNn+ViKiROVOG++yc8hWfJsPgTbs+1YvesoP4ukcfbzrzDn9U7cO+c/YHu2HRPqNmPDvmN8NADAW0c/gu3Zdsx5vZOfRYaYeDyO/Px8FBUVXdvn4cusvr4eFosFsViMnwUAaGtrg8Vigc/n42cRck2jgXqIqVgshq1bt/LB+OKLL/DKK69AFEUcOnQIVquVj5KzaDSKRx99FADgdrsxceJEAMCePXvQ0tICADhw4AAKCgp0y/FisRhqampw+PBhvPrqq7j77rvVebfeeitsNpsuPjFqampCY2NjVuX9vbVuHTBrFlBeDsyerVQmGxqAkSOBY9wN+7ZtwJQpwNatwOTJ+nkkK2c//woVS7ZibuVYzJt0Pz+bpDGhbjPOJb7G3MqxuMV6PbaFPkT3iU/RMGMcni29Rxe36qUdAICdLz2lCydDT1NTE7Zs2YK9e/cO6rWWpBeLxSCKIjweDxYtWqSbF4/HMXr0aDQ3N8PlcunmEXIt6+7upkolGZiamhq0tLSgt7d3UCsb7EQtiiL8fr+h4hePx1FeXg5JkhCJRAzzzbS1teHFF19EXV0dZs2aRRdlMjC33678PXOmP+y114AXXgBWrQL++Z/7wwm5QlbvOoqV245g/uQiXWX84V9tBAB0vz5DE5sQko2ioiIkEgmcOnWKn0UIMUGjv5IBCYfDaGlpgcfjGdQKJQCsXbsWiUQCq1atMq0wWq1WrFq1ColEAitWrOBnGwSDQaxZswaJRAK1tbV48MEHEY1GdXHKy8tRXl6uC2tra0N+fj4sFgtGjBiBpqYmxONxWCwW1NfXA8luofn5+brlkHxRuLZLTDweR01Nja4br7b7rdn6+WWKiooMXWxY916tWCwGl8tl6O6r/aTr0qxNNxqN6rof19TUmHa9ikajqKmpwYgRI2BJ5i8YDPLRFAsWKF1Is/1orVunVPC0XVB7evRxAODXvx54PLPPggXKcmfPAlOn6pdlFcmOjv6wN98Eiov7l7/nHmWbAX04vw5AWYfL1R9+++3989jymncymlm6IQzbs+18sC58+8EPYXu2PevP9oMfqul4Nh/Cw7/aCNuz7bh3zn9gzuud6Dl5TrMmxVtHP0LVSzvUNKY37talA003TRbn4V9txNIN/d3oq17aobakmWHLnv38K1342c+/go3r0slv99INYTXev7Qd0C2vxZdFuo922/m8TajbbNqNd/vBDzGhbrMaz6ycAKDn5DlMb9xtWKf2AwDv/eVzADC07k4ovAPnLnyDt45+pIYt3RBWu8iyfakty2zXCQAb9h1Ty9eWzAdbFzvezPLF8Ocg7XmKnauCwaDuvFZeXq6ex2OxGCya87JWpu6LSF4j2LneYrHA5XKpafPblO7Dzuna8zl/LdDirx/ptoOVA/+oiXaZESNGoKamxpBXtm319fUZz9Ha657Zh+VxIGmayWY9qR5fYWXLytnn8xmu1Qy7hvLXLXYtr6mp0YWbmT17NiRJMpQ9Uly7w+Gw7rrJf8rLyzNeg83SYdffoqIiFBUV6dZJyFBDlUqSteeeew6iKOpehD1Y2tvbIYqi7qXmvOLiYtjtdtMLtZbP50NlZSUAIBAIIBAIID8/H48++qihYqnV1taGuXPnwm63IxQKobm5GY2NjZg+fToAYPz48QCAl19+GZIkGbZjyZIlEEVR7RKzdOlS+Hw+eL1ehEIhlJWVoaenx3ChY1hrrHaZoqIiTJs2Le2zoNFoFHa7HZIkqcu53W4AUPMSCoUwZswY9X9+ntbkyZPx9NNPIxQKwePxoKWlBUuXLtXF8fl8GDt2LGKxGDZu3IhQKITq6moc47uFMs88o3QNXbZMmXY6lWn2YV2U2TTz2mtKF9S77+5fvqsLePRR/bONLpfSNXXiRGM8bcWSj7dqldKdFVCW2bpV2da//EUJe/jh/mWZ8eP16/7lL4ELF4C1a5VPXh7wwQfKvJdeUtJ0OpVp7ToAYOFCYM8eZTu2bgXGjQOOH0/93GaOiu68BSuqH8GK6kcAALZb8tTpFdWPoLTwDgDAnMoCrKh+BEV33qJMv96JtkAUD9/1I6yofgRzK8fivdhf8eyKoK5i+dbRj/DPrfvx399+h4YZ49AwYxy+/vY7LGh/W1exeHlTN7o++ATzJxdhRfUjuM/2d4h9dsFQSUxl6s/+BwBgV7e+9YBNj7vrViBZoWwLRNV8zq0ci51dJ/FPq5XnXQtsN+mW12JlYrslTze9ovoRzKlUfkwrLbwDK6ofwVPjRgPJCuUvVu7R5U28JQ8rtx3RVTxX7zqKBe1v4+a86wzlpH0G8q2jH+HZFUGcu/CNmh7bR9p9BwDnEl/jvlHG/Nyf/3cAgI/7lLJdveso3tj/AarGjcaK6kdQNW40ziW+xocfnwcGuM6ek+ewbGOXGj5/chHOXfhGXVc22LnHbrfrpseMGaPGmTFjBkaMGIFQKASv14vDhw9jcrJ7uc1mg9PphN/vV+Mzfr8fdrvd9AdKJCuklZWV6jnQ6/VCkiR88sknQJptC4VCaG1tBZKPaIRCIUyZMkWXNgC4XC6IooglS5bown0+HyRJwssvvwxksR1m2PVNe53q7OyE3W43XFsaGxvx7rvvYuPGjQgEAhAEAZWVlboKaE1NDebOnQun06lugyiKAIDW1lZDHrNJ00y265kyZYppOXs8HjWtw4cPY8mSJXj55ZcRSl5ba2tr1WvynDlzAAD79u1Tl9FOP/HEE7pwM+xeYdOmTfwsA5/Ph5KSEoiiqN5zOBwOgNv+TNfgaDSKkpISQHPvcuTIEUyfPh2RSARlZWWatRIyBMmEZMHr9coAZK/Xy88aFABkh8PBBxu43W4ZgCxJEj9LJQiCLIqi3NfXpwsXRVEWRVGddjgcunWy5bRCoZAMQAagS49Py6x8BEFImyd+/SyNUCiki7d48WJdnj0ej6z96jqdTlkQBEN+WVn19vbqwuUU5c3S5fex0+nUrU+SJFkQBNntduviZWXrVlkGZHn+fH34+PFKOG/kSGWe1rvvyvKwYbLsdCrT+/aZp/nuu0p4tvHKy/vD5s9XwrZu1cZUaLc1VZq8VOkNG2bMn9b48enny7K8ZH1IHjWzjQ9OGT5qZpv8ZMN2XRiLuy38ZzXszZ7T8qiZbfKS9frj8d0P/5c8amabXP1ahxpW/VqHfE/1OvnMX7/UxX281i8/9Pwf1Ol7qtcZ1q31ZMP2tPNlWZYfev4P8jOv/lEX9syrfzSsRzsty7K8LfxnedTMNnnUzDbDdpp5smG7ofxYGnyZ/Nt/9hjKT5Zl+YXW/fKomW3yux/+L1lOk/+Hnv+DbnufefWPpuVZ/VqHPGpmm/xmz2k1zGx/yibb+syrfzTkR2sg62z0v2OaX4atO9V8LYfDoTu/yJrzLn+OaW1t1Z0j2TlTe47r7e01PY9p8emkkm7bPB6PLjzV+Vy7Hfx1I9N2sHVp54uiaDh3m52TARiuZ6xs2Lbz04wkSTIA2cnOnUnZpGkmVZxU65EzlDNM7gH4660oioZ0nU6nYftTEQRBBmB6beX3Nb9uRhRFWRAEPliWU1yD2bVWm7e+vj51WwKBgC4+IUNJV1eXTC2VJCt8K9yVcscdyi/nn376KT8LSHYdSSQSWLhwoeEZyoULF6bszsKWq66u1oWz1lFRFHXpaVsr4/G4afmUlZXh8OHDpuszs3PnTtPW2qnJLpj8r66M3++Hy+Uy5Jf9Wtuh7aqZhQceeEA3XVhYqJtm3Y9/85vf6MIH3ZtvKi12fEtAYaHSordnjzK9d6/yl7X+MYWFyiA7rCUjUzw2X2vKFGPX1YMH++dPmAAMG6Ysa9bVNpNx44D331cG+hli3n5PaS1lrXFM4eib8fCYW7Gv57Qa1vXBJxh3148w8qYbdHFLC3+s64J536ibIH12IW23yEwevutH6D7xqdq6efbzr9B94lM8fNePgGTXy6+//Q4Tkq1szM/H3wnbLXm4Oe86w3ZerK4PPsHNedfh5+Pv1IVXPqC0lO07elrdLtb6p1U1fjTOXfhGLZfuE5+alidrqWX7hnnvL58buqkuaH9bF+e+ZOusZ/MhXTgzkHXaR/8/AICOyOmsW5lz8bOf/Uw3rR10DQBKS0sBAJs3b1bD2P9snpmHHnoISLZC8a17g4VvrWxra9O1UiKH7YhGo5AkCc8995wu3GazoayszNB7hm/Z4h9bYdcGvrU1XStwpjTN5LKedERRNLRC89ctli4r13g8Dr/fDyfrNZKGz+dDIpGA2+1GIpFIee2F5t6B3ydI3nMkEoms7wH8fj8cDocub1arVe159JOf/EQTm5ChhyqVJCN2IeMrXFfC6dPKjeyttyrd3FLhbz60YR9//DE/Ky2r1ap2g2K0Nwxr16413CwAwOrVqwEAJSUlsJg8F8O7cOGC6bOa7KL9xRdf8LPULjqssq2VzcXeDH+x5nV2dppWYgcdyy/rnqp1993Al18q/x8/rvzlKr9AMh6TbTwt1l3VrKsus26dkvZPf6pUOgeiPfmMGqu8DqHKZeyzC0CyEsljXUOZr7/9Dn+Xd50uDABG/0gAAHzxzf8BADTO+nsAwIL2tzM+c5cKq6ixLq/sLwtP529/+APDtg+Gr7/9DjcL1/PBePz+HwMA/vt/f4eTnyQAALdYjfFYOSHZDRWAaXmy9Hh8d2ZtV12mduqDuG/UTUq3YO550IGu8/H7f4zpj92FfT2n8fcLvGmfg70Yt912Gx+kY7VaDZUSVnFId34qKChQu/bfeOONhufjBgv78ZENGsf/8DjQ7fjqK6UCb1YuhYWFSCSUY4wxuy5o9SR/CDM75/M/JjKZ0jSTy3rSMbtO8vgfY9lfFp4O+4G3ubkZgiBg586dfBTV8eR1xWyfmN2H5GL48OEQBMG0/AgZSqhSSTJiv/zyvzIOJlEUsxpl7ciRI0Pm5FpdXQ1JklBbW2u4WQCAefPmIZFIwOPxIMQ9K3Q1kyRp4DcWrJWPHUMrV5q3/mnDWFyz1sKVK/vjsxZGPk6u8bTTDQ3K+rUfVjllcfnvBZ+2Nj0+L7ff3l85Npt/8KDyMRnYQTu4g5m/XviGD7ri6tb+F77+9jtMf+wurNA8uzkQj9//Y9huyUPXB8pzZ6yV0Kzycy24b9RN+Nsf/gA/H3+n7sMqqvm3KpVoz+ZDeO8vn+PhMbfqngfNxVtHP8Ib+z+A7ZY8NMwYh396cuAVg8Eyc+ZMSJKEaDSq/gBaVVXFR9OJRqOora2F3W5HIBDQPa83mEpLSyEIAubOnYtEImH44fFybce1qKCgAHa7Xa0Qsopiph9bY7GYrkXT7XbD7/dnfGaUEEKVSpKFzs5O0+4mg4lV0NK15oXDYUQiEUPlTeuGG5SuW+zXQy3WQmn2i2I6p06dQiQS4YMxa9YsCIJy48bfLLCuNm63G4sWLUJxcXHaX84Zs4o1a40cPnw4P0u9QLIWXK10y10MQRDUX56zpjxR2D8Iz/z5/WGyrAx+o42njbtqlT5clpXuqsOGKf/Pn6/Ee/dd83gs3UzxWHqyrMRBsqWSjztsmBJflpWBeVJto/bD1r11a38Ye1WJ02mMzz7jxysfWYZs8knnXOJrPmhAWIue2UivrBVTy6wSy1rnhl/3f6vdVEsL78Bvni3Gz8ffaehqma3Swh+rXWC7T3yKqvHZVZDOJb423fbBYFberAXwb//mB2ol77O4MR4rJ2haBs3KU5sec7NwPSSTPLE0b7tRKeN9PR/h5rzr8EbdE/j5+Dt1LdADXWfgsHKD3TTr7/Fs6T1XtEJfUVEBQRCwefNmdHR0QBCEtNcIaH4o9fv9qKioyFjRyJXVakVdXR2Q/OGU365ct8Ost01PT496PcoWayU0qzDlkl4ql2s9vNmzZ6tdYP1+PxYuXMhHMWAtmmxAQr7Fk5euBxS7D2H3Jbk6ffo0EomEafkRMpRQpZJkdDlGHWMVtOeee870xBmPx/HCCy9AEAQs0L5ygVNQUABRFLF8+XLDMyrr16+HIAiGZxaRfHZSEAS0s+6ISeFwGJIkQZIkQ3paZ7TvMtTQXizZ6K7pRqA1q1hnekbI6XSqz3ZqtbW1AWmWy5XL5YLf70+bj0GlHQ0WUJ5d7OpSRnAF+iuO/Ch9PT1K6ySbnykeSw/JLrIjRwJr1mhjKt1Tv/wSSI7spxo2rP9/9oqRbEdw1Vb6z55Vln1TGaV0ILSjh579/CvTisZAPHKf0u14R9dJXXjPyXPKM4xj9F3Quz74xPB8HavIaCsd1/+wv3Jy9vOvUPXSDt1rL7JRer/SUv7ypm7dNJLPTl7/wx/gTc0zn0g+a3nuwjc4d+Ebw3YOBu0zkQyrfJXef4e6XdpnUZmdB0/i+mRrIwA8POZW0/Lc/P/+GeDye9+om/D1t98ZXl/S/cGnxrL/m/9LF2fO653qcgNZJ3OTprvs6l1Hda90uZxcLhc6OzuxZcsWQ8UtHe0Pbj6fL6tXTeTq/PnzhnM0M9DtWL9+vW46FoupjyUMBBuhdCt3jmWtdQNNL5XLtR4eu/ax0cuzuRYuX75cN3Iwa/Fcvnw5HxXQ3Dvw+wTJtLJpHWWcTic6Ojp090DxeFx9VvZPf/qTJjYhQw9VKklarIKTrrsje/dSutdeZGK1WnHgwAGcP38edrsd9fX1CCffV1ZfX4/Ro0dDkiQcOHAgY4vp+vXrIUkSysvLEQwGEQwGUV5ejo6ODmzcqLwQ3ExzczMkSYLL5UI4HIbP58OkSZPUbjCHDukHuGDv1hQEAY2NjbobBqvVCofDgZaWFvh8PnUbDh8+rEvDzKRJk+Dz+RAOh1FTU4NXXnkFixcvTpnvF198EUi+O0u7XEtLS9rlcrVgwQIIgoCxY8eivr7+0lcuDx5UKnzbtimvGGFd2xYtUv5OmKC09q1cqbwyRBtv2DDgt781xpszxxiPpce89JJSydOu+5e/VJ6pZO+rLC1Vlv3Xf1WerXztNWDyZOUVI5mMHKm0Qvp8ynLr1inrev99PmZWVmw9gtW7jmLDvmP4p9Vv4utvv+OjDMjj9/8YpYV34I39H2DO653YfvBDrN51FPP+bR+u/+EPMH+y/p1pX3/7HX6xcg827DuGDfuOoeqlHYh9dgFznxgLABh50w24b9RN2NdzWt3OX6zck1Plt3D0zWpatlvyDM99zq0ci3MXvlHfAbl611E0/P6gWhHe3zuwSmy2Gn5/EKt3HcX2gx9izuud2Nl1ElXjRqvbN7dyLN77y+eoemmHrpzOXfgGC6b0l+cvHfcCAH6xco8uvX09p3XpIfl+StsteWgN9Kpxpzfuxnt/+VwteyQrjbHPLmDphrAaR1vBHcg6i+9RBkWqW/tf2H7wQyzdEMbKbUfU+ZfbM888g0gkgkgkktXrIiYmf0CaN28ewuEwmpqaMG3aND7aRYvH42hsbIQgCEgkEljLejYk5bodHR0duusU+9E33Q+uZgoKCuB2u1FbW6tec1l6mX7AHYjLtR6ezWZTr8PpXjHDsO7Ts2fP1oWzd1amutY1Nzer+0R7zyFJEn73u9/x0VN68cUXIQgCnE6nLh22fw9qB4kjZAiiSiXJyrhx4/igQVdQUICTJ0+irq4OnZ2dKCkpQUlJCTo7O1FXV4eTJ09m9YtfcXGx+t6nyspKVFZWIi8vD6FQCBUVFXx0lcvlQiAQQCQSQUlJCWpqalBXV6cOuKM9obObBYfDgebmZtMbhjfeeANlZWWYNm0aKisrIYoiDhw4kDYPDocDdXV1qKmpUfPu8XjwW1YxMlFQUIADBw5AFEVMmzYNJSUlOHLkCLxeb9rlcmWz2RCJROB0OvHKK69g7NixyM/PN4w8OGiWLQO++kp53vCFF5RK3bZt+gF3fD6li2lXlxKvoUEZWfXAAfN4e/akj4fk+yfXru0fgZa935KNOotkxZANrjNrlj6O2QBDPK9XWf8LLyjLs/QmTOBjZlQ1bjRaA71YtrFLnb5Ybb8qw/TH7sJ7sb9iQfvbaA304j7b32HDggpDRa5q3GiIt+Rh2cYuLNvYpb6z8tnSe9Q4/3PeBNw36ias3HYEyzZ24ea86/Da3Mdy6j7JRlEtLTQuO2/S/WiYMQ6xzy6o2101brQ6UFA09jm/yEW7b9RN6j5Y0P423ov9FdMfuwv/OudRNQ7brv/+9ju1nK7/4Q+wovoRXTk9fv+P8drcx3Bz3nVYue0IFrS/DemzC5g/uUiXHvMf8ydi3F0/Utd97sI3hrL/zbPFqBo3Gju7TurizJt0PzDAdf58/J2YP7lILd83e05j+mN3oe1Xl7ZHSyrFxcUQRRGCIKQ9xzPFxcXwer3qub69vR0ejwfNzc181IvCfnjctWsXRFE0/PiY63a0trbiwoULKCkpwbRp02C327P6wdVMc3MzPB4P/H6/et0rKytDJBLJKb1ULtd6eGxUVr6iaIb17uHHj2DTbD6P3TtIkjSgew4eu5ZbrVY1naKiIqxevRp2ux2dnVemJwAhWePfM0IIyYy905G9P8xut5u+z2og+HdfDRX8ezG1+vr65EAgINvtdhkp3omZM/ZOS/7djkQn1fsoLyezdzdeS57M4v2a5OKZvbdxqGLvF2Tn9EAgYPrexYEYjPxf7DaYuRRpDtRQvX4Scq2g91QSkoNYLIba2lo4HA71+cxVq1aZtlZ+31mtVlRUVGDZsmWAZsh7Qgi5li1duhSJREJ9T2VFRQUcDoehtZIQQr4vqFJJyACtWLECANSbBSS7MV2LNwzhcBjBYBANDQ0QBOF789oUQgjJVSwWQ0tLi+6HRySvGdfij4+EkGsDVSoJGQB2s+B0Og2jyF5rNwzBYBAlJSW650WzeW0KIYR8n7EfHvn3Tl6rPz4SQq4NFjnTy84IIYQQQgghhBAT3d3d1FJJCCGEEEIIISR3VKkkhBBCCCGEEJIzqlQSQgghhBBCCMkZVSoJGQLi8Tjy8/NRVFREAzgQQgghhJCrClUqCRkC1q5di/Pnz2Pv3r00giohhBBCCLmq0OivhBBCCCGEEEJyQqO/kiGlra0N+fn5sFgsGDFiBJqamhCPx2GxWFBfX49YLKb+z6uvr4fFYkEsFgOS75N0uVywWCywWCwoLy9HNBpV48XjcZSXl6vzM33Ky8sBAE1NTbBYLIhGoygqKlLn19TU6LqthsNhWCwWhMNhNSxVeDAYVPNtsVjgcrkQjUYBQO0SywsGg7BYLPD5fAAAn89nSJdXU1OD/Px8dTrbtAkhhBBCCEmHKpVkSGhra8PcuXNht9sRCoXQ3NyMxsZGTJ8+HQAwfvx42Gw22O12+P1+fnH4/X7Y7XbYbDbE43GUlZWhs7MTXq8XoVAIeXl5ePTRR9HZ2Qm73Q6r1QqPx4NQKAS32w0AaG1tRSgUUj8A1O3hX2I9efJkPP300+q8lpYWLF26VBcnG7FYDJWVlep6vF4vJEnCJ598AgBYuHAhIpGIWllmdu/eDQAoLS0FAKxcuRKiKKK4uFgXT+uJJ56AJElqZTHbtAkhhBBCCElLJmQIEARBFkVRFxYKhWQAMgC5r69PlmVZ9nq9MgC5t7dXjdfb2ysDkL1eryzLstza2qqbZhwOhwxAXrx4sS7c4/HIAORQKKQLByA7HA5dGIvLp+10OmXt14ltO58mH862lY/HSJIkA5BbW1t14YIgyG63WxeHzxcA2ePx6MIEQZCdTqcsZ5k2IYQQQggh6XR1dcnUUkmuuHA4jEQigerqal14cXEx7HY7RFFUB69hrWebN29W47H/2bwdO3YAAFwulxoHAJ5//nkAwL333qsLz8UDDzygmy4sLNRNZ+uhhx4CAGzatMl01FfWOrtmzRo1LBgMIpFI4IknngAA/OlPfwKSrbmZPPDAA+js7ASyTJsQQgghhJBMqFJJhjSr1Qq73a6bdjqdui6wfr8fTqcz46ipw4YNAwCMGTOGnzVgNpuND8pJQUGB2n32xhtvVJ/d1Jo9e7aum+ru3bshCAIqKioAAMeOHQM0+Uvnpz/9KRKJhDqdKW1CCCGEEEIyoUoluepUVVVBkiREo1FEo1FIkoSqqio+2pD08ccf66aj0Shqa2tht9sRCAQMz24CwJQpUwAA+/btA5KD8vCtsNkaPny4bnow0yaEEEIIIdcmqlSSIe3UqVOIRCK6MNbN9Z133jF0fU2HVehOnDjBz7pszpw5o5tm2+/3+1FRUYGCggLdfGhaZ9esWaN2FZ4zZ446//bbb9fFB6B2pT19+rQuvKenB4IgqNOZ0iaEEEIIISQTqlSSK664uBiCIKC9vV0XHg6HIUkSJEnSPW+orQj5/X643W5d19ennnoKSLa6aa1fvx4A8P777+vCL6U9e/bopvfv36+bZrQtiD6fDzU1Nbr5VVVViEQi2LRpE0RR1FU+2fOd2nUdOnQIANTnJ5GsaHZ2dqKsrEwNQ4a0CSGEEEIIyYQqlWRIaG5uhiRJcLlcCIfD8Pl8mDRpEpxOJ6CpJDGsIiRJkmFQmSlTpsBut6OmpgY+nw/hcBgulwunTp2C3W7XVbQutVdeeQVNTU0Ih8OoqalBR0eHbv7EiRMBAPPmzUM4HEZTUxOmTZumi4NkS6wgCGhpaVHLhLHZbHA6nXjllVfQ1taGYDCIGTNmqF1pWZnOmzcPiUQC//iP/6hbPl3a0LybM907MAkhhBBCyLWLKpVkSHC5XAgEAohEIigpKUFNTQ3q6uqwevVqAMDBgwcN8QVBMB1Uxmq1Yu/evXC5XJg2bRpKSkpw4cIFbNu2DWVlZYhEIqYjrV4KixcvRnt7O0pKStDZ2YnW1lbd/OLiYni9XjXf7e3t8Hg8aG5u1sWzWq3qs45Tp07VzQOA1atXw+12Y+7cuZgxYwbcbjcWLVqEbdu24cKFCygpKUEkEkEgEDC8yzJT2oQQQgghhKRjkZX32RFy1WEjpe7du5efddk1NTWhtrYW7OsUDodRUlKCUChkqMQRQgghhBDyfdHd3U0tlYQQQgghhBBCckeVSkIIIYQQQgghOaNKJSGEEEIIIYSQnNEzlYQQQgghhBBCckLPVBJCCCGEEEIIuShUqSSEEEIIIYQQkjOqVBJCCCGEEEIIyRlVKgkhhBBCCCGE5IwqlYQQQgghhBBCckaVSkIIIYQQQgghOaNKJSGEEEIIIYSQnFGlkhBCCCGEEEJIzqhSSQghhBBCCCEkZ1SpJIQQQgghhBCSM6pUEkIIIYQQQgjJGVUqCSGEEEIIIYTkjCqVhBBCCCGEEEJyRpVKQgghhBBCCCE5o0olIYQQQgghhJCcUaWSEEIIIYQQQkjOqFJJCCGEEEIIISRnVKkkhBBCCCGEEJIzqlQSQgghhBBCCMkZVSoJIYQQQgghhOSMKpWEEEIIIYQQQnJGlUqSVjAYRFFRESwWCywWC1wuF6LRKB9t0MTjcTQ1NenWmZ+fj/r6esTjcT66qaamJnVZ/tPU1MRHJynk5+djxIgRWZf7UBCPx2GxWFBTU8PP0onH48jPz0dRUdFVlb9Bdc89wO2386H9Jk4Ehg8H3nyTn0OupF//GrBYgNde4+cMOf/SdgCrdx3F2c+/QtVLO9Bz8hwAYOmGMGzPtqf9bD/4IZ/cFVf10g5UvbRDne45eQ7TG3fr4gyW7Qc/hO3ZdizdEFbLayiWCSGEMFSpJCmFw2FUVlbCarUiEAggEAhAkiQ8+uijl6RiGY1GMXr0aDQ2NqKsrAyhUAihUAhOpxMtLS0YPXp0VuudMmUKHA4HBEFAa2urmk4oFMKUKVP46MREU1MTzp8/jwMHDsBqtfKzhyyr1Qq32w2fz5e2srh27VqcP38ee/fuvaryN6hmzwbOngW2bePnKGFdXcrfCRP4ueRKOXsWWLkSmD8f+Od/5ucOKW8d/Qixzy5g0sP52HTgA9huyUPh6Jt1cUoL78D0x+4y/dzxd8N1cYeiHV0n0X3iUz6YEEKuSRZZlmU+kBAAcLlc6OzsxMmTJ9Ub73g8jhtvvBFutxvNzc38IjmLx+MYPXo0RFGE3++HzWYzzC8vL4ckSYhEIob5Ztra2vDiiy+irq4Os2bNunYrD9eYYDCIyspKeL1euFwufjZhzp5VWiqdTsDn4+cSclG2H/wQC9rfxvTH7gIAvLH/A6yofgQ/H38nlm4I66avViwfsQ3V/KxBMb1xN8bd9SNMejgfU1/+T2xe8iRG3nQDH40QQq647u5uaqkkqV24cAFItv4w7P/z58+rYYNh7dq1SCQSWLVqlWmF0Wq1YtWqVUgkElixYgU/2yAYDGLNmjVIJBKora3Fgw8+aGjlLC8vR3l5uS6sra0N+fn5sFgsGDFiBJqamtQulfX19UCyW2h+fr5uOQDw+XywWCzwJW/Q4/E4ampqdN14td1vzdbPL1NUVKSmx7DuvVqxWAwul8vQ3Vf7CYfDhjD20aYbjUZ13Y9rampMW/2i0ShqamowYsQIWJL5CwaDfDQVnzdteaTrsmz2QbIl3ZLMl1ZFRQUEQcD69et14UwwGFT3sUXTpTsWi8Gi2c9a9fX1sFgsiMViadNAmu3SsVjMP6zV0GIBFiwA5sxRuqBaLEoFcN26/jRuv13pwspbty677pEjRwLl5cCePUoFk8e2QevXv1bWy283+yxYABQXG8P5tLTpDB+uzDt7VpmeM0e7RqNt25R8s3RdLmXZe+7pL49sy+bsWfMyZvHWrVO2jc9Lug+S28iWnzixf15xsbE7scWknM3Cz55V8srSuv32/vksnN+PrEzZjys9PcZ0ea+9psTp6VGms037Elq6IYwJdZvVrrEP/2ojlm7o/37Neb0Ttmfbcfbzr3TLnf38K9iebcec1zvVsO0HP9SlNb1xt6FbadVLO7B0QxjTG3er6+s5eU7X/bXqpR14Y/8HAADbs+26brHbD36oLmt7th0T6jYb1sG6zt475z9M8/TW0Y/w9bffYd6k+7HpwAeoGj+aKpSEkCGNKpUkpeeffx6JREJ9npFVCgBg5syZfPSL0t7eDlEUUVxczM9SFRcXw263GypZPJ/Ph8rKSgBQu+3m5+dn7Lbb1taGuXPnwm63IxQKobm5GY2NjZg+fToAYPz48QCAl19+GZIkGbZjyZIlEEVRbR1bunQpfD4fvF4vQqEQysrK0NPTY1pBg6Y1VrtMUVERpk2blvZZ0Gg0CrvdDkmS1OXcbjcAqHkJhUIYM2aM+j8/T2vy5Ml4+umnEQqF4PF40NLSgqVLl+ri+Hw+jB07FrFYDBs3bkQoFEJ1dTWOHTumi6eVrjymTJmCUCiE1tZWAIDb7Va3LRQKwW63A4Dp9vJisRgSiQQ6OjrUSqB2XmVlpZp3r9cLSZLwySefwGazwW63w+/365YBAL/fD7vdDpvNljaNrG3dqnzuvls//cAD/XH+/d+B48eBVauAtWuBYcOAWbP6b/Znz1bms2mmM3kDPXmyPtzM8ePAl1+ad4HluVxAQ4NSSdq6VdmukSOVecuWKWHPPAO89JLyv9NpnIdkhbKhQcn71q3K/H//d2DaNGX+gw8mV2jizTcB1oV97Vrlc+yYsuzx40DyO4qJE7Mrm+pqoL0d+Id/ULZl6lSljFnlvbRU2W62nYCSL7a/zPah1gsvKBVWVl7vvw/88pf6ONlauFD5AWDVKiW9ceOUPJ49qxwLSFZmtdh0WZnyt61N+cv2hRlWNuyck23anJ+PvxOxDdX4zbPF+M2zxYhtqM6pVfJf2g7gjf0f4OExt2JF9SNomDEOtlvy8Mb+D+DZfAgAMPVn/wMAsKv7lG5ZNj3urlsBAKt3HcWC9rdxc951aJgxDg0zxuHrb7/Dgva3sWGf/ty1s+skAGBF9SOY8fjdhq67//RkIUoL71Dj/NOThYCmhRYAGmaMw4rqR3Bz3nWGdSxa+184d+EbLJhShBXVj2BC4R14Y/8H+Je2AwCAx+//MXa+9BQAoHbqg6idmuZ7QQghQ4FMSBper1cGoPt4vV4+2kUDIDscDj7YwO12ywBkSZL4WSpBEGRRFOW+vj5duCiKsiiK6rTD4dCtky2nFQqF1Hxr0+PTYuWkLRtBENLmiV8/SyMUCuniLV68WJdnj8cja7+6TqdTFgTBkF9WVr29vbpwOUV5s3T5/et0OnXrkyRJFgRBdrvduniZZCoPWVPeHo9HF+5wOHTbIGvi8uXV2tqq7jM+HTaPX4Zh+0BbZr29vbpyyZRGqu0yNX68LJudhgFZHjlSH7ZvnxI+f74y/e67yvSyZfp4w4bJstOpDzPD0gOU7eBp18Wvm2HbUF6uD5dlJS4gy1u36sOHDTPmbevW/m05c0Y/T6u8XInz7rv9YWfOKGkCsrx2rRKWTdmwPPFlxbb77rv14Wwb+TIw24csLp/2smXGMjFL0yx82DDz/cSMHGncD+Xl+rIeOdKYr/HjjemWlyvrY7JJewCWrA/Jo2a2ydvCf+ZnGTz0/B/k6tc6+GB51Mw2+cmG7er0Q8//QX7m1T/q4jzz6h/lh57/gzp9T/U63TLMQ8//QRfvyYbt8qiZbfKZv36pi/dkw3bd8iwfWg89/wfTdTzZsF1dx5s9p+VRM9vkf/vPHl2cZ179o+myhBAy1HV1dcnUUklS8vl8mDZtGpxOJ0KhEAKBABwOB2pqatJ2c7yU7rhD+WX400/NB0cIh8NIJBJYuHCh4RnKhQsXQpIk026JbLnqav2zMax1VBRFXXra1sp4PG5opQSAsrIyHD582HR9Znbu3GnaWjt16lQAwL59+3ThjN/vh8vlMuR3TrIbYUdHhy48kwe0rWUACguVX+AZ1v34N7/5jS48k4GWR66WL18Ou90Ou92O9vZ23byHHnoIALBp0ybTFuPS0lIAwObNm9Uw9j+blymNQTNunH6aHzCnsFBpJdNsK9atU1oeU7Qe6axZo/x1OoGDB42telp79yp/+RauwkKlCy2bn8m2bcr2JY9p1eTJSl5Gjuxv/TSzd6/SGqk9JkeO7O+COXas8jebsmHb/PTT/XEA4Fe/Uv6adZ8dqOSxomKtmrkYN05p6eRbDJmJE5U8sW6qZ88q0xMn9k+fPdvfmpvO3XcrZcW66mZKO0cL2t/WjfjKPtquot2vz0Dbr4zH832jbtJNP3zXj9B94lO1C+zZz79C94lP8fBdPwKSLYhff/ud2rqoVTV+NM5d+Ea3XtsteQPubvrW0Y9w7sI3uFm4HtsPfqj73Cxcj3MXvsFbRz/CnbeNAJID/bDRcQHgjbon1NZJQgi52lClkphiXV0dDgd8Ph+Ki4tRUVGBvXv3QhRFzJgxg1/ksjh9+jQA4NZble5MqdxtcvPGwj7++GN+VlpWq1Xtfsm4XC6IooglS5Zg7dq1kCQJL7/8si7O6tWrAQAlJSWZn7FLPsNq9qxmQUEBAOCLL77gZ6ndeVllW4stN1Bmz7RqdXZ2mlZiMxloeeQiGo1CkiTMnz8fs2fPhiRJui7PBQUFapfeG2+80fBMq9VqhdPp1HWB9fv9cDqdan4zpTFobruNDzGaOlXfzbOzU+kmm00Xyz17lAol6964O82rEY4fV/5yPzAAF1lR0srLyz2tG25Q8q3dvlzLhlVq71IGmLko6SrIA8V+IJkyRXmWka9cssoxC2d/Wfjhw8rfG7KoKLG8s3NOprRzlGr0V37k156T57Bh3zEs3RDGnNc7MaFuM977y+e6OJUPKOct1uWV/WXhJz9JAABusV6vLsOM/pHAB+Fvf/gDPiijL775PwCAfT2nsaD9bd1nX49y7frim/+DkTfdgPmTi3Au8TVWbjuCv1/gxYS6zfBsPmR4LpQQQq4WVKkkpk6cOIFEIoGnnjL+avr0008jkUgMaqVAFEWcOqV/HsbMkSNHIAhCxorP5VBdXQ1JklBbW2topQSAefPmIZFIwOPxIJR8pvH7QJIk00psJpejPNqSz4yVlpaqr49hYUhWOmtra2G32xEIBODxeNR5TFVVlVoZZZXUqqoqdX42aWTEBls5eFA/zT6A8uqITOENDUrYT3+qTPv9SgsTv5zZ58svlfjJFlg0NKReF2vV49OwWJQ4ZvNYOKsEWSz9z0Oa5e3gQWU9fLj2Ayjx+PCVK435zlQ2ZtunXQ9fHqm23Wwfsrh82mbhZmmahd9+u7L9DJ82248vvKBMv/CCMl1aql83v66DB41lOmuWfh2Z0s6Rw36H+syl9qN9fnH1rqOY8vJ/YtnGLnSf+BT//b//P5QW/hi2W/J0aT1+vxLW9YHybHPXB5/g5rzr8Pj9P9bFuxwaZoxDbEO16Yc9Vzpv0v0IvjwF8ycXobTwDpxLfI22QBS/WLmHT44QQq4KVKkkQwKroKWrqIbDYUQiEUPlTeuG5K/wx1nLigZrobwtmxYgjVOnTiESifDBmDVrFgRB+YWbb6WMx+Pw+/1wu91YtGgRiouLs2rZM6tYs5a24cON721jrZGsBVcr3XIXQxAE9KTrKmki1/IYKJ/PB7fbDavVqrY6agdUYl1Z/X4/KioqTFtzWTfXd955x9D1FVmmkRF7gpB1Rex/olD5AMq7CLMJLy/vH/QGAPbtMy7Hf8rLlVY0Ns0GodEuq13X/PnK9Lvvmqc1bJgxnC2zdWt/GNtGPg+y3N/1lQ/XfgClzPhwNigQv313361s39q1yvy1a/vnmW2fLCtpINktWBueatvN9iGLy6dtFm6WJr+uM2eUaX6b+A/bjyz+smX981i++HWxbsdm6WiPh3RpXyJvHf0IK7cdwcNjbsV/rZiGNxun4o26J1A79UGcS3zNR0dp4Y/VLrDdJz5F1fjR6jzWGvlZ3Lgca8UcLNGYvhU1lZE33YB5k+5H26/K8H7bL1A1bjRin10wjBRLCCFXA6pUElPFxcUQBAE7dvQPk87s378fgiAYnv27GKyC9txzzxlG7ESyUvLCCy9AEAQsSDMcfkFBAURRxPLlyw3Pu61fvz7ldrP88s/ghcNhSJIESZIM6WmdYTdaHFbphGZ013Qj0JpVrM0qNlqs4sRvn7bVbjC5XC74/f60+UhloOUxED6fD4lEAk888YQaNnPmTCQSCcNIvdqKts/nU0c1hqYL7Jo1a9SKsFkFOF0al5XDoXTz3LJFqRzwz17yenqMz8P94hfKX/acJY918d20SR9ullY6kycrFVDts45Idqdkz/zxr67QKi83Pv959qzSlRcAenv7w5HsArt3b3/ZaLu+sjxt2dIfBk0e04xkPOj4Z1K7u/XTjPYHorNnja8oYcf+woX6aSS7Lo8cqV/X2bP9I8hqy5R1FdYeS+nSvkRYd9Kyn96he76RPR/JK71f6UHx8ial/Ng0kqPRXv/DH6jdULV2HjyJ63/4g5xGp9X6+fg7cXPeddjXc9rQjZW9PuTs519h+8EPce+c/zCMOCtyra+EEHI1oUolSam5uRkdHR1wuVwIBoMIBoNwuVzo6OhAc3OzGo+9ly/day8ysVqtOHDgAM6fPw+73Y76+nqEw2GEw2HU19dj9OjRkCQJBw4cyNj1df369ZAkCeXl5ep2l5eXo6OjAxs3buSjq5qbmyFJElwuF8LhMHw+HyZNmgRnshXk0CFl+HqGvVtTEAQ0NjbqKnVWqxUOhwMtLS3w+XzqNhxmzzWlMWnSJPh8PoTDYdTU1OCVV17B4sWLU+b7xRdfBJLvvdQu19LSkna5XC1YsACCIGDs2LGor6/PqlJ4MeWRrZ07d0IQBFRUVKhh7J2VO3fuBABMTFZ+5s2bh3A4jKamJkxjr7LQqKqqQiQSgSRJukoqBpDGZcMqan5/dpU79uyk9nk47TsrzUyYoLSSrVypvNdx2zblfYZVVcq6Fy3il0ht2TKlEjNxYn86v/xlfyUvxYBUQLKVbdgwYObM/vdJTpzYP6gR9x1VKz5mFV+WJ79feW/jtm3K35UrlW1hla3L4fjx/vJYsEB5xYrWyJFKi6jPp5QXy/f77+vjFRYq8fx+pQWSfwaWvYbG5VLWNXGiEt/p7C/TBQuUivs//IN+2UxpXwLs2co/vPUBNuw7hu0HP8TSDWE0/P4grjd55rFw9M24b9RN2NdzGrZb8gyvAZlbORbv/eVzVL20Axv2HcOGfcdQ9dIO9dUeA/W3f6Nsg2fzIbx19CMAwNwnxuLrb7/DL1buUbd5euNudJ/4FKWFSuW46M5bAAArth7B6l1Hsf3gh1i96yhaA72w3ZJ30ZVbQgi5IvghYQnRCgQCst1uV1/RYLfbDa9KSPUaiFz09fXJHo/HsE6Px2N4ZUY6oVBIl4bT6TRsN/9KDzmZX1EUZQCyIAjqegHIixcvVuP19fWpr8hgr6Hg89/X16e+joNtg/ZVFfz62bTH45EFQZAByKIoGtLlXykiJ197oV2X3W43vBpEC2leKcIzC5ckSbc+URTTrk/OojzkNMdSpleKSJIkg9tHDP9KFq/Xq+5js/JlBEGQBUHgg2U5QxqD9kqRbF4zwTidyrx9+/g5RmavlZBl5XUcgCyvWqVMm61r/nxleaD/9Rza13topXqliJxclzad+fOVV4MAslxdzcfW27evv9yQfG3HmTNKnszyxV5Dkqps5s/vfyXJyJHKtrGyYK8okXN8pQifd7NwJF/JwtIZNkzZB/y6zpzpzwtbxixPbFn+dSqMNr/l5Uq6Z870H0Nsf5jJlHaWBvJKkfWd78uP1/rlUTPb5FEz2+RnXv2jvC38Z/mF1v2mr/34t//skUfNbJMb/e/owplU6Wk9yb06JFX4mb9+qb5+RBu+Lfxn+ZlX/6iu4/Fav2F73uw5LT/z6h/le6rXyaNmtsn3VK+Tq1/rMOSHEEKuBl1dXbJFVm4wCSED0NTUhNraWoRCIRQXF6OoqAiSJOHkyZOmXSWzwUYR3ct3hbvCWF7NThXxeByHDh1CQ0MDIpEIent7c3vGcAgakvvDYlFa65KvdSFZYK2PJsfvZbdtmzL4zdatSgszaJ8SQgi5+nV3d1P3V0IGKhaLoba2Fg6HQ30+c9WqVUgkEljLBgS5RlitVlRUVGBZchCPr76i4fAJIYQQQq41VKkkZIBWJFsUlixZooYVFxfD4XAYnq38vguHwwgGg2hoaIAgCJfkNSGEEEIIIWRoo0olIQMQi8XQ0tICp9NpGEV2yZIl11RrZTAYRElJCSorKyGKIg4cOJBz119CCCGEEHL1omcqCSGEEEIIIYTkhJ6pJIQQQgghhBByUahSSQghhBBCCCEkZ1SpJIQQQgghhBCSM6pUEkIIIYQQQgjJGVUqCSGEEEIIIYTkjCqVhBBCCCGEEEJyRpVKQgghhBBCCCE5o0olIYQQQgghhJCcUaWSEEIIIYQQQkjOqFJJCCGEEEIIISRnVKkkhBBCCCGEEJIzqlQSQgghhBBCCMkZVSoJIYQQQgghhOSMKpWEEEIIIYQQQnJGlUpCCCGEEEIIITmjSiUhhBBCCCGEkJxRpZIQQgghhBBCSM6oUkkIIYQQQgghJGdUqSSEEEIIIYQQkjOqVBJCCCGEEEIIyRlVKklawWAQRUVFsFgsGDFiBGpqahCLxfhoF6WpqQkWiyXjp7y8nF/0sgmHw7BYLKipqeFnkSEsHo8jPz8fRUVFiMfjQJrjLRwO84tfleLxeNpj1axMCOG1tbXBYrHA5/PxswghhBADiyzLMh9ICAD4fD5MmzYNDocDzz//PACgoaEBkiQhEonAZrPxi+QkHA6jq6tLnT59+jRaWlrgcDjw2GOPqeG33347XC6XOn05FRUVoaioCM3NzfwsMoQ1NTVhy5Yt2Lt3L6xWKwAgFovh008/BQAcP34cc+fOxeLFi/Hb3/6WW/rqVVNTA5/Ph5MnT6r5ZszKhBCteDyO0aNHo66uDosWLeJnE0IIITrd3d1UqSSpjRgxAqIo4siRI2pYPB7Hgw8+iLKysktWwQqHwygpKYHH46EbGnLJsB9NvF7vFfux4lIJBoOorKz8XuaNEEIIIUNLd3c3dX8l5sLhMBKJBJ5++mlduNVqhdPpREtLiy78cguHw2q3XIvFApfLlXX3RX5Z/sO62ZaXl5t2udXGYbJJM1W3S5YWmx+NRnVp1dTU6Lopsq64fH7NwmOxGFwul25d0WgU9fX1sFgsabs/xuNx1NTUqMvm5+ejqalJnc+2l2cWzvLU1NSEaDSK/Px8NU2z7nVtbW1qnBEjRqCpqUnt1llfX49YLKb+z2N5i8VipmWCZKUrVYUyGAyq67Ykj61oNAqkKGMeW47/hMNhdflgMGi6X5DcZ9nkLZ2KigoIgoD169fzs0zzEI/HUV9fjxEjRhi2W7v95eXlhnCLxaIeF3w6+fn5CAaDCAaDsCTzbYZtk9mHyc/PN3zvtFi5sePJ5/OlXGdRURHy8/P5YB3+O82+h6zXApLbxP7XYvll25JNuaQrA7NPtscTY9Hsp3Th6b73LJw/b/Bdrtm+MFsfw/YPO5azTZsQQsjQRJVKMmDDhw8HkjcOV4LP50NJSQlEUUQgEEAgEMCFCxdQUlJiegOpZbasw+EAALjdboRCIXg8Hn6xtLJNc8qUKQiFQmhtbTXM05o8eTKefvppdV5LSwuWLl2qi5ONeDyOsrIydHZ2wuv1IhQKIS8vD48++ig6Oztht9vTdn9cunQpfD6fumxZWRl6enoMN32ZRKNRPProowAAh8OBjo4OSJKEQCCA6upqTJs2Tbff2traMHfuXNjtdoRCITQ3N6OxsRHTp08HAIwfPx42mw1OpxN+v19djvH7/bDb7Sm7Z8diMcyYMQNOp9NQoYzFYqisrFTX7fV6IUkSPvnkE128dEKhEEKhEOx2u256zJgxapwZM2ZgxIgR6joOHz6MyZMnA8BF5Y2JxWJIJBLo6OjI+D2Nx+MoLy9HS0sLXn31VfW4EwQBgiAgEAio2+/xeBAKheB2uwEAra2tCIVCmDJlCgBg3rx5eOWVV1BXV4dQKITq6mpUVlbid7/7HQDgwQcf1K2bGTNmjFpOANTyZ9PBYBCSJOG5557jluxns9lgt9uxZMkSAIDL5YIgCNi9e7cuXiwWQyQSgdPp1IVrRaNRlJSUAID6nT5y5AimT5+OSCSCsrIyAIDT6UQkEjGUMVtnaWkpkGW5pCsDszLP9ngaqHTf+zlz5gAA9u3bp1uGTT/xxBMAgLVr1wKAelyYYWWzYsUKAMg6bUIIIUOUTIiJvr4+GYDscDj4WbIoijIAORQK8bMGRSgUkgHIHo+HnyXLsiwLgpByu0RR5IN10i0rCIIuzOFwmMbly2Ugacpp8ufxeGQAstfr1YU7nU5Z+1Vly/Plz4e3traapudwOGQA8uLFi3XhvFT5Ytj28vhwp9MpC4Ig9/X1ybJm/Yzb7dbtN0EQDPuR5Q2Amo7X65UByL29vWq83t5eXZ75MpGT69dujxYrM75sGbP0UuHzKWuWd7vdunB+vdnkLR2WHkyOMz4P/LoZtg2tra26cFmzj7XLsO3j88bi2u12XXgqMDnvuN1uGZp9L5scZ7ImL6zc3G634TvI4kiSpAvXYt85bZy+vj5ZEAQZgBwIBGRZlmVJkkzLSBAEtRxyKRezMjAr82yPJzmZJn8smIVn+t6Loig7nU5dmNPp1H1nRVE05MvsfMrODUw2aRNCCBl6urq6ZGqpJKasVis8Hg86OjrUrqXBYBDl5eUQBIGPftmEk91yzVosFi5cCEmSUnZNzLRsIpFIuWwqlyLNBx54QDddWFiom87Wjh07gGSLjRYbdOnee+/VhfPKyspw+PDhAW8/z+/3w+VypWwVLSgogCRJiEajanlWV1fr4hQXF8Nut0MURTUd1tKxefNmNR77n83jhcNhdHR0oK6uznR7HnroIQDApk2bBtwiOxA/+9nPdNN33323bjqXvGktX74cdrsddrsd7e3t/GydHTt2QBRFFBcX68JZSx87jjLp6OgAADzzzDO68FmzZgHJLqe5OnLkSMaWdWjK8Z133gGSrVuJRELXEr5mzZqMrb1+vx8Oh0MXx2q1qq2FP/nJTwBN6+iaNWvUeMFgEIlEQm1Zu5TlwmQ6ngYi0/eetaKz70c8Hoff71dbfuPxOCRJUltz0yksLEQikVC76mZKmxBCyNBFlUqS0qJFi9Da2opIJIKSkhI8//zzeOyxxzB79mw+6mVz/PhxAMBtt93Gz8p4I3Uxy6ZyKdJMd7M7GIYNGwYkuxyms3r1agBASUmJ+gxXru644w4+SDVy5EgAwFdffcXP0rFarWqXUjbNdxNlN6CpKh+bNm0CNDf0vIKCArXL8Y033pj2Gb6LYXa8aOWSNyYajUKSJMyfPx+zZ89WK+ypHD58OOXzhfwPHLlg21tQUMDPylokEsmYb2iO6S+++ALQPFvKuqOyrq+5nsOGDx8OQRB039HZs2frusDu3r0bgiCgoqJCs6TRYJQLk+l4GohM3/upU6cCmm6p7C8LP3HiBKB5TCKde+65B9B89zOlTQghZOiiSiVJa86cOTh16hRkWcapU6ewaNEi9YaNb9kgV9bHH3/MB12UefPmIZFIqM/RZaqEMqdPn+aD1GPGzLFjx/igrM2cOVOtNLHKVFVVFR9NFYvF0rZ4RaNR1NbWwm63IxAIGJ53vZwGmjemra0NSLZosmfaWNj3ndl+dbvd6oA5rJKSTWtvtlhaLG2fz2foHTBU8c+CIovvfUFBAex2O3bu3AkA2LlzJ0RRzKlyzH7gYgYzbUIIIZcXVSpJSvn5+aYjUG7ZsgWiKPLBlwVr/TOrQLFWw1SyWfaGG27gZ5liLRWDmebFOnPmDB9kim0ra1Eww7qdud1uLFq0CMXFxaY37Gb4G1VRFE0HnWH2798PQRAy/khx6tQpRCIRXRhridq8eTM6OjogCELGG/p0+WBdTP1+PyoqKq7ozWwueUOyUuN2u2G1WtUWT7MRdpkHHngAp06d4oOBZCtmXl4eHzwg7HhI11qaidn5hv1QoT3e2Dq0rWRTp05Vu8Du2LEDTqcz594Ap0+fRiKR0K2TdYE9cOCAoetrOoNRLheLva+VyfZ7P3v2bLWbqt/vx8KFC9V5t956qy4uE4/HDceZ2TkyXdqEEEKGLqpUkpTsdruhMhAOhxGJRAzPvF0uxcXFKV+VsHz58rSVk0zL8r+I22w2dHR06J6tY13BWLyBpjmY9uzZo5vev3+/bvqpp54CkpUMLbat77//vi7cjPb5WTZKKH8TrH1eLR6P4/Dhw7r51dXVkCTJ9JUAPp9PfcYRmvLknwMMh8OQJAmSJBmedXS5XOjs7MSWLVsyVrry8vIMN7ZmtJUSn89nuu2Xw0DyhuS28pWamTNnIpFIGI4D5qmnnjJ9FpmllU3rKJIj+0LTxZjZunUrkHwuMldlZWWG72JnZyeQrPgy7PlF9mwskt9VURSxe/dudHR0ZJUfp9NpGDk3Ho+rZfinP/1JE7u/IvT73/8eoijqur5eynIZqC1btuimu7q6dNNMpu89a51lo1JrW35tNhtEUdStKx6PIxKJQJIkXZnu2LEDgiDozpHp0iaEEDKE8aP3EMKwkQWdTqccCoVkr9crC4Ig2+123SiMLJ7ZyIK5yJQeG5XS4XDIgUBADgQC6kibbFTGVNiyTqcz47K9vb1qfllcNqKrNv8DSVNOkz+z0SzNwtnyLI1QKKSOjgnNiI99fX2y3W6XBUGQvV6vHAqF1JEU7Xa7YXRGHhsl1ev1yoFAQE2LjazJtksbh+WbzwfbPrvdro4ezML4kSu15ak97tiInHyZassj1TxWJoFAQJe2dnRVbXw2n+WRbSOfXjrpRn/ll88UbpY3M/xomgwrP9lkXdrjpLW1Vc03O/bNmI1EKmv2MzsuWTy278xG3OXBZORTNoKq3W6XQ8njnW0vO/7YccIvK2u2N9ttMPvu2+12NR/8yMlsFFizeXIO5WJWBmZlzu/LdOFs+7THtpAczVZ7Lsr0vdfGY/uEx0afdbvdcigUku12u+xwOGS3262WKcuPdt1MurQJIYQMPV1dXbLxDpYQDVaRQrLy4Ha7DTdA7AbG7OYgF9mkx252+BulbAxk2d7eXl1Fyel0Gm6u5AGmmSp/7CaLx4ez5RcvXqzuG1EUTV8j0NfXp6twOhwOube3V168eLEMk5tZrb6+PvWm1yzv2ptCdnPqcDjUtHkej0fdXrbNqV6PwR93Ho9H7ku+5sbspp1V9nlmN9f8drAbaMbr9erKVbufzNJLZTAqlXKavPFYxcasfNg+kSTJdF3sOGH7keU71fHB9r3Z9mqPB1EU1UoZsqwYw6RCJXPHhN1u1/24wdZndn6SNWXDKtbZ4L/7LG17ih9k2HfF7PwgD7BczMrArMzN9mWqcJZ/lid23IM7F2X63jNsWf51Kow2v06nU+7r69Odj9j32kymtAkhhAwtXV1dskVWLjaEkCGqqakJtbW1YF/VcDiMkpIShEKhlF19Lwd+u7JVXl6Ojo6OAS93KcTjccybNw9+v/+Kbs9Q2ackd7l+Hy4Fs+PJYrHA4/Fg0aJFfHRCCCHkonR3d9MzlYSQa5fVas35PaCEEEIIIURBlUpCyDWrvr4ejY2N6mAqhBBCCCFk4KhSSQi5JkWjUbS0tMDlcuGNN97gZxNCCCGEkCzRM5WEEEIIIYQQQnJCz1QSQgghhBBCCLkoVKkkhBBCCCGEEJIzqlQSQgghhBBCCMkZVSoJIYQQQgghhOSMKpWEEEIIIYQQQnJGlUpCCCGEEEIIITmjSiUhhBBCCCGEkJz9/86mOkrzysXtAAAAAElFTkSuQmCC;" parent="1" vertex="1">
          <mxGeometry x="-800" y="587.92" width="771.21" height="502.08" as="geometry" />
        </mxCell>
        <mxCell id="34CBw4b4ZdrORiOZopte-6" value="" style="endArrow=classic;html=1;rounded=0;" parent="1" target="XpciIUGIXHY3oaiCGFSE-15" edge="1">
          <mxGeometry width="50" height="50" relative="1" as="geometry">
            <mxPoint x="355" y="150" as="sourcePoint" />
            <mxPoint x="515" y="150" as="targetPoint" />
          </mxGeometry>
        </mxCell>
        <mxCell id="34CBw4b4ZdrORiOZopte-7" value="SearchQuery()" style="text;html=1;align=center;verticalAlign=middle;resizable=0;points=[];autosize=1;strokeColor=none;fillColor=none;" parent="1" vertex="1">
          <mxGeometry x="445" y="125" width="100" height="30" as="geometry" />
        </mxCell>
        <mxCell id="q2buyoBu1xX73KLUiP7z-1" value=":Favorites" style="shape=umlLifeline;perimeter=lifelinePerimeter;whiteSpace=wrap;html=1;container=0;dropTarget=0;collapsible=0;recursiveResize=0;outlineConnect=0;portConstraint=eastwest;newEdgeStyle={&quot;edgeStyle&quot;:&quot;elbowEdgeStyle&quot;,&quot;elbow&quot;:&quot;vertical&quot;,&quot;curved&quot;:0,&quot;rounded&quot;:0};" parent="1" vertex="1">
          <mxGeometry x="805" y="40" width="100" height="650" as="geometry" />
        </mxCell>
        <mxCell id="q2buyoBu1xX73KLUiP7z-3" value="" style="html=1;points=[[0,0,0,0,5],[0,1,0,0,-5],[1,0,0,0,5],[1,1,0,0,-5]];perimeter=orthogonalPerimeter;outlineConnect=0;targetShapes=umlLifeline;portConstraint=eastwest;newEdgeStyle={&quot;curved&quot;:0,&quot;rounded&quot;:0};" parent="q2buyoBu1xX73KLUiP7z-1" vertex="1">
          <mxGeometry x="45" y="510" width="10" height="30" as="geometry" />
        </mxCell>
        <mxCell id="q2buyoBu1xX73KLUiP7z-4" value="" style="html=1;points=[[0,0,0,0,5],[0,1,0,0,-5],[1,0,0,0,5],[1,1,0,0,-5]];perimeter=orthogonalPerimeter;outlineConnect=0;targetShapes=umlLifeline;portConstraint=eastwest;newEdgeStyle={&quot;curved&quot;:0,&quot;rounded&quot;:0};" parent="q2buyoBu1xX73KLUiP7z-1" vertex="1">
          <mxGeometry x="45" y="560" width="10" height="30" as="geometry" />
        </mxCell>
        <mxCell id="gPNWkS_njnOnVbvOl7r_-1" value="" style="endArrow=classic;html=1;rounded=0;exitX=0;exitY=0;exitDx=0;exitDy=5;exitPerimeter=0;" parent="1" target="H98rCoK42WbpM3wih2S7-15" edge="1">
          <mxGeometry width="50" height="50" relative="1" as="geometry">
            <mxPoint x="470" y="587.92" as="sourcePoint" />
            <mxPoint x="360" y="588" as="targetPoint" />
          </mxGeometry>
        </mxCell>
        <mxCell id="gPNWkS_njnOnVbvOl7r_-2" value="ReturnFavorites()" style="text;html=1;align=center;verticalAlign=middle;resizable=0;points=[];autosize=1;strokeColor=none;fillColor=none;" parent="1" vertex="1">
          <mxGeometry x="345" y="580" width="120" height="30" as="geometry" />
        </mxCell>
      </root>
    </mxGraphModel>
  </diagram>
</mxfile>
